G04*
G04 #@! TF.GenerationSoftware,Altium Limited,Altium Designer,23.4.1 (23)*
G04*
G04 Layer_Color=2752767*
%FSLAX44Y44*%
%MOMM*%
G71*
G04*
G04 #@! TF.SameCoordinates,296E2F05-AFD3-44B7-80E4-9C800FA3EDDF*
G04*
G04*
G04 #@! TF.FilePolarity,Positive*
G04*
G01*
G75*
%ADD57C,0.1270*%
%ADD58C,0.1693*%
%ADD59C,0.1016*%
D57*
X27940Y847090D02*
X30480Y849630D01*
X33020D01*
X30480Y852170D01*
X33020Y854710D01*
X30480D01*
X27940Y857250D01*
X25400Y854710D01*
X22860D01*
X25400Y852170D01*
X22860Y849630D01*
X25400D01*
X27940Y847090D01*
Y849122D02*
X29464Y850646D01*
X30988D01*
X29464Y852170D01*
X30988Y853694D01*
X29464D01*
X27940Y855218D01*
X26416Y853694D01*
X24892D01*
X26416Y852170D01*
X24892Y850646D01*
X26416D01*
X27940Y849122D01*
X780415Y846455D02*
X782955Y848995D01*
X785495D01*
X782955Y851535D01*
X785495Y854075D01*
X782955D01*
X780415Y856615D01*
X777875Y854075D01*
X775335D01*
X777875Y851535D01*
X775335Y848995D01*
X777875D01*
X780415Y846455D01*
Y848487D02*
X781939Y850011D01*
X783463D01*
X781939Y851535D01*
X783463Y853059D01*
X781939D01*
X780415Y854583D01*
X778891Y853059D01*
X777367D01*
X778891Y851535D01*
X777367Y850011D01*
X778891D01*
X780415Y848487D01*
X229470Y485140D02*
X234550Y490220D01*
X239630Y485140D01*
X234550Y480060D01*
X229470Y485140D01*
X204470D02*
X209550Y490220D01*
X214630Y485140D01*
X209550Y480060D01*
X204470Y485140D01*
X414274Y410440D02*
Y420600D01*
X424434D01*
Y410440D01*
X414274D01*
X416306Y412472D02*
Y418568D01*
X422402D01*
Y412472D01*
X416306D01*
X414274Y519200D02*
Y529360D01*
X424434D01*
Y519200D01*
X414274D01*
X416306Y521232D02*
Y527328D01*
X422402D01*
Y521232D01*
X416306D01*
X655320Y186490D02*
X660400Y191570D01*
X665480Y186490D01*
X660400Y181410D01*
X655320Y186490D01*
Y161490D02*
X660400Y166570D01*
X665480Y161490D01*
X660400Y156410D01*
X655320Y161490D01*
X724590Y283260D02*
X727130Y288340D01*
X724590Y293420D01*
X729670Y290880D01*
X734750Y293420D01*
X732210Y288340D01*
X734750Y283260D01*
X729670Y285800D01*
X724590Y283260D01*
Y245160D02*
X727130Y250240D01*
X724590Y255320D01*
X729670Y252780D01*
X734750Y255320D01*
X732210Y250240D01*
X734750Y245160D01*
X729670Y247700D01*
X724590Y245160D01*
X182210Y622300D02*
X177130Y632460D01*
X187290D01*
X182210Y622300D01*
X257210D02*
X252130Y632460D01*
X262290D01*
X257210Y622300D01*
X212729Y760689D02*
Y770849D01*
X222889D01*
Y760689D01*
X212729D01*
X187329D02*
Y770849D01*
X197489D01*
Y760689D01*
X187329D01*
X161929D02*
Y770849D01*
X172089D01*
Y760689D01*
X161929D01*
X441960Y760730D02*
Y770890D01*
X452120D01*
Y760730D01*
X441960D01*
X467360D02*
Y770890D01*
X477520D01*
Y760730D01*
X467360D01*
X492760D02*
Y770890D01*
X502920D01*
Y760730D01*
X492760D01*
X478155Y361950D02*
Y359410D01*
X483235D01*
Y361950D01*
X485775D01*
Y367030D01*
X483235D01*
Y369570D01*
X478155D01*
Y367030D01*
X475615D01*
Y361950D01*
X478155D01*
X452755D02*
Y359410D01*
X457835D01*
Y361950D01*
X460375D01*
Y367030D01*
X457835D01*
Y369570D01*
X452755D01*
Y367030D01*
X450215D01*
Y361950D01*
X452755D01*
X427355D02*
Y359410D01*
X432435D01*
Y361950D01*
X434975D01*
Y367030D01*
X432435D01*
Y369570D01*
X427355D01*
Y367030D01*
X424815D01*
Y361950D01*
X427355D01*
X401955D02*
Y359410D01*
X407035D01*
Y361950D01*
X409575D01*
Y367030D01*
X407035D01*
Y369570D01*
X401955D01*
Y367030D01*
X399415D01*
Y361950D01*
X401955D01*
X478155Y285750D02*
Y283210D01*
X483235D01*
Y285750D01*
X485775D01*
Y290830D01*
X483235D01*
Y293370D01*
X478155D01*
Y290830D01*
X475615D01*
Y285750D01*
X478155D01*
X452755D02*
Y283210D01*
X457835D01*
Y285750D01*
X460375D01*
Y290830D01*
X457835D01*
Y293370D01*
X452755D01*
Y290830D01*
X450215D01*
Y285750D01*
X452755D01*
X427355D02*
Y283210D01*
X432435D01*
Y285750D01*
X434975D01*
Y290830D01*
X432435D01*
Y293370D01*
X427355D01*
Y290830D01*
X424815D01*
Y285750D01*
X427355D01*
X401955D02*
Y283210D01*
X407035D01*
Y285750D01*
X409575D01*
Y290830D01*
X407035D01*
Y293370D01*
X401955D01*
Y290830D01*
X399415D01*
Y285750D01*
X401955D01*
X646430Y361950D02*
Y359410D01*
X651510D01*
Y361950D01*
X654050D01*
Y367030D01*
X651510D01*
Y369570D01*
X646430D01*
Y367030D01*
X643890D01*
Y361950D01*
X646430D01*
X621030D02*
Y359410D01*
X626110D01*
Y361950D01*
X628650D01*
Y367030D01*
X626110D01*
Y369570D01*
X621030D01*
Y367030D01*
X618490D01*
Y361950D01*
X621030D01*
X595630D02*
Y359410D01*
X600710D01*
Y361950D01*
X603250D01*
Y367030D01*
X600710D01*
Y369570D01*
X595630D01*
Y367030D01*
X593090D01*
Y361950D01*
X595630D01*
X570230D02*
Y359410D01*
X575310D01*
Y361950D01*
X577850D01*
Y367030D01*
X575310D01*
Y369570D01*
X570230D01*
Y367030D01*
X567690D01*
Y361950D01*
X570230D01*
X646430Y285750D02*
Y283210D01*
X651510D01*
Y285750D01*
X654050D01*
Y290830D01*
X651510D01*
Y293370D01*
X646430D01*
Y290830D01*
X643890D01*
Y285750D01*
X646430D01*
X621030D02*
Y283210D01*
X626110D01*
Y285750D01*
X628650D01*
Y290830D01*
X626110D01*
Y293370D01*
X621030D01*
Y290830D01*
X618490D01*
Y285750D01*
X621030D01*
X595630D02*
Y283210D01*
X600710D01*
Y285750D01*
X603250D01*
Y290830D01*
X600710D01*
Y293370D01*
X595630D01*
Y290830D01*
X593090D01*
Y285750D01*
X595630D01*
X570230D02*
Y283210D01*
X575310D01*
Y285750D01*
X577850D01*
Y290830D01*
X575310D01*
Y293370D01*
X570230D01*
Y290830D01*
X567690D01*
Y285750D01*
X570230D01*
X269240Y53340D02*
X274320Y58420D01*
X279400Y53340D01*
X274320Y48260D01*
X269240Y53340D01*
X289240D02*
X294320Y58420D01*
X299400Y53340D01*
X294320Y48260D01*
X289240Y53340D01*
X629920Y534440D02*
Y544600D01*
X640080D01*
Y534440D01*
X629920D01*
X631952Y536472D02*
Y542568D01*
X638048D01*
Y536472D01*
X631952D01*
X629920Y425680D02*
Y435840D01*
X640080D01*
Y425680D01*
X629920D01*
X631952Y427712D02*
Y433808D01*
X638048D01*
Y427712D01*
X631952D01*
X566420Y424410D02*
Y434570D01*
X576580D01*
Y424410D01*
X566420D01*
X568452Y426442D02*
Y432538D01*
X574548D01*
Y426442D01*
X568452D01*
X566420Y533170D02*
Y543330D01*
X576580D01*
Y533170D01*
X566420D01*
X568452Y535202D02*
Y541298D01*
X574548D01*
Y535202D01*
X568452D01*
X47680Y773480D02*
X50220Y778560D01*
X47680Y783640D01*
X52760Y781100D01*
X57840Y783640D01*
X55300Y778560D01*
X57840Y773480D01*
X52760Y776020D01*
X47680Y773480D01*
Y735380D02*
X50220Y740460D01*
X47680Y745540D01*
X52760Y743000D01*
X57840Y745540D01*
X55300Y740460D01*
X57840Y735380D01*
X52760Y737920D01*
X47680Y735380D01*
X233680Y285750D02*
Y283210D01*
X238760D01*
Y285750D01*
X241300D01*
Y290830D01*
X238760D01*
Y293370D01*
X233680D01*
Y290830D01*
X231140D01*
Y285750D01*
X233680D01*
X259080D02*
Y283210D01*
X264160D01*
Y285750D01*
X266700D01*
Y290830D01*
X264160D01*
Y293370D01*
X259080D01*
Y290830D01*
X256540D01*
Y285750D01*
X259080D01*
X284480D02*
Y283210D01*
X289560D01*
Y285750D01*
X292100D01*
Y290830D01*
X289560D01*
Y293370D01*
X284480D01*
Y290830D01*
X281940D01*
Y285750D01*
X284480D01*
X309880D02*
Y283210D01*
X314960D01*
Y285750D01*
X317500D01*
Y290830D01*
X314960D01*
Y293370D01*
X309880D01*
Y290830D01*
X307340D01*
Y285750D01*
X309880D01*
X233680Y361950D02*
Y359410D01*
X238760D01*
Y361950D01*
X241300D01*
Y367030D01*
X238760D01*
Y369570D01*
X233680D01*
Y367030D01*
X231140D01*
Y361950D01*
X233680D01*
X259080D02*
Y359410D01*
X264160D01*
Y361950D01*
X266700D01*
Y367030D01*
X264160D01*
Y369570D01*
X259080D01*
Y367030D01*
X256540D01*
Y361950D01*
X259080D01*
X284480D02*
Y359410D01*
X289560D01*
Y361950D01*
X292100D01*
Y367030D01*
X289560D01*
Y369570D01*
X284480D01*
Y367030D01*
X281940D01*
Y361950D01*
X284480D01*
X309880D02*
Y359410D01*
X314960D01*
Y361950D01*
X317500D01*
Y367030D01*
X314960D01*
Y369570D01*
X309880D01*
Y367030D01*
X307340D01*
Y361950D01*
X309880D01*
X713740Y609600D02*
X716280Y614680D01*
X713740Y619760D01*
X718820Y617220D01*
X723900Y619760D01*
X721360Y614680D01*
X723900Y609600D01*
X718820Y612140D01*
X713740Y609600D01*
X715772Y611632D02*
X717296Y614680D01*
X715772Y617728D01*
X718820Y616204D01*
X721868Y617728D01*
X720344Y614680D01*
X721868Y611632D01*
X718820Y613156D01*
X715772Y611632D01*
X713740Y635000D02*
X716280Y640080D01*
X713740Y645160D01*
X718820Y642620D01*
X723900Y645160D01*
X721360Y640080D01*
X723900Y635000D01*
X718820Y637540D01*
X713740Y635000D01*
X715772Y637032D02*
X717296Y640080D01*
X715772Y643128D01*
X718820Y641604D01*
X721868Y643128D01*
X720344Y640080D01*
X721868Y637032D01*
X718820Y638556D01*
X715772Y637032D01*
X713740Y660400D02*
X716280Y665480D01*
X713740Y670560D01*
X718820Y668020D01*
X723900Y670560D01*
X721360Y665480D01*
X723900Y660400D01*
X718820Y662940D01*
X713740Y660400D01*
X715772Y662432D02*
X717296Y665480D01*
X715772Y668528D01*
X718820Y667004D01*
X721868Y668528D01*
X720344Y665480D01*
X721868Y662432D01*
X718820Y663956D01*
X715772Y662432D01*
X712470Y415290D02*
X715010Y420370D01*
X712470Y425450D01*
X717550Y422910D01*
X722630Y425450D01*
X720090Y420370D01*
X722630Y415290D01*
X717550Y417830D01*
X712470Y415290D01*
Y440690D02*
X715010Y445770D01*
X712470Y450850D01*
X717550Y448310D01*
X722630Y450850D01*
X720090Y445770D01*
X722630Y440690D01*
X717550Y443230D01*
X712470Y440690D01*
Y466090D02*
X715010Y471170D01*
X712470Y476250D01*
X717550Y473710D01*
X722630Y476250D01*
X720090Y471170D01*
X722630Y466090D01*
X717550Y468630D01*
X712470Y466090D01*
X546100Y595860D02*
Y606020D01*
X556260D01*
Y595860D01*
X546100D01*
X548132Y597892D02*
Y603988D01*
X554228D01*
Y597892D01*
X548132D01*
X546100Y704620D02*
Y714780D01*
X556260D01*
Y704620D01*
X546100D01*
X548132Y706652D02*
Y712748D01*
X554228D01*
Y706652D01*
X548132D01*
X615950Y705890D02*
Y716050D01*
X626110D01*
Y705890D01*
X615950D01*
X617982Y707922D02*
Y714018D01*
X624078D01*
Y707922D01*
X617982D01*
X615950Y597130D02*
Y607290D01*
X626110D01*
Y597130D01*
X615950D01*
X617982Y599162D02*
Y605258D01*
X624078D01*
Y599162D01*
X617982D01*
X496570Y424410D02*
Y434570D01*
X506730D01*
Y424410D01*
X496570D01*
X498602Y426442D02*
Y432538D01*
X504698D01*
Y426442D01*
X498602D01*
X496570Y533170D02*
Y543330D01*
X506730D01*
Y533170D01*
X496570D01*
X498602Y535202D02*
Y541298D01*
X504698D01*
Y535202D01*
X498602D01*
X27305Y20955D02*
X29845Y23495D01*
X32385D01*
X29845Y26035D01*
X32385Y28575D01*
X29845D01*
X27305Y31115D01*
X24765Y28575D01*
X22225D01*
X24765Y26035D01*
X22225Y23495D01*
X24765D01*
X27305Y20955D01*
Y22987D02*
X28829Y24511D01*
X30353D01*
X28829Y26035D01*
X30353Y27559D01*
X28829D01*
X27305Y29083D01*
X25781Y27559D01*
X24257D01*
X25781Y26035D01*
X24257Y24511D01*
X25781D01*
X27305Y22987D01*
X781685Y20955D02*
X784225Y23495D01*
X786765D01*
X784225Y26035D01*
X786765Y28575D01*
X784225D01*
X781685Y31115D01*
X779145Y28575D01*
X776605D01*
X779145Y26035D01*
X776605Y23495D01*
X779145D01*
X781685Y20955D01*
Y22987D02*
X783209Y24511D01*
X784733D01*
X783209Y26035D01*
X784733Y27559D01*
X783209D01*
X781685Y29083D01*
X780161Y27559D01*
X778637D01*
X780161Y26035D01*
X778637Y24511D01*
X780161D01*
X781685Y22987D01*
X442630Y632460D02*
X437550Y642620D01*
X447710D01*
X442630Y632460D01*
X367630D02*
X362550Y642620D01*
X372710D01*
X367630Y632460D01*
X189330Y53920D02*
X191870Y59000D01*
X189330Y64080D01*
X194410Y61540D01*
X199490Y64080D01*
X196950Y59000D01*
X199490Y53920D01*
X194410Y56460D01*
X189330Y53920D01*
X151130D02*
X153670Y59000D01*
X151130Y64080D01*
X156210Y61540D01*
X161290Y64080D01*
X158750Y59000D01*
X161290Y53920D01*
X156210Y56460D01*
X151130Y53920D01*
X113130D02*
X115670Y59000D01*
X113130Y64080D01*
X118210Y61540D01*
X123290Y64080D01*
X120750Y59000D01*
X123290Y53920D01*
X118210Y56460D01*
X113130Y53920D01*
X731620Y52070D02*
X734160Y57150D01*
X731620Y62230D01*
X736700Y59690D01*
X741780Y62230D01*
X739240Y57150D01*
X741780Y52070D01*
X736700Y54610D01*
X731620Y52070D01*
X693420D02*
X695960Y57150D01*
X693420Y62230D01*
X698500Y59690D01*
X703580Y62230D01*
X701040Y57150D01*
X703580Y52070D01*
X698500Y54610D01*
X693420Y52070D01*
X655420D02*
X657960Y57150D01*
X655420Y62230D01*
X660500Y59690D01*
X665580Y62230D01*
X663040Y57150D01*
X665580Y52070D01*
X660500Y54610D01*
X655420Y52070D01*
X293370Y500380D02*
X295910Y502920D01*
X298450D01*
X295910Y505460D01*
X298450Y508000D01*
X295910D01*
X293370Y510540D01*
X290830Y508000D01*
X288290D01*
X290830Y505460D01*
X288290Y502920D01*
X290830D01*
X293370Y500380D01*
X318370D02*
X320910Y502920D01*
X323450D01*
X320910Y505460D01*
X323450Y508000D01*
X320910D01*
X318370Y510540D01*
X315830Y508000D01*
X313290D01*
X315830Y505460D01*
X313290Y502920D01*
X315830D01*
X318370Y500380D01*
X306070Y424180D02*
X308610Y426720D01*
X311150D01*
X308610Y429260D01*
X311150Y431800D01*
X308610D01*
X306070Y434340D01*
X303530Y431800D01*
X300990D01*
X303530Y429260D01*
X300990Y426720D01*
X303530D01*
X306070Y424180D01*
X331070D02*
X333610Y426720D01*
X336150D01*
X333610Y429260D01*
X336150Y431800D01*
X333610D01*
X331070Y434340D01*
X328530Y431800D01*
X325990D01*
X328530Y429260D01*
X325990Y426720D01*
X328530D01*
X331070Y424180D01*
X447140Y52070D02*
X449680Y57150D01*
X447140Y62230D01*
X452220Y59690D01*
X457300Y62230D01*
X454760Y57150D01*
X457300Y52070D01*
X452220Y54610D01*
X447140Y52070D01*
X408940D02*
X411480Y57150D01*
X408940Y62230D01*
X414020Y59690D01*
X419100Y62230D01*
X416560Y57150D01*
X419100Y52070D01*
X414020Y54610D01*
X408940Y52070D01*
X370940D02*
X373480Y57150D01*
X370940Y62230D01*
X376020Y59690D01*
X381100Y62230D01*
X378560Y57150D01*
X381100Y52070D01*
X376020Y54610D01*
X370940Y52070D01*
X41330Y490270D02*
X43870Y495350D01*
X41330Y500430D01*
X46410Y497890D01*
X51490Y500430D01*
X48950Y495350D01*
X51490Y490270D01*
X46410Y492810D01*
X41330Y490270D01*
Y452170D02*
X43870Y457250D01*
X41330Y462330D01*
X46410Y459790D01*
X51490Y462330D01*
X48950Y457250D01*
X51490Y452170D01*
X46410Y454710D01*
X41330Y452170D01*
X528720Y199390D02*
X533800Y204470D01*
X538880Y199390D01*
X533800Y194310D01*
X528720Y199390D01*
X578720D02*
X583800Y204470D01*
X588880Y199390D01*
X583800Y194310D01*
X578720Y199390D01*
X627380Y264160D02*
X629920D01*
X632460Y266700D01*
X635000Y264160D01*
X637540D01*
Y266700D01*
X635000Y269240D01*
X637540Y271780D01*
Y274320D01*
X635000D01*
X632460Y271780D01*
X629920Y274320D01*
X627380D01*
Y271780D01*
X629920Y269240D01*
X627380Y266700D01*
Y264160D01*
X650240Y247650D02*
X652780D01*
X655320Y250190D01*
X657860Y247650D01*
X660400D01*
Y250190D01*
X657860Y252730D01*
X660400Y255270D01*
Y257810D01*
X657860D01*
X655320Y255270D01*
X652780Y257810D01*
X650240D01*
Y255270D01*
X652780Y252730D01*
X650240Y250190D01*
Y247650D01*
X277622Y12954D02*
X280162D01*
X282702Y15494D01*
X285242Y12954D01*
X287782D01*
Y15494D01*
X285242Y18034D01*
X287782Y20574D01*
Y23114D01*
X285242D01*
X282702Y20574D01*
X280162Y23114D01*
X277622D01*
Y20574D01*
X280162Y18034D01*
X277622Y15494D01*
Y12954D01*
X692504D02*
X695044D01*
X697584Y15494D01*
X700124Y12954D01*
X702664D01*
Y15494D01*
X700124Y18034D01*
X702664Y20574D01*
Y23114D01*
X700124D01*
X697584Y20574D01*
X695044Y23114D01*
X692504D01*
Y20574D01*
X695044Y18034D01*
X692504Y15494D01*
Y12954D01*
D58*
X136050Y486410D02*
G03*
X136050Y486410I-5080J0D01*
G01*
X156050D02*
G03*
X156050Y486410I-5080J0D01*
G01*
X214811Y122450D02*
G03*
X214811Y122450I-5080J0D01*
G01*
Y220450D02*
G03*
X214811Y220450I-5080J0D01*
G01*
X275409D02*
G03*
X275409Y220450I-5080J0D01*
G01*
Y122450D02*
G03*
X275409Y122450I-5080J0D01*
G01*
X336006Y220450D02*
G03*
X336006Y220450I-5080J0D01*
G01*
Y122450D02*
G03*
X336006Y122450I-5080J0D01*
G01*
X80010Y566030D02*
G03*
X80010Y566030I-5080J0D01*
G01*
Y676030D02*
G03*
X80010Y676030I-5080J0D01*
G01*
X33020D02*
G03*
X33020Y676030I-5080J0D01*
G01*
Y566030D02*
G03*
X33020Y566030I-5080J0D01*
G01*
X457200Y220450D02*
G03*
X457200Y220450I-5080J0D01*
G01*
Y122450D02*
G03*
X457200Y122450I-5080J0D01*
G01*
X396603Y122450D02*
G03*
X396603Y122450I-5080J0D01*
G01*
Y220450D02*
G03*
X396603Y220450I-5080J0D01*
G01*
X32940Y276470D02*
G03*
X32940Y276470I-5080J0D01*
G01*
Y386470D02*
G03*
X32940Y386470I-5080J0D01*
G01*
X33020Y220450D02*
G03*
X33020Y220450I-5080J0D01*
G01*
Y122450D02*
G03*
X33020Y122450I-5080J0D01*
G01*
X149860Y386470D02*
G03*
X149860Y386470I-5080J0D01*
G01*
Y276470D02*
G03*
X149860Y276470I-5080J0D01*
G01*
X91400Y386080D02*
G03*
X91400Y386080I-5080J0D01*
G01*
Y276080D02*
G03*
X91400Y276080I-5080J0D01*
G01*
X557530Y108620D02*
G03*
X557530Y108620I-5080J0D01*
G01*
Y33620D02*
G03*
X557530Y33620I-5080J0D01*
G01*
X387669Y768309D02*
G03*
X387669Y768309I-5080J0D01*
G01*
X367669D02*
G03*
X367669Y768309I-5080J0D01*
G01*
X320359Y767039D02*
G03*
X320359Y767039I-5080J0D01*
G01*
X300359D02*
G03*
X300359Y767039I-5080J0D01*
G01*
X154214Y220450D02*
G03*
X154214Y220450I-5080J0D01*
G01*
Y122450D02*
G03*
X154214Y122450I-5080J0D01*
G01*
X93617Y220450D02*
G03*
X93617Y220450I-5080J0D01*
G01*
Y122450D02*
G03*
X93617Y122450I-5080J0D01*
G01*
D59*
X212779D02*
G03*
X212779Y122450I-3048J0D01*
G01*
Y220450D02*
G03*
X212779Y220450I-3048J0D01*
G01*
X273377D02*
G03*
X273377Y220450I-3048J0D01*
G01*
Y122450D02*
G03*
X273377Y122450I-3048J0D01*
G01*
X333974Y220450D02*
G03*
X333974Y220450I-3048J0D01*
G01*
Y122450D02*
G03*
X333974Y122450I-3048J0D01*
G01*
X77978Y566030D02*
G03*
X77978Y566030I-3048J0D01*
G01*
Y676030D02*
G03*
X77978Y676030I-3048J0D01*
G01*
X30988D02*
G03*
X30988Y676030I-3048J0D01*
G01*
Y566030D02*
G03*
X30988Y566030I-3048J0D01*
G01*
X455168Y220450D02*
G03*
X455168Y220450I-3048J0D01*
G01*
Y122450D02*
G03*
X455168Y122450I-3048J0D01*
G01*
X394571Y122450D02*
G03*
X394571Y122450I-3048J0D01*
G01*
Y220450D02*
G03*
X394571Y220450I-3048J0D01*
G01*
X30908Y276470D02*
G03*
X30908Y276470I-3048J0D01*
G01*
Y386470D02*
G03*
X30908Y386470I-3048J0D01*
G01*
X30988Y220450D02*
G03*
X30988Y220450I-3048J0D01*
G01*
Y122450D02*
G03*
X30988Y122450I-3048J0D01*
G01*
X147828Y386470D02*
G03*
X147828Y386470I-3048J0D01*
G01*
Y276470D02*
G03*
X147828Y276470I-3048J0D01*
G01*
X89368Y386080D02*
G03*
X89368Y386080I-3048J0D01*
G01*
Y276080D02*
G03*
X89368Y276080I-3048J0D01*
G01*
X152182Y220450D02*
G03*
X152182Y220450I-3048J0D01*
G01*
Y122450D02*
G03*
X152182Y122450I-3048J0D01*
G01*
X91585Y220450D02*
G03*
X91585Y220450I-3048J0D01*
G01*
Y122450D02*
G03*
X91585Y122450I-3048J0D01*
G01*
M02*
