G04*
G04 #@! TF.GenerationSoftware,Altium Limited,Altium Designer,23.4.1 (23)*
G04*
G04 Layer_Physical_Order=1*
G04 Layer_Color=255*
%FSLAX44Y44*%
%MOMM*%
G71*
G04*
G04 #@! TF.SameCoordinates,296E2F05-AFD3-44B7-80E4-9C800FA3EDDF*
G04*
G04*
G04 #@! TF.FilePolarity,Positive*
G04*
G01*
G75*
%ADD16C,1.2000*%
%ADD17R,1.2000X1.2000*%
%ADD18R,1.6000X1.6000*%
%ADD19C,1.6000*%
%ADD20R,1.2000X1.2000*%
%ADD22R,1.5500X1.5500*%
%ADD23C,1.5500*%
%ADD31C,1.3500*%
%ADD32R,1.3500X1.3500*%
%ADD33C,2.0000*%
%ADD34R,2.0000X2.0000*%
%ADD35C,1.8500*%
%ADD36R,1.8500X1.8500*%
%ADD37C,1.3000*%
%ADD38R,1.3000X1.3000*%
%ADD42C,1.2500*%
%ADD43C,3.7000*%
%ADD44C,1.8000*%
%ADD45C,1.7000*%
%ADD46R,1.7000X1.7000*%
%ADD47C,1.5000*%
%ADD48R,1.5000X1.5000*%
%ADD49R,1.3000X1.3000*%
%ADD50C,1.2500*%
%ADD51R,1.2500X1.2500*%
%ADD52C,1.2700*%
D16*
X234550Y485140D02*
D03*
X660400Y186490D02*
D03*
X294320Y53340D02*
D03*
X533800Y199390D02*
D03*
D17*
X209550Y485140D02*
D03*
X274320Y53340D02*
D03*
X583800Y199390D02*
D03*
D18*
X419354Y415520D02*
D03*
X635000Y539520D02*
D03*
X571500Y429490D02*
D03*
X551180Y709700D02*
D03*
X621030Y602210D02*
D03*
X501650Y538250D02*
D03*
D19*
X419354Y524280D02*
D03*
X635000Y430760D02*
D03*
X571500Y538250D02*
D03*
X551180Y600940D02*
D03*
X621030Y710970D02*
D03*
X501650Y429490D02*
D03*
D20*
X660400Y161490D02*
D03*
D22*
X182210Y627380D02*
D03*
X442630Y637540D02*
D03*
D23*
X257210Y627380D02*
D03*
X367630Y637540D02*
D03*
D31*
X209731Y122450D02*
D03*
Y220450D02*
D03*
X270329D02*
D03*
Y122450D02*
D03*
X330926Y220450D02*
D03*
Y122450D02*
D03*
X74930Y566030D02*
D03*
X27940Y676030D02*
D03*
X452120Y220450D02*
D03*
Y122450D02*
D03*
X391523Y122450D02*
D03*
Y220450D02*
D03*
X27860Y386470D02*
D03*
X27940Y220450D02*
D03*
Y122450D02*
D03*
X144780Y386470D02*
D03*
X86320Y386080D02*
D03*
X149134Y220450D02*
D03*
Y122450D02*
D03*
X88537Y220450D02*
D03*
Y122450D02*
D03*
D32*
X74930Y676030D02*
D03*
X27940Y566030D02*
D03*
X27860Y276470D02*
D03*
X144780D02*
D03*
X86320Y276080D02*
D03*
D33*
X718820Y614680D02*
D03*
Y640080D02*
D03*
D34*
Y665480D02*
D03*
D35*
X717550Y420370D02*
D03*
Y445770D02*
D03*
D36*
Y471170D02*
D03*
D37*
X150970Y486410D02*
D03*
X552450Y108620D02*
D03*
X382589Y768309D02*
D03*
X315279Y767039D02*
D03*
D38*
X552450Y33620D02*
D03*
D42*
X564564Y422554D02*
X571500Y429490D01*
X501650D02*
X502597D01*
X509533Y422554D01*
X564564D01*
X729670Y288340D02*
Y344750D01*
X717550Y356870D02*
X729670Y344750D01*
X717550Y356870D02*
Y420370D01*
X729670Y288340D02*
X730250Y288920D01*
X27940Y715640D02*
X52760Y740460D01*
X27940Y676030D02*
Y715640D01*
X52760Y740460D02*
X104780Y792480D01*
X144780Y363220D02*
Y386470D01*
X215900Y308610D02*
X236220Y288290D01*
X199390Y308610D02*
X215900D01*
X144780Y363220D02*
X199390Y308610D01*
X144780Y395370D02*
X234550Y485140D01*
X144780Y386470D02*
Y395370D01*
X718820Y640080D02*
X719993D01*
X770890Y589183D01*
Y473598D02*
Y589183D01*
X717550Y420370D02*
X717662D01*
X770890Y473598D01*
X632460Y214430D02*
Y269240D01*
X598170Y288290D02*
X608076Y278384D01*
Y89246D02*
Y278384D01*
X552450Y33620D02*
X608076Y89246D01*
X660400Y161490D02*
X675440Y176530D01*
Y232610D01*
X632460Y214430D02*
X660400Y186490D01*
X655320Y252730D02*
X675440Y232610D01*
X452120Y122450D02*
X497078Y167408D01*
Y297307D01*
X429895Y364490D02*
X497078Y297307D01*
X452220Y57150D02*
X533800Y138730D01*
Y199390D01*
X391252Y122450D02*
X391523D01*
X373383Y140319D02*
X391252Y122450D01*
X372761Y140319D02*
X373383D01*
X361950Y151130D02*
X372761Y140319D01*
X361950Y151130D02*
Y398550D01*
X501650Y538250D01*
X716402Y444622D02*
X717550Y445770D01*
X696082Y444622D02*
X716402D01*
X678180Y426720D02*
X696082Y444622D01*
X596900Y388620D02*
X670858D01*
X678180Y395942D01*
Y426720D01*
X572770Y364490D02*
X596900Y388620D01*
X571500Y538250D02*
X572135Y538885D01*
X634365D01*
X635000Y539520D01*
X674370Y478492D02*
Y547370D01*
X681692Y471170D02*
X717550D01*
X674370Y478492D02*
X681692Y471170D01*
X646430Y575310D02*
X674370Y547370D01*
X551180Y600940D02*
X586464D01*
X612094Y575310D01*
X646430D01*
X331070Y306940D02*
Y429260D01*
X312420Y288290D02*
X331070Y306940D01*
X236220Y448310D02*
X293370Y505460D01*
X236220Y364490D02*
Y448310D01*
X551180Y709700D02*
X618813D01*
X620083Y710970D01*
X621030D01*
X674370Y634702D02*
Y753110D01*
X717385Y616115D02*
X718820Y614680D01*
X692957Y616115D02*
X717385D01*
X674370Y634702D02*
X692957Y616115D01*
X661670Y765810D02*
X674370Y753110D01*
X497840Y765810D02*
X661670D01*
X496979Y764949D02*
X497840Y765810D01*
X496979Y747169D02*
Y764949D01*
X485140Y735330D02*
X496979Y747169D01*
X412430Y735330D02*
X485140D01*
X379410Y768350D02*
X412430Y735330D01*
X379410Y707710D02*
Y768350D01*
Y707710D02*
X396240Y690880D01*
Y494430D02*
Y690880D01*
X331070Y429260D02*
X396240Y494430D01*
X167009Y765769D02*
X295279Y637499D01*
X292100Y637540D02*
X367630D01*
X472440Y764592D02*
Y765810D01*
X217809Y765769D02*
X294009D01*
X295279Y767039D01*
X140339Y792439D02*
X167009Y765769D01*
X104780Y792480D02*
X137160D01*
X419354Y524280D02*
X420024Y523610D01*
X149134Y220450D02*
X294320Y75264D01*
Y53340D02*
Y75264D01*
X299662Y251714D02*
X330926Y220450D01*
X140208Y251714D02*
X299662D01*
X133350Y244856D02*
X140208Y251714D01*
X133350Y167386D02*
Y244856D01*
Y167386D02*
X282702Y18034D01*
X697584D02*
X736700Y57150D01*
X86320Y334930D02*
X144780Y276470D01*
X86320Y334930D02*
Y386080D01*
X535594Y16764D02*
X552450Y33620D01*
X375451Y16764D02*
X535594D01*
X300345Y91869D02*
X375451Y16764D01*
X300345Y91869D02*
Y190434D01*
X270329Y220450D02*
X300345Y190434D01*
X376020Y57150D02*
X394562Y38608D01*
X530352D01*
X583800Y92056D01*
Y199390D01*
X267462Y268732D02*
X287020Y288290D01*
X203200Y268732D02*
X267462D01*
X129032Y342900D02*
X203200Y268732D01*
X129032Y342900D02*
Y443230D01*
X150970Y465168D01*
Y486410D01*
X254762Y138017D02*
X270329Y122450D01*
X254762Y138017D02*
Y236220D01*
X279400D01*
X315386Y200234D01*
Y114128D02*
Y200234D01*
Y114128D02*
X323850Y105664D01*
X365506D01*
X414020Y57150D01*
X419354Y400431D02*
X455295Y364490D01*
X419354Y400431D02*
Y415520D01*
D43*
X27940Y852170D02*
D03*
X780415Y851535D02*
D03*
X27305Y26035D02*
D03*
X781685D02*
D03*
D44*
X729670Y288340D02*
D03*
Y250240D02*
D03*
X52760Y778560D02*
D03*
Y740460D02*
D03*
X194410Y59000D02*
D03*
X156210D02*
D03*
X118210D02*
D03*
X736700Y57150D02*
D03*
X698500D02*
D03*
X660500D02*
D03*
X452220D02*
D03*
X414020D02*
D03*
X376020D02*
D03*
X46410Y495350D02*
D03*
Y457250D02*
D03*
D45*
X217809Y765769D02*
D03*
X192409D02*
D03*
X472440Y765810D02*
D03*
X497840D02*
D03*
D46*
X167009Y765769D02*
D03*
X447040Y765810D02*
D03*
D47*
X480695Y364490D02*
D03*
X455295D02*
D03*
X429895D02*
D03*
X404495D02*
D03*
X480695Y288290D02*
D03*
X455295D02*
D03*
X429895D02*
D03*
X648970Y364490D02*
D03*
X623570D02*
D03*
X598170D02*
D03*
X572770D02*
D03*
X648970Y288290D02*
D03*
X623570D02*
D03*
X598170D02*
D03*
X261620D02*
D03*
X287020D02*
D03*
X312420D02*
D03*
X236220Y364490D02*
D03*
X261620D02*
D03*
X287020D02*
D03*
X312420D02*
D03*
D48*
X404495Y288290D02*
D03*
X572770D02*
D03*
X236220D02*
D03*
D49*
X130970Y486410D02*
D03*
X362589Y768309D02*
D03*
X295279Y767039D02*
D03*
D50*
X293370Y505460D02*
D03*
X306070Y429260D02*
D03*
D51*
X318370Y505460D02*
D03*
X331070Y429260D02*
D03*
D52*
X632460Y269240D02*
D03*
X655320Y252730D02*
D03*
X282702Y18034D02*
D03*
X697584D02*
D03*
M02*
