M48
;Layer_Color=9474304
;FILE_FORMAT=4:4
METRIC,LZ
;TYPE=PLATED
T1F00S00C0.7000
T2F00S00C0.7112
T3F00S00C0.7500
T4F00S00C0.8000
T5F00S00C0.8500
T6F00S00C0.9000
T7F00S00C1.0000
T8F00S00C1.0500
T9F00S00C1.1000
T10F00S00C1.2000
T11F00S00C1.3000
T12F00S00C3.2000
%
T01
X0027432Y0005334
X0029432
X005338Y0019939
X005838
X006604Y0018649
Y0016149
X0023455Y0048514
X0020955
T02
X00282702Y00018034
X00697584
X0065532Y0025273
X0063246Y0026924
T03
X0030607Y0042926
X0033107
X0031837Y0050546
X0029337
T04
X0055245Y0003362
Y0010862
X0015097Y0048641
X0013097
X00295279Y00767039
X00315279
X00362589Y00768309
X00382589
T05
X0045212Y0012245
Y0022045
X00391523
X00330926
X00270329
X00209731
X00149134
X0014478Y0027647
X0008632Y0027608
X00088537Y0022045
X0002794
X0002786Y0027647
Y0038647
X0008632Y0038608
X0014478Y0038647
X00149134Y0012245
X00088537
X0002794
X00209731
X00270329
X00330926
X00391523Y0012245
X0007493Y0056603
X0002794
Y0067603
X0007493
T06
X00404495Y0028829
X00429895
X00455295
X00480695
Y0036449
X00455295
X00429895
X00404495
X0057277
X0059817
X0062357
X0064897
Y0028829
X0062357
X0059817
X0057277
X0031242
X0028702
X0026162
X0023622
Y0036449
X0026162
X0028702
X0031242
T07
X0018221Y0062738
X0025721
X0036763Y0063754
X0044263
T08
X00419354Y0041552
X0050165Y0042949
X005715
X00635Y0043076
Y0053952
X005715Y0053825
X0050165
X00419354Y0052428
X0055118Y0060094
X0062103Y0060221
Y0071097
X0055118Y007097
T09
X00167009Y00765769
X00192409
X00217809
X0044704Y0076581
X0047244
X0049784
T10
X0011821Y00059
X0015621
X0019441
X0037602Y0005715
X0041402
X0045222
X006605
X006985
X007367
X0072967Y0025024
Y0028834
X0071755Y0042037
Y0044577
Y0047117
X0004641Y0045725
Y0049535
X0005276Y0074046
Y0077856
T11
X0071882Y0061468
Y0064008
Y0066548
T12
X00027305Y00026035
X00781685
X0002794Y0085217
X00780415Y00851535
M30
