G04*
G04 #@! TF.GenerationSoftware,Altium Limited,Altium Designer,23.4.1 (23)*
G04*
G04 Layer_Physical_Order=2*
G04 Layer_Color=16711680*
%FSLAX44Y44*%
%MOMM*%
G71*
G04*
G04 #@! TF.SameCoordinates,296E2F05-AFD3-44B7-80E4-9C800FA3EDDF*
G04*
G04*
G04 #@! TF.FilePolarity,Positive*
G04*
G01*
G75*
%ADD16C,1.2000*%
%ADD17R,1.2000X1.2000*%
%ADD18R,1.6000X1.6000*%
%ADD19C,1.6000*%
%ADD20R,1.2000X1.2000*%
%ADD22R,1.5500X1.5500*%
%ADD23C,1.5500*%
%ADD31C,1.3500*%
%ADD32R,1.3500X1.3500*%
%ADD33C,2.0000*%
%ADD34R,2.0000X2.0000*%
%ADD35C,1.8500*%
%ADD36R,1.8500X1.8500*%
%ADD37C,1.3000*%
%ADD38R,1.3000X1.3000*%
%ADD42C,1.2500*%
%ADD43C,3.7000*%
%ADD44C,1.8000*%
%ADD45C,1.7000*%
%ADD46R,1.7000X1.7000*%
%ADD47C,1.5000*%
%ADD48R,1.5000X1.5000*%
%ADD49R,1.3000X1.3000*%
%ADD50C,1.2500*%
%ADD51R,1.2500X1.2500*%
%ADD52C,1.2700*%
G36*
X802640Y28534D02*
X801370Y28409D01*
X800695Y31802D01*
X799205Y35400D01*
X797041Y38638D01*
X794288Y41391D01*
X791050Y43555D01*
X787452Y45045D01*
X783632Y45805D01*
X782320D01*
Y26035D01*
Y6265D01*
X783632D01*
X787452Y7025D01*
X791050Y8515D01*
X794288Y10679D01*
X797041Y13432D01*
X799205Y16670D01*
X800695Y20268D01*
X801370Y23661D01*
X802640Y23536D01*
Y4834D01*
X801467Y4348D01*
X801370Y4445D01*
X6350D01*
Y23535D01*
X7620Y23660D01*
X8295Y20268D01*
X9785Y16670D01*
X11949Y13432D01*
X14702Y10679D01*
X17940Y8515D01*
X21538Y7025D01*
X25358Y6265D01*
X26670D01*
Y26035D01*
Y45805D01*
X25358D01*
X21538Y45045D01*
X17940Y43555D01*
X14702Y41391D01*
X11949Y38638D01*
X9785Y35400D01*
X8295Y31802D01*
X7620Y28410D01*
X6350Y28535D01*
Y229517D01*
X7620Y230044D01*
X20682Y216982D01*
X21522Y215526D01*
X23016Y214032D01*
X24844Y212977D01*
X26884Y212430D01*
X28996D01*
X31036Y212977D01*
X32864Y214032D01*
X34358Y215526D01*
X35413Y217355D01*
X35960Y219394D01*
Y221506D01*
X35413Y223546D01*
X34358Y225375D01*
X32864Y226868D01*
X31409Y227708D01*
X19777Y239340D01*
Y267206D01*
X19840Y268450D01*
X21047Y268450D01*
X27225D01*
Y276470D01*
Y284490D01*
X21423D01*
X20896Y285760D01*
X213007Y477870D01*
X216820D01*
Y483041D01*
X216877Y483177D01*
X217135Y485140D01*
X216877Y487103D01*
X216820Y487239D01*
Y492410D01*
X211649D01*
X211513Y492467D01*
X209550Y492725D01*
X207587Y492467D01*
X207451Y492410D01*
X202280D01*
Y488597D01*
X7620Y293937D01*
X6350Y294463D01*
Y873125D01*
X25441D01*
X25566Y871855D01*
X22173Y871180D01*
X18575Y869690D01*
X15337Y867526D01*
X12584Y864773D01*
X10420Y861535D01*
X8930Y857937D01*
X8170Y854117D01*
Y852805D01*
X47710D01*
Y854117D01*
X46950Y857937D01*
X45460Y861535D01*
X43296Y864773D01*
X40543Y867526D01*
X37305Y869690D01*
X33707Y871180D01*
X30314Y871855D01*
X30439Y873125D01*
X802640D01*
Y28534D01*
D02*
G37*
%LPC*%
G36*
X782362Y871305D02*
X781050D01*
Y852170D01*
X800185D01*
Y853482D01*
X799425Y857302D01*
X797935Y860900D01*
X795771Y864138D01*
X793018Y866891D01*
X789780Y869055D01*
X786182Y870545D01*
X782362Y871305D01*
D02*
G37*
G36*
X779780D02*
X778468D01*
X774648Y870545D01*
X771050Y869055D01*
X767812Y866891D01*
X765059Y864138D01*
X762895Y860900D01*
X761405Y857302D01*
X760645Y853482D01*
Y852170D01*
X779780D01*
Y871305D01*
D02*
G37*
G36*
X47710Y851535D02*
X28575D01*
Y832400D01*
X29887D01*
X33707Y833160D01*
X37305Y834650D01*
X40543Y836814D01*
X43296Y839567D01*
X45460Y842805D01*
X46950Y846403D01*
X47710Y850223D01*
Y851535D01*
D02*
G37*
G36*
X27305D02*
X8170D01*
Y850223D01*
X8930Y846403D01*
X10420Y842805D01*
X12584Y839567D01*
X15337Y836814D01*
X18575Y834650D01*
X22173Y833160D01*
X25993Y832400D01*
X27305D01*
Y851535D01*
D02*
G37*
G36*
X800185Y850900D02*
X781050D01*
Y831765D01*
X782362D01*
X786182Y832525D01*
X789780Y834015D01*
X793018Y836179D01*
X795771Y838932D01*
X797935Y842170D01*
X799425Y845768D01*
X800185Y849588D01*
Y850900D01*
D02*
G37*
G36*
X779780D02*
X760645D01*
Y849588D01*
X761405Y845768D01*
X762895Y842170D01*
X765059Y838932D01*
X767812Y836179D01*
X771050Y834015D01*
X774648Y832525D01*
X778468Y831765D01*
X779780D01*
Y850900D01*
D02*
G37*
G36*
X370359Y776079D02*
X363224D01*
Y768944D01*
X370359D01*
Y776079D01*
D02*
G37*
G36*
X361954D02*
X354819D01*
Y768944D01*
X361954D01*
Y776079D01*
D02*
G37*
G36*
X316302Y774809D02*
X315914D01*
Y767674D01*
X323049D01*
Y768062D01*
X322519Y770038D01*
X321497Y771810D01*
X320050Y773257D01*
X318278Y774280D01*
X316302Y774809D01*
D02*
G37*
G36*
X314644D02*
X314256D01*
X312280Y774280D01*
X310508Y773257D01*
X309061Y771810D01*
X308038Y770038D01*
X307509Y768062D01*
Y767674D01*
X314644D01*
Y774809D01*
D02*
G37*
G36*
X446405Y775580D02*
X437270D01*
Y766445D01*
X446405D01*
Y775580D01*
D02*
G37*
G36*
X193695Y775539D02*
X193044D01*
Y766404D01*
X202179D01*
Y767056D01*
X201513Y769540D01*
X200227Y771768D01*
X198408Y773587D01*
X196180Y774873D01*
X193695Y775539D01*
D02*
G37*
G36*
X191774D02*
X191123D01*
X188638Y774873D01*
X186410Y773587D01*
X184591Y771768D01*
X183305Y769540D01*
X182639Y767056D01*
Y766404D01*
X191774D01*
Y775539D01*
D02*
G37*
G36*
X383612Y776079D02*
X381566D01*
X379590Y775550D01*
X377818Y774527D01*
X376371Y773080D01*
X375348Y771308D01*
X374819Y769332D01*
Y767286D01*
X375348Y765310D01*
X376371Y763538D01*
X377818Y762092D01*
X379590Y761069D01*
X381566Y760539D01*
X383612D01*
X385588Y761069D01*
X387360Y762092D01*
X388806Y763538D01*
X389829Y765310D01*
X390359Y767286D01*
Y769332D01*
X389829Y771308D01*
X388806Y773080D01*
X387360Y774527D01*
X385588Y775550D01*
X383612Y776079D01*
D02*
G37*
G36*
X370359Y767674D02*
X363224D01*
Y760539D01*
X370359D01*
Y767674D01*
D02*
G37*
G36*
X361954D02*
X354819D01*
Y760539D01*
X361954D01*
Y767674D01*
D02*
G37*
G36*
X323049Y766404D02*
X315914D01*
Y759269D01*
X316302D01*
X318278Y759799D01*
X320050Y760822D01*
X321497Y762268D01*
X322519Y764040D01*
X323049Y766016D01*
Y766404D01*
D02*
G37*
G36*
X314644D02*
X307509D01*
Y766016D01*
X308038Y764040D01*
X309061Y762268D01*
X310508Y760822D01*
X312280Y759799D01*
X314256Y759269D01*
X314644D01*
Y766404D01*
D02*
G37*
G36*
X499126Y775580D02*
X496554D01*
X494069Y774914D01*
X491841Y773628D01*
X490022Y771809D01*
X488736Y769581D01*
X488070Y767096D01*
Y764524D01*
X488736Y762039D01*
X490022Y759811D01*
X491841Y757992D01*
X494069Y756706D01*
X496554Y756040D01*
X499126D01*
X501611Y756706D01*
X503839Y757992D01*
X505658Y759811D01*
X506944Y762039D01*
X507610Y764524D01*
Y767096D01*
X506944Y769581D01*
X505658Y771809D01*
X503839Y773628D01*
X501611Y774914D01*
X499126Y775580D01*
D02*
G37*
G36*
X180457Y821754D02*
X180457Y821754D01*
X80649D01*
X80192Y821565D01*
X79726Y821398D01*
X43278Y788378D01*
X43262Y788345D01*
X43229Y788331D01*
X43039Y787874D01*
X42828Y787427D01*
X42840Y787393D01*
X42826Y787359D01*
Y781167D01*
X42490Y779912D01*
Y777208D01*
X42826Y775952D01*
Y774210D01*
X43229Y773238D01*
X67345Y749121D01*
Y684050D01*
X66910D01*
Y668010D01*
X82950D01*
Y668445D01*
X130418D01*
X173190Y625673D01*
Y618360D01*
X191230D01*
Y636400D01*
X189795D01*
Y659800D01*
X189795Y659800D01*
X189536Y661763D01*
X188779Y663593D01*
X187573Y665163D01*
X184894Y667843D01*
Y726921D01*
X184491Y727893D01*
X184491Y727893D01*
X157655Y754729D01*
X158181Y755999D01*
X176779D01*
Y775539D01*
X157239D01*
Y756941D01*
X155969Y756415D01*
X142984Y769401D01*
Y780962D01*
X168507Y806485D01*
X425069D01*
X454801Y776753D01*
X454315Y775580D01*
X447675D01*
Y766445D01*
X456810D01*
Y770499D01*
X458080Y770930D01*
X458967Y769774D01*
X462670Y766071D01*
Y764524D01*
X463336Y762039D01*
X464622Y759811D01*
X466441Y757992D01*
X468669Y756706D01*
X471154Y756040D01*
X473726D01*
X476211Y756706D01*
X478439Y757992D01*
X480258Y759811D01*
X481544Y762039D01*
X482210Y764524D01*
Y767096D01*
X481544Y769581D01*
X480258Y771809D01*
X478439Y773628D01*
X476211Y774914D01*
X474939Y775255D01*
X471865Y778329D01*
X471656Y779914D01*
X470899Y781743D01*
X469693Y783314D01*
X433574Y819433D01*
X432003Y820639D01*
X430174Y821396D01*
X428211Y821655D01*
X180696D01*
X180457Y821754D01*
D02*
G37*
G36*
X456810Y765175D02*
X447675D01*
Y756040D01*
X456810D01*
Y765175D01*
D02*
G37*
G36*
X446405D02*
X437270D01*
Y756040D01*
X446405D01*
Y765175D01*
D02*
G37*
G36*
X219095Y775539D02*
X216523D01*
X214038Y774873D01*
X211810Y773587D01*
X209991Y771768D01*
X208705Y769540D01*
X208039Y767056D01*
Y764483D01*
X208705Y761998D01*
X209991Y759770D01*
X211810Y757951D01*
X214038Y756665D01*
X216523Y755999D01*
X219095D01*
X221580Y756665D01*
X223808Y757951D01*
X225627Y759770D01*
X226913Y761998D01*
X227579Y764483D01*
Y767056D01*
X226913Y769540D01*
X225627Y771768D01*
X223808Y773587D01*
X221580Y774873D01*
X219095Y775539D01*
D02*
G37*
G36*
X202179Y765134D02*
X193044D01*
Y755999D01*
X193695D01*
X196180Y756665D01*
X198408Y757951D01*
X200227Y759770D01*
X201513Y761998D01*
X202179Y764483D01*
Y765134D01*
D02*
G37*
G36*
X191774D02*
X182639D01*
Y764483D01*
X183305Y761998D01*
X184591Y759770D01*
X186410Y757951D01*
X188638Y756665D01*
X191123Y755999D01*
X191774D01*
Y765134D01*
D02*
G37*
G36*
X54112Y750730D02*
X51408D01*
X48796Y750030D01*
X46454Y748678D01*
X44542Y746766D01*
X43190Y744424D01*
X42490Y741812D01*
Y739108D01*
X43190Y736496D01*
X44542Y734154D01*
X46454Y732242D01*
X48796Y730890D01*
X51408Y730190D01*
X54112D01*
X56724Y730890D01*
X59066Y732242D01*
X60978Y734154D01*
X62330Y736496D01*
X63030Y739108D01*
Y741812D01*
X62330Y744424D01*
X60978Y746766D01*
X59066Y748678D01*
X56724Y750030D01*
X54112Y750730D01*
D02*
G37*
G36*
X622250Y720240D02*
X619810D01*
X617452Y719608D01*
X615338Y718388D01*
X613612Y716662D01*
X612392Y714548D01*
X611760Y712190D01*
Y709750D01*
X612392Y707392D01*
X613612Y705278D01*
X615338Y703552D01*
X617452Y702332D01*
X619810Y701700D01*
X622250D01*
X624608Y702332D01*
X626722Y703552D01*
X628448Y705278D01*
X629668Y707392D01*
X630300Y709750D01*
Y712190D01*
X629668Y714548D01*
X628448Y716662D01*
X626722Y718388D01*
X624608Y719608D01*
X622250Y720240D01*
D02*
G37*
G36*
X560450Y718970D02*
X541910D01*
Y700430D01*
X560450D01*
Y718970D01*
D02*
G37*
G36*
X28996Y684050D02*
X26884D01*
X24844Y683504D01*
X23016Y682448D01*
X21522Y680955D01*
X20466Y679126D01*
X19920Y677086D01*
Y674974D01*
X20466Y672934D01*
X21522Y671106D01*
X23016Y669613D01*
X24844Y668557D01*
X26884Y668010D01*
X28996D01*
X31036Y668557D01*
X32864Y669613D01*
X34358Y671106D01*
X35413Y672934D01*
X35960Y674974D01*
Y677086D01*
X35413Y679126D01*
X34358Y680955D01*
X32864Y682448D01*
X31036Y683504D01*
X28996Y684050D01*
D02*
G37*
G36*
X730090Y676750D02*
X707550D01*
Y673065D01*
X673100D01*
X671137Y672806D01*
X669308Y672049D01*
X667737Y670843D01*
X651227Y654333D01*
X650021Y652762D01*
X649264Y650933D01*
X649005Y648970D01*
Y581964D01*
X646126Y579085D01*
X534900D01*
X532937Y578826D01*
X531108Y578069D01*
X529537Y576863D01*
X500193Y547520D01*
X492380D01*
Y528980D01*
X510920D01*
Y536793D01*
X538042Y563915D01*
X649268D01*
X651231Y564174D01*
X653060Y564931D01*
X654631Y566137D01*
X661953Y573459D01*
X663159Y575030D01*
X663916Y576859D01*
X664175Y578822D01*
Y645828D01*
X676242Y657895D01*
X707550D01*
Y654210D01*
X730090D01*
Y676750D01*
D02*
G37*
G36*
X451650Y646560D02*
X443265D01*
Y638175D01*
X451650D01*
Y646560D01*
D02*
G37*
G36*
X441995D02*
X433610D01*
Y638175D01*
X441995D01*
Y646560D01*
D02*
G37*
G36*
X720304Y651350D02*
X717336D01*
X714470Y650582D01*
X711900Y649098D01*
X709802Y647000D01*
X708318Y644430D01*
X707550Y641564D01*
Y638596D01*
X708318Y635730D01*
X709802Y633160D01*
X711900Y631062D01*
X714470Y629578D01*
X717336Y628810D01*
X720304D01*
X723170Y629578D01*
X725740Y631062D01*
X727838Y633160D01*
X729322Y635730D01*
X730090Y638596D01*
Y641564D01*
X729322Y644430D01*
X727838Y647000D01*
X725740Y649098D01*
X723170Y650582D01*
X720304Y651350D01*
D02*
G37*
G36*
X451650Y636905D02*
X443265D01*
Y628520D01*
X451650D01*
Y636905D01*
D02*
G37*
G36*
X441995D02*
X433610D01*
Y628520D01*
X441995D01*
Y636905D01*
D02*
G37*
G36*
X368817Y646560D02*
X366442D01*
X364148Y645945D01*
X362092Y644758D01*
X360412Y643078D01*
X359225Y641022D01*
X358610Y638727D01*
Y636353D01*
X359225Y634058D01*
X360412Y632002D01*
X362092Y630322D01*
X364148Y629135D01*
X366442Y628520D01*
X368817D01*
X371111Y629135D01*
X373168Y630322D01*
X374848Y632002D01*
X376035Y634058D01*
X376650Y636353D01*
Y638727D01*
X376035Y641022D01*
X374848Y643078D01*
X373168Y644758D01*
X371111Y645945D01*
X368817Y646560D01*
D02*
G37*
G36*
X258398Y636400D02*
X257845D01*
Y628015D01*
X266230D01*
Y628568D01*
X265615Y630862D01*
X264428Y632918D01*
X262748Y634598D01*
X260692Y635785D01*
X258398Y636400D01*
D02*
G37*
G36*
X256575D02*
X256023D01*
X253729Y635785D01*
X251672Y634598D01*
X249992Y632918D01*
X248805Y630862D01*
X248190Y628568D01*
Y628015D01*
X256575D01*
Y636400D01*
D02*
G37*
G36*
X266230Y626745D02*
X257845D01*
Y618360D01*
X258398D01*
X260692Y618975D01*
X262748Y620162D01*
X264428Y621842D01*
X265615Y623898D01*
X266230Y626193D01*
Y626745D01*
D02*
G37*
G36*
X256575D02*
X248190D01*
Y626193D01*
X248805Y623898D01*
X249992Y621842D01*
X251672Y620162D01*
X253729Y618975D01*
X256023Y618360D01*
X256575D01*
Y626745D01*
D02*
G37*
G36*
X720304Y625950D02*
X717336D01*
X714470Y625182D01*
X711900Y623698D01*
X709802Y621600D01*
X708318Y619030D01*
X707550Y616164D01*
Y613196D01*
X708318Y610330D01*
X709802Y607760D01*
X711900Y605662D01*
X714470Y604178D01*
X717336Y603410D01*
X720304D01*
X723170Y604178D01*
X725740Y605662D01*
X727838Y607760D01*
X729322Y610330D01*
X730090Y613196D01*
Y616164D01*
X729322Y619030D01*
X727838Y621600D01*
X725740Y623698D01*
X723170Y625182D01*
X720304Y625950D01*
D02*
G37*
G36*
X605510Y625315D02*
X512804D01*
X510841Y625057D01*
X509012Y624299D01*
X507441Y623093D01*
X417811Y533463D01*
X415776Y532918D01*
X413662Y531698D01*
X411936Y529972D01*
X410716Y527858D01*
X410084Y525500D01*
Y523060D01*
X410716Y520702D01*
X411936Y518588D01*
X413662Y516862D01*
X415776Y515642D01*
X418134Y515010D01*
X420574D01*
X422932Y515642D01*
X425046Y516862D01*
X426772Y518588D01*
X427992Y520702D01*
X428537Y522737D01*
X515946Y610145D01*
X544935D01*
X545494Y608875D01*
X545174Y608525D01*
X523216D01*
X523216Y608525D01*
X521253Y608267D01*
X519424Y607509D01*
X517853Y606303D01*
X517853Y606303D01*
X381668Y470119D01*
X280162D01*
X280162Y470119D01*
X278199Y469860D01*
X276370Y469103D01*
X274799Y467897D01*
X274799Y467897D01*
X118335Y311433D01*
X118141Y311181D01*
X117906Y310968D01*
X117541Y310399D01*
X117129Y309862D01*
X117008Y309569D01*
X116836Y309302D01*
X116630Y308658D01*
X116371Y308033D01*
X116330Y307718D01*
X116233Y307416D01*
X116201Y306740D01*
X116113Y306070D01*
X116155Y305755D01*
X116139Y305438D01*
X121981Y235588D01*
X122125Y234927D01*
X122213Y234257D01*
X122335Y233963D01*
X122403Y233653D01*
X122712Y233052D01*
X122971Y232428D01*
X123165Y232176D01*
X123310Y231893D01*
X123765Y231393D01*
X124177Y230857D01*
X124429Y230663D01*
X124642Y230428D01*
X125211Y230063D01*
X125748Y229651D01*
X126041Y229530D01*
X126308Y229358D01*
X126474Y229305D01*
X126276Y228035D01*
X91217D01*
X89593Y228470D01*
X87481D01*
X85442Y227924D01*
X83613Y226868D01*
X82120Y225375D01*
X81064Y223546D01*
X80517Y221506D01*
Y219394D01*
X81064Y217355D01*
X82120Y215526D01*
X83613Y214032D01*
X85442Y212977D01*
X87481Y212430D01*
X89593D01*
X91217Y212865D01*
X146454D01*
X148078Y212430D01*
X150190D01*
X152230Y212977D01*
X154059Y214032D01*
X155552Y215526D01*
X156608Y217355D01*
X157154Y219394D01*
Y221506D01*
X156608Y223546D01*
X155552Y225375D01*
X154059Y226868D01*
X153197Y227365D01*
X153537Y228635D01*
X205328D01*
X205668Y227365D01*
X204807Y226868D01*
X203314Y225375D01*
X202258Y223546D01*
X201711Y221506D01*
Y219394D01*
X202258Y217355D01*
X203314Y215526D01*
X204807Y214032D01*
X206263Y213192D01*
X234949Y184506D01*
X236520Y183301D01*
X238349Y182543D01*
X240312Y182285D01*
X240312Y182285D01*
X524279D01*
X526242Y182543D01*
X528072Y183301D01*
X529643Y184506D01*
X539163Y194027D01*
X540368Y195598D01*
X541126Y197427D01*
X541385Y199390D01*
X541126Y201353D01*
X540368Y203182D01*
X539163Y204753D01*
X537592Y205959D01*
X535763Y206716D01*
X533800Y206975D01*
X531837Y206716D01*
X530007Y205959D01*
X528437Y204753D01*
X521138Y197454D01*
X441303D01*
X440872Y198724D01*
X441943Y199547D01*
X455588Y213192D01*
X457044Y214032D01*
X458538Y215526D01*
X459594Y217355D01*
X460140Y219394D01*
Y221506D01*
X459594Y223546D01*
X458538Y225375D01*
X457044Y226868D01*
X455216Y227924D01*
X453176Y228470D01*
X451064D01*
X449024Y227924D01*
X447196Y226868D01*
X445702Y225375D01*
X444862Y223919D01*
X433438Y212495D01*
X396324D01*
X395983Y213765D01*
X396447Y214032D01*
X397940Y215526D01*
X398996Y217355D01*
X399543Y219394D01*
Y221506D01*
X399108Y223130D01*
Y254000D01*
X399108Y254000D01*
X398849Y255963D01*
X398091Y257792D01*
X396886Y259363D01*
X395697Y260553D01*
Y278262D01*
X395725Y279520D01*
X396967Y279520D01*
X413265D01*
Y297060D01*
X395725Y297060D01*
X395697Y298318D01*
Y301404D01*
X396334Y302041D01*
X456217D01*
X472219Y286040D01*
X472523Y284905D01*
X473677Y282905D01*
X475310Y281272D01*
X477310Y280118D01*
X479540Y279520D01*
X481850D01*
X484080Y280118D01*
X486080Y281272D01*
X487713Y282905D01*
X488867Y284905D01*
X489171Y286040D01*
X500347Y297215D01*
X562794D01*
X564000Y297060D01*
X564000Y295945D01*
Y279520D01*
X570813D01*
X586457Y263877D01*
X588028Y262671D01*
X589857Y261914D01*
X591820Y261655D01*
X631326D01*
X631457Y261620D01*
X633463D01*
X635401Y262139D01*
X637139Y263143D01*
X638558Y264561D01*
X639561Y266299D01*
X640080Y268237D01*
Y270243D01*
X639561Y272181D01*
X638558Y273919D01*
X637139Y275338D01*
X635401Y276341D01*
X633463Y276860D01*
X631457D01*
X631326Y276825D01*
X594962D01*
X581540Y290247D01*
X581540Y297060D01*
X582746Y297215D01*
X593549D01*
X593889Y295945D01*
X592785Y295308D01*
X591152Y293675D01*
X589998Y291675D01*
X589400Y289445D01*
Y287135D01*
X589998Y284905D01*
X591152Y282905D01*
X592785Y281272D01*
X594785Y280118D01*
X597015Y279520D01*
X599325D01*
X601555Y280118D01*
X603555Y281272D01*
X605188Y282905D01*
X606342Y284905D01*
X606940Y287135D01*
Y289445D01*
X606342Y291675D01*
X605188Y293675D01*
X603555Y295308D01*
X602451Y295945D01*
X602791Y297215D01*
X618949D01*
X619289Y295945D01*
X618185Y295308D01*
X616552Y293675D01*
X615398Y291675D01*
X614800Y289445D01*
Y288925D01*
X623570D01*
X632340D01*
Y289445D01*
X631742Y291675D01*
X630588Y293675D01*
X628955Y295308D01*
X628120Y295790D01*
X628481Y297046D01*
X629383Y297150D01*
X640494Y286040D01*
X640798Y284905D01*
X641952Y282905D01*
X643585Y281272D01*
X645585Y280118D01*
X647815Y279520D01*
X650125D01*
X652355Y280118D01*
X654355Y281272D01*
X655988Y282905D01*
X657142Y284905D01*
X657740Y287135D01*
Y289445D01*
X657142Y291675D01*
X655988Y293675D01*
X654355Y295308D01*
X652355Y296462D01*
X651220Y296766D01*
X637823Y310163D01*
X636252Y311369D01*
X634423Y312127D01*
X632460Y312385D01*
X497205D01*
X495242Y312127D01*
X493413Y311369D01*
X491842Y310163D01*
X480695Y299017D01*
X464722Y314989D01*
X463151Y316195D01*
X461322Y316952D01*
X459359Y317211D01*
X393192D01*
X391229Y316952D01*
X389400Y316195D01*
X387829Y314989D01*
X382749Y309909D01*
X381543Y308338D01*
X380785Y306509D01*
X380527Y304546D01*
Y257411D01*
X380785Y255448D01*
X381543Y253618D01*
X382749Y252047D01*
X383938Y250858D01*
Y240421D01*
X382765Y239935D01*
X329046Y293653D01*
X327475Y294859D01*
X325646Y295616D01*
X323683Y295875D01*
X316822D01*
X315805Y296462D01*
X313575Y297060D01*
X311265D01*
X309035Y296462D01*
X307035Y295308D01*
X305402Y293675D01*
X304248Y291675D01*
X303650Y289445D01*
Y287135D01*
X304248Y284905D01*
X305402Y282905D01*
X307035Y281272D01*
X309035Y280118D01*
X311265Y279520D01*
X313575D01*
X315805Y280118D01*
X316822Y280705D01*
X320541D01*
X357194Y244052D01*
X356475Y242975D01*
X355096Y243547D01*
X353133Y243805D01*
X136517D01*
X131550Y303195D01*
X283304Y454949D01*
X384810D01*
X386773Y455207D01*
X388602Y455965D01*
X390173Y457171D01*
X526358Y593355D01*
X545777D01*
X547602Y592302D01*
X549960Y591670D01*
X552400D01*
X554758Y592302D01*
X556872Y593522D01*
X558598Y595248D01*
X559818Y597362D01*
X560450Y599720D01*
Y602160D01*
X559818Y604518D01*
X558598Y606632D01*
X556872Y608358D01*
X555976Y608875D01*
X556316Y610145D01*
X602368D01*
X611760Y600753D01*
Y592940D01*
X630300D01*
Y611480D01*
X622487D01*
X610873Y623093D01*
X609302Y624299D01*
X607473Y625057D01*
X605510Y625315D01*
D02*
G37*
G36*
X35960Y574050D02*
X28575D01*
Y566665D01*
X35960D01*
Y574050D01*
D02*
G37*
G36*
X75986D02*
X75565D01*
Y566665D01*
X82950D01*
Y567086D01*
X82403Y569126D01*
X81348Y570954D01*
X79854Y572448D01*
X78026Y573503D01*
X75986Y574050D01*
D02*
G37*
G36*
X74295D02*
X73874D01*
X71834Y573503D01*
X70006Y572448D01*
X68512Y570954D01*
X67456Y569126D01*
X66910Y567086D01*
Y566665D01*
X74295D01*
Y574050D01*
D02*
G37*
G36*
X27305D02*
X19920D01*
Y566665D01*
X27305D01*
Y574050D01*
D02*
G37*
G36*
X82950Y565395D02*
X75565D01*
Y558010D01*
X75986D01*
X78026Y558556D01*
X79854Y559612D01*
X81348Y561105D01*
X82403Y562934D01*
X82950Y564974D01*
Y565395D01*
D02*
G37*
G36*
X74295D02*
X66910D01*
Y564974D01*
X67456Y562934D01*
X68512Y561105D01*
X70006Y559612D01*
X71834Y558556D01*
X73874Y558010D01*
X74295D01*
Y565395D01*
D02*
G37*
G36*
X35960D02*
X28575D01*
Y558010D01*
X35960D01*
Y565395D01*
D02*
G37*
G36*
X27305D02*
X19920D01*
Y558010D01*
X27305D01*
Y565395D01*
D02*
G37*
G36*
X644270Y548790D02*
X625730D01*
Y530250D01*
X644270D01*
Y548790D01*
D02*
G37*
G36*
X572720Y547520D02*
X570280D01*
X567922Y546888D01*
X565808Y545668D01*
X564082Y543942D01*
X562862Y541828D01*
X562230Y539470D01*
Y537029D01*
X562862Y534672D01*
X564082Y532558D01*
X565808Y530832D01*
X567922Y529612D01*
X570280Y528980D01*
X572720D01*
X575078Y529612D01*
X577192Y530832D01*
X578918Y532558D01*
X580138Y534672D01*
X580770Y537029D01*
Y539470D01*
X580138Y541828D01*
X578918Y543942D01*
X577192Y545668D01*
X575078Y546888D01*
X572720Y547520D01*
D02*
G37*
G36*
X325890Y512980D02*
X319005D01*
Y506095D01*
X325890D01*
Y512980D01*
D02*
G37*
G36*
X317735D02*
X310850D01*
Y506095D01*
X317735D01*
Y512980D01*
D02*
G37*
G36*
X325890Y504825D02*
X319005D01*
Y497940D01*
X325890D01*
Y504825D01*
D02*
G37*
G36*
X317735D02*
X310850D01*
Y497940D01*
X317735D01*
Y504825D01*
D02*
G37*
G36*
X303049Y774809D02*
X287509D01*
Y759269D01*
X287694D01*
Y512828D01*
X286737Y512093D01*
X285531Y510522D01*
X284774Y508693D01*
X284515Y506730D01*
X284774Y504767D01*
X285531Y502938D01*
X286737Y501367D01*
X288007Y500097D01*
X288401Y499794D01*
X288753Y499442D01*
X289183Y499194D01*
X289578Y498891D01*
X290037Y498701D01*
X290467Y498452D01*
X290947Y498324D01*
X291407Y498134D01*
X291900Y498069D01*
X292380Y497940D01*
X292877D01*
X293370Y497875D01*
X293863Y497940D01*
X294360D01*
X294840Y498069D01*
X295333Y498134D01*
X295793Y498324D01*
X296273Y498452D01*
X296703Y498701D01*
X297162Y498891D01*
X297557Y499194D01*
X297987Y499442D01*
X298339Y499794D01*
X298404Y499844D01*
X299071Y500121D01*
X300642Y501326D01*
X301848Y502897D01*
X302605Y504726D01*
X302864Y506689D01*
Y759269D01*
X303049D01*
Y774809D01*
D02*
G37*
G36*
X47762Y505620D02*
X47045D01*
Y495985D01*
X56680D01*
Y496702D01*
X55980Y499314D01*
X54628Y501656D01*
X52716Y503568D01*
X50374Y504920D01*
X47762Y505620D01*
D02*
G37*
G36*
X45775D02*
X45058D01*
X42446Y504920D01*
X40104Y503568D01*
X38192Y501656D01*
X36840Y499314D01*
X36140Y496702D01*
Y495985D01*
X45775D01*
Y505620D01*
D02*
G37*
G36*
X56680Y494715D02*
X47045D01*
Y485080D01*
X47762D01*
X50374Y485780D01*
X52716Y487132D01*
X54628Y489044D01*
X55980Y491386D01*
X56680Y493998D01*
Y494715D01*
D02*
G37*
G36*
X45775D02*
X36140D01*
Y493998D01*
X36840Y491386D01*
X38192Y489044D01*
X40104Y487132D01*
X42446Y485780D01*
X45058Y485080D01*
X45775D01*
Y494715D01*
D02*
G37*
G36*
X235507Y492410D02*
X233593D01*
X231744Y491915D01*
X230086Y490957D01*
X228733Y489604D01*
X227776Y487946D01*
X227280Y486097D01*
Y484183D01*
X227776Y482334D01*
X228733Y480676D01*
X230086Y479323D01*
X231744Y478365D01*
X233593Y477870D01*
X235507D01*
X237356Y478365D01*
X239014Y479323D01*
X240368Y480676D01*
X241325Y482334D01*
X241820Y484183D01*
Y486097D01*
X241325Y487946D01*
X240368Y489604D01*
X239014Y490957D01*
X237356Y491915D01*
X235507Y492410D01*
D02*
G37*
G36*
X138740Y494180D02*
X123200D01*
Y489367D01*
X98668Y464835D01*
X53349D01*
X52716Y465468D01*
X50374Y466820D01*
X47762Y467520D01*
X45058D01*
X42446Y466820D01*
X40104Y465468D01*
X38192Y463556D01*
X36840Y461214D01*
X36140Y458602D01*
Y455898D01*
X36840Y453286D01*
X38192Y450944D01*
X40104Y449032D01*
X42446Y447680D01*
X45058Y446980D01*
X47762D01*
X50374Y447680D01*
X52716Y449032D01*
X53349Y449665D01*
X101810D01*
X103773Y449923D01*
X105602Y450681D01*
X107173Y451886D01*
X133927Y478640D01*
X138740D01*
Y494180D01*
D02*
G37*
G36*
X728070Y481690D02*
X707030D01*
Y460650D01*
X728070D01*
Y481690D01*
D02*
G37*
G36*
X718935Y456290D02*
X716165D01*
X713489Y455573D01*
X711091Y454188D01*
X709132Y452229D01*
X707747Y449831D01*
X707030Y447155D01*
Y444385D01*
X707747Y441709D01*
X709132Y439311D01*
X711091Y437352D01*
X713489Y435967D01*
X716165Y435250D01*
X718935D01*
X721611Y435967D01*
X724009Y437352D01*
X725968Y439311D01*
X727353Y441709D01*
X728070Y444385D01*
Y447155D01*
X727353Y449831D01*
X725968Y452229D01*
X724009Y454188D01*
X721611Y455573D01*
X718935Y456290D01*
D02*
G37*
G36*
X307060Y436780D02*
X306705D01*
Y429895D01*
X313590D01*
Y430250D01*
X313078Y432163D01*
X312087Y433877D01*
X310687Y435277D01*
X308973Y436268D01*
X307060Y436780D01*
D02*
G37*
G36*
X305435D02*
X305080D01*
X303167Y436268D01*
X301453Y435277D01*
X300053Y433877D01*
X299062Y432163D01*
X298550Y430250D01*
Y429895D01*
X305435D01*
Y436780D01*
D02*
G37*
G36*
X338590D02*
X323550D01*
Y421740D01*
X338590D01*
Y436780D01*
D02*
G37*
G36*
X313590Y428625D02*
X306705D01*
Y421740D01*
X307060D01*
X308973Y422253D01*
X310687Y423242D01*
X312087Y424643D01*
X313078Y426357D01*
X313590Y428270D01*
Y428625D01*
D02*
G37*
G36*
X305435D02*
X298550D01*
Y428270D01*
X299062Y426357D01*
X300053Y424643D01*
X301453Y423242D01*
X303167Y422253D01*
X305080Y421740D01*
X305435D01*
Y428625D01*
D02*
G37*
G36*
X580770Y438760D02*
X562230D01*
Y420220D01*
X580770D01*
Y438760D01*
D02*
G37*
G36*
X502870D02*
X500430D01*
X498072Y438128D01*
X495958Y436908D01*
X494232Y435182D01*
X493012Y433068D01*
X492380Y430710D01*
Y428270D01*
X493012Y425912D01*
X494232Y423798D01*
X495958Y422072D01*
X498072Y420852D01*
X500430Y420220D01*
X502870D01*
X505228Y420852D01*
X507342Y422072D01*
X509068Y423798D01*
X510288Y425912D01*
X510920Y428270D01*
Y430710D01*
X510288Y433068D01*
X509068Y435182D01*
X507342Y436908D01*
X505228Y438128D01*
X502870Y438760D01*
D02*
G37*
G36*
X636220Y440030D02*
X633780D01*
X631422Y439398D01*
X629308Y438178D01*
X627582Y436452D01*
X626362Y434338D01*
X625816Y432303D01*
X608768Y415255D01*
X474312D01*
X468683Y420883D01*
X467112Y422089D01*
X465283Y422847D01*
X463320Y423105D01*
X428624D01*
Y424790D01*
X410084D01*
Y406250D01*
X428624D01*
Y407935D01*
X460178D01*
X465807Y402307D01*
X467378Y401101D01*
X469207Y400344D01*
X471170Y400085D01*
X611910D01*
X613873Y400344D01*
X615702Y401101D01*
X617273Y402307D01*
X636543Y421577D01*
X638578Y422122D01*
X640692Y423342D01*
X642418Y425068D01*
X643638Y427182D01*
X644270Y429540D01*
Y431981D01*
X643638Y434338D01*
X642418Y436452D01*
X640692Y438178D01*
X638578Y439398D01*
X636220Y440030D01*
D02*
G37*
G36*
X718935Y430890D02*
X716165D01*
X713489Y430173D01*
X711091Y428788D01*
X709132Y426829D01*
X707747Y424431D01*
X707030Y421755D01*
Y418985D01*
X707747Y416309D01*
X709132Y413911D01*
X711091Y411952D01*
X713489Y410567D01*
X716165Y409850D01*
X718935D01*
X721611Y410567D01*
X724009Y411952D01*
X725968Y413911D01*
X727353Y416309D01*
X728070Y418985D01*
Y421755D01*
X727353Y424431D01*
X725968Y426829D01*
X724009Y428788D01*
X721611Y430173D01*
X718935Y430890D01*
D02*
G37*
G36*
X151993Y494180D02*
X149947D01*
X147971Y493651D01*
X146199Y492627D01*
X144752Y491181D01*
X143729Y489409D01*
X143200Y487433D01*
Y485387D01*
X143385Y484696D01*
Y478724D01*
X58716Y394055D01*
X30540D01*
X28916Y394490D01*
X26804D01*
X24764Y393944D01*
X22935Y392888D01*
X21442Y391395D01*
X20386Y389566D01*
X19840Y387526D01*
Y385414D01*
X20386Y383374D01*
X21442Y381546D01*
X22935Y380052D01*
X24764Y378997D01*
X26804Y378450D01*
X28916D01*
X30540Y378885D01*
X61858D01*
X63821Y379144D01*
X65651Y379901D01*
X67221Y381107D01*
X156333Y470219D01*
X157539Y471790D01*
X158296Y473619D01*
X158555Y475582D01*
Y484696D01*
X158740Y485387D01*
Y487433D01*
X158210Y489409D01*
X157188Y491181D01*
X155741Y492627D01*
X153969Y493651D01*
X151993Y494180D01*
D02*
G37*
G36*
X145836Y394490D02*
X143724D01*
X141684Y393944D01*
X139856Y392888D01*
X138362Y391395D01*
X137306Y389566D01*
X136760Y387526D01*
Y385414D01*
X137306Y383374D01*
X138362Y381546D01*
X139856Y380052D01*
X141684Y378997D01*
X143724Y378450D01*
X145836D01*
X147876Y378997D01*
X149704Y380052D01*
X151198Y381546D01*
X152254Y383374D01*
X152800Y385414D01*
Y387526D01*
X152254Y389566D01*
X151198Y391395D01*
X149704Y392888D01*
X147876Y393944D01*
X145836Y394490D01*
D02*
G37*
G36*
X87376Y394100D02*
X85264D01*
X83224Y393554D01*
X81396Y392498D01*
X79902Y391004D01*
X78846Y389176D01*
X78300Y387136D01*
Y385024D01*
X78846Y382984D01*
X79902Y381156D01*
X81396Y379662D01*
X83224Y378606D01*
X85264Y378060D01*
X87376D01*
X89416Y378606D01*
X91244Y379662D01*
X92738Y381156D01*
X93793Y382984D01*
X94340Y385024D01*
Y387136D01*
X93793Y389176D01*
X92738Y391004D01*
X91244Y392498D01*
X89416Y393554D01*
X87376Y394100D01*
D02*
G37*
G36*
X650125Y373260D02*
X647815D01*
X645585Y372662D01*
X643585Y371508D01*
X641952Y369875D01*
X640798Y367875D01*
X640200Y365645D01*
Y363335D01*
X640798Y361105D01*
X641952Y359105D01*
X643585Y357472D01*
X645585Y356318D01*
X647815Y355720D01*
X650125D01*
X652355Y356318D01*
X654355Y357472D01*
X655988Y359105D01*
X657142Y361105D01*
X657740Y363335D01*
Y365645D01*
X657142Y367875D01*
X655988Y369875D01*
X654355Y371508D01*
X652355Y372662D01*
X650125Y373260D01*
D02*
G37*
G36*
X624725D02*
X622415D01*
X620185Y372662D01*
X618185Y371508D01*
X616552Y369875D01*
X615398Y367875D01*
X614800Y365645D01*
Y363335D01*
X615398Y361105D01*
X616552Y359105D01*
X618185Y357472D01*
X620185Y356318D01*
X622415Y355720D01*
X624725D01*
X626955Y356318D01*
X628955Y357472D01*
X630588Y359105D01*
X631742Y361105D01*
X632340Y363335D01*
Y365645D01*
X631742Y367875D01*
X630588Y369875D01*
X628955Y371508D01*
X626955Y372662D01*
X624725Y373260D01*
D02*
G37*
G36*
X599325D02*
X597015D01*
X594785Y372662D01*
X592785Y371508D01*
X591152Y369875D01*
X589998Y367875D01*
X589400Y365645D01*
Y363335D01*
X589998Y361105D01*
X591152Y359105D01*
X592785Y357472D01*
X594785Y356318D01*
X597015Y355720D01*
X599325D01*
X601555Y356318D01*
X603555Y357472D01*
X605188Y359105D01*
X606342Y361105D01*
X606940Y363335D01*
Y365645D01*
X606342Y367875D01*
X605188Y369875D01*
X603555Y371508D01*
X601555Y372662D01*
X599325Y373260D01*
D02*
G37*
G36*
X455295Y397475D02*
X453332Y397216D01*
X451503Y396459D01*
X449932Y395253D01*
X427645Y372966D01*
X426510Y372662D01*
X424510Y371508D01*
X422877Y369875D01*
X421723Y367875D01*
X421419Y366740D01*
X410308Y355630D01*
X409406Y355734D01*
X409045Y356990D01*
X409880Y357472D01*
X411513Y359105D01*
X412667Y361105D01*
X413265Y363335D01*
Y365645D01*
X412667Y367875D01*
X411513Y369875D01*
X409880Y371508D01*
X407880Y372662D01*
X405650Y373260D01*
X403340D01*
X401110Y372662D01*
X399110Y371508D01*
X397477Y369875D01*
X396323Y367875D01*
X395725Y365645D01*
Y363335D01*
X396323Y361105D01*
X397477Y359105D01*
X399110Y357472D01*
X400214Y356835D01*
X399874Y355565D01*
X317041D01*
X316701Y356835D01*
X317805Y357472D01*
X319438Y359105D01*
X320592Y361105D01*
X321190Y363335D01*
Y365645D01*
X320592Y367875D01*
X319438Y369875D01*
X317805Y371508D01*
X315805Y372662D01*
X313575Y373260D01*
X311265D01*
X309035Y372662D01*
X307035Y371508D01*
X305402Y369875D01*
X304248Y367875D01*
X303650Y365645D01*
Y363335D01*
X304248Y361105D01*
X305402Y359105D01*
X307035Y357472D01*
X308139Y356835D01*
X307799Y355565D01*
X291641D01*
X291301Y356835D01*
X292405Y357472D01*
X294038Y359105D01*
X295192Y361105D01*
X295790Y363335D01*
Y365645D01*
X295192Y367875D01*
X294038Y369875D01*
X292405Y371508D01*
X290405Y372662D01*
X288175Y373260D01*
X285865D01*
X283635Y372662D01*
X281635Y371508D01*
X280002Y369875D01*
X278848Y367875D01*
X278250Y365645D01*
Y363335D01*
X278848Y361105D01*
X280002Y359105D01*
X281635Y357472D01*
X282739Y356835D01*
X282399Y355565D01*
X266241D01*
X265901Y356835D01*
X267005Y357472D01*
X268638Y359105D01*
X269792Y361105D01*
X270390Y363335D01*
Y365645D01*
X269792Y367875D01*
X268638Y369875D01*
X267005Y371508D01*
X265005Y372662D01*
X262775Y373260D01*
X260465D01*
X258235Y372662D01*
X256235Y371508D01*
X254602Y369875D01*
X253448Y367875D01*
X252850Y365645D01*
Y363335D01*
X253448Y361105D01*
X254602Y359105D01*
X256235Y357472D01*
X257070Y356990D01*
X256709Y355734D01*
X255807Y355630D01*
X244696Y366740D01*
X244392Y367875D01*
X243238Y369875D01*
X241605Y371508D01*
X239605Y372662D01*
X237375Y373260D01*
X235065D01*
X232835Y372662D01*
X230835Y371508D01*
X229202Y369875D01*
X228048Y367875D01*
X227450Y365645D01*
Y363335D01*
X228048Y361105D01*
X229202Y359105D01*
X230835Y357472D01*
X232835Y356318D01*
X233970Y356014D01*
X247367Y342617D01*
X248938Y341411D01*
X250767Y340653D01*
X252730Y340395D01*
X413385D01*
X415348Y340653D01*
X417177Y341411D01*
X418748Y342617D01*
X432145Y356014D01*
X433280Y356318D01*
X435280Y357472D01*
X436913Y359105D01*
X438067Y361105D01*
X438371Y362240D01*
X458437Y382305D01*
X544228D01*
X564294Y362240D01*
X564598Y361105D01*
X565752Y359105D01*
X567385Y357472D01*
X569385Y356318D01*
X571615Y355720D01*
X573925D01*
X576155Y356318D01*
X578155Y357472D01*
X579788Y359105D01*
X580942Y361105D01*
X581540Y363335D01*
Y365645D01*
X580942Y367875D01*
X579788Y369875D01*
X578155Y371508D01*
X576155Y372662D01*
X575020Y372966D01*
X552733Y395253D01*
X551162Y396459D01*
X549333Y397216D01*
X547370Y397475D01*
X455295D01*
X455295Y397475D01*
D02*
G37*
G36*
X481850Y373260D02*
X479540D01*
X477310Y372662D01*
X475310Y371508D01*
X473677Y369875D01*
X472523Y367875D01*
X471925Y365645D01*
Y363335D01*
X472523Y361105D01*
X473677Y359105D01*
X475310Y357472D01*
X477310Y356318D01*
X479540Y355720D01*
X481850D01*
X484080Y356318D01*
X486080Y357472D01*
X487713Y359105D01*
X488867Y361105D01*
X489465Y363335D01*
Y365645D01*
X488867Y367875D01*
X487713Y369875D01*
X486080Y371508D01*
X484080Y372662D01*
X481850Y373260D01*
D02*
G37*
G36*
X456450D02*
X454140D01*
X451910Y372662D01*
X449910Y371508D01*
X448277Y369875D01*
X447123Y367875D01*
X446525Y365645D01*
Y363335D01*
X447123Y361105D01*
X448277Y359105D01*
X449910Y357472D01*
X451910Y356318D01*
X454140Y355720D01*
X456450D01*
X458680Y356318D01*
X460680Y357472D01*
X462313Y359105D01*
X463467Y361105D01*
X464065Y363335D01*
Y365645D01*
X463467Y367875D01*
X462313Y369875D01*
X460680Y371508D01*
X458680Y372662D01*
X456450Y373260D01*
D02*
G37*
G36*
X262775Y297060D02*
X260465D01*
X258235Y296462D01*
X256235Y295308D01*
X254602Y293675D01*
X253448Y291675D01*
X253144Y290540D01*
X247113Y284509D01*
X246260Y283398D01*
X244990Y283829D01*
Y297060D01*
X227450D01*
Y279520D01*
X243883D01*
X244409Y278250D01*
X242984Y276825D01*
X166328D01*
X161319Y281833D01*
X159748Y283039D01*
X157919Y283796D01*
X155956Y284055D01*
X152800D01*
Y284490D01*
X136760D01*
Y268450D01*
X152800D01*
X153830Y267869D01*
X157823Y263877D01*
X159393Y262671D01*
X161223Y261914D01*
X163186Y261655D01*
X246126D01*
X248089Y261914D01*
X249918Y262671D01*
X251489Y263877D01*
X257839Y270227D01*
X259045Y271798D01*
X259802Y273627D01*
X260061Y275590D01*
Y276004D01*
X263870Y279814D01*
X265005Y280118D01*
X267005Y281272D01*
X268638Y282905D01*
X269792Y284905D01*
X270390Y287135D01*
Y289445D01*
X269792Y291675D01*
X268638Y293675D01*
X267005Y295308D01*
X265005Y296462D01*
X262775Y297060D01*
D02*
G37*
G36*
X632340Y287655D02*
X624205D01*
Y279520D01*
X624725D01*
X626955Y280118D01*
X628955Y281272D01*
X630588Y282905D01*
X631742Y284905D01*
X632340Y287135D01*
Y287655D01*
D02*
G37*
G36*
X622935D02*
X614800D01*
Y287135D01*
X615398Y284905D01*
X616552Y282905D01*
X618185Y281272D01*
X620185Y280118D01*
X622415Y279520D01*
X622935D01*
Y287655D01*
D02*
G37*
G36*
X288175Y297060D02*
X285865D01*
X283635Y296462D01*
X281635Y295308D01*
X280002Y293675D01*
X278848Y291675D01*
X278250Y289445D01*
Y287135D01*
X278848Y284905D01*
X280002Y282905D01*
X281635Y281272D01*
X283635Y280118D01*
X285865Y279520D01*
X288175D01*
X290405Y280118D01*
X292405Y281272D01*
X294038Y282905D01*
X295192Y284905D01*
X295790Y287135D01*
Y289445D01*
X295192Y291675D01*
X294038Y293675D01*
X292405Y295308D01*
X290405Y296462D01*
X288175Y297060D01*
D02*
G37*
G36*
X94340Y284100D02*
X86955D01*
Y276715D01*
X94340D01*
Y284100D01*
D02*
G37*
G36*
Y275445D02*
X86955D01*
Y268060D01*
X94340D01*
Y275445D01*
D02*
G37*
G36*
X35880Y284490D02*
X28495D01*
Y276470D01*
Y268450D01*
X35880D01*
Y268885D01*
X72513D01*
X72831Y268753D01*
X74794Y268495D01*
X78300D01*
Y268060D01*
X85685D01*
Y276080D01*
Y284100D01*
X78300D01*
Y283665D01*
X76685D01*
X76367Y283796D01*
X74404Y284055D01*
X35880D01*
Y284490D01*
D02*
G37*
G36*
X731022Y260510D02*
X730305D01*
Y250875D01*
X739940D01*
Y251592D01*
X739240Y254204D01*
X737888Y256546D01*
X735976Y258458D01*
X733634Y259810D01*
X731022Y260510D01*
D02*
G37*
G36*
X729035D02*
X728318D01*
X725706Y259810D01*
X723364Y258458D01*
X721452Y256546D01*
X720100Y254204D01*
X719400Y251592D01*
Y250875D01*
X729035D01*
Y260510D01*
D02*
G37*
G36*
X456450Y297060D02*
X454140D01*
X451910Y296462D01*
X449910Y295308D01*
X448277Y293675D01*
X447123Y291675D01*
X446525Y289445D01*
Y287135D01*
X447123Y284905D01*
X448277Y282905D01*
X449910Y281272D01*
X451910Y280118D01*
X453045Y279814D01*
X485492Y247367D01*
X487063Y246161D01*
X488892Y245403D01*
X490855Y245145D01*
X654186D01*
X654317Y245110D01*
X656323D01*
X658261Y245629D01*
X659999Y246632D01*
X661417Y248051D01*
X662421Y249789D01*
X662940Y251727D01*
Y253733D01*
X662421Y255671D01*
X661417Y257409D01*
X659999Y258827D01*
X658261Y259831D01*
X656323Y260350D01*
X654317D01*
X654186Y260315D01*
X493997D01*
X463771Y290540D01*
X463467Y291675D01*
X462313Y293675D01*
X460680Y295308D01*
X458680Y296462D01*
X456450Y297060D01*
D02*
G37*
G36*
X731022Y298610D02*
X728318D01*
X725706Y297910D01*
X723364Y296558D01*
X721452Y294646D01*
X720100Y292304D01*
X719400Y289692D01*
Y288797D01*
X670598Y239995D01*
X488917D01*
X438371Y290540D01*
X438067Y291675D01*
X436913Y293675D01*
X435280Y295308D01*
X433280Y296462D01*
X431050Y297060D01*
X428740D01*
X426510Y296462D01*
X424510Y295308D01*
X422877Y293675D01*
X421723Y291675D01*
X421125Y289445D01*
Y287135D01*
X421723Y284905D01*
X422877Y282905D01*
X424510Y281272D01*
X426510Y280118D01*
X427645Y279814D01*
X480412Y227047D01*
X481983Y225841D01*
X483812Y225084D01*
X485775Y224825D01*
X673740D01*
X675703Y225084D01*
X677532Y225841D01*
X679103Y227047D01*
X730127Y278070D01*
X731022D01*
X733634Y278770D01*
X735976Y280122D01*
X737888Y282034D01*
X739240Y284376D01*
X739940Y286988D01*
Y289692D01*
X739240Y292304D01*
X737888Y294646D01*
X735976Y296558D01*
X733634Y297910D01*
X731022Y298610D01*
D02*
G37*
G36*
X739940Y249605D02*
X730305D01*
Y239970D01*
X731022D01*
X733634Y240670D01*
X735976Y242022D01*
X737888Y243934D01*
X739240Y246276D01*
X739940Y248888D01*
Y249605D01*
D02*
G37*
G36*
X729035D02*
X719400D01*
Y248888D01*
X720100Y246276D01*
X721452Y243934D01*
X723364Y242022D01*
X725706Y240670D01*
X728318Y239970D01*
X729035D01*
Y249605D01*
D02*
G37*
G36*
X667670Y168760D02*
X653130D01*
Y154220D01*
X667670D01*
Y168760D01*
D02*
G37*
G36*
X660400Y194075D02*
X620830D01*
X618867Y193816D01*
X617037Y193059D01*
X615466Y191853D01*
X569374Y145761D01*
X436626D01*
X434663Y145503D01*
X432834Y144745D01*
X431263Y143539D01*
X401988Y114265D01*
X395925D01*
X395585Y115535D01*
X396447Y116033D01*
X397940Y117526D01*
X398996Y119355D01*
X399543Y121395D01*
Y123506D01*
X398996Y125546D01*
X397940Y127375D01*
X396447Y128868D01*
X394618Y129924D01*
X392579Y130470D01*
X390467D01*
X388427Y129924D01*
X386598Y128868D01*
X385105Y127375D01*
X384049Y125546D01*
X383503Y123506D01*
Y121395D01*
X384049Y119355D01*
X385105Y117526D01*
X386598Y116033D01*
X387461Y115535D01*
X387120Y114265D01*
X349838D01*
X338184Y125918D01*
X337343Y127374D01*
X335850Y128868D01*
X334021Y129923D01*
X331982Y130470D01*
X329870D01*
X327830Y129923D01*
X326002Y128868D01*
X324508Y127374D01*
X323668Y125918D01*
X310998Y113249D01*
X271884D01*
X271717Y114519D01*
X273424Y114976D01*
X275253Y116032D01*
X276746Y117525D01*
X277802Y119354D01*
X278349Y121394D01*
Y123506D01*
X277802Y125545D01*
X276746Y127374D01*
X275253Y128868D01*
X273424Y129923D01*
X271385Y130470D01*
X269273D01*
X267233Y129923D01*
X265404Y128868D01*
X263911Y127374D01*
X262855Y125545D01*
X262309Y123506D01*
Y121394D01*
X262855Y119354D01*
X263911Y117525D01*
X265404Y116032D01*
X267233Y114976D01*
X268940Y114519D01*
X268773Y113249D01*
X229659D01*
X216989Y125918D01*
X216149Y127374D01*
X214656Y128868D01*
X212827Y129923D01*
X210787Y130470D01*
X208675D01*
X206636Y129923D01*
X204807Y128868D01*
X203314Y127374D01*
X202258Y125545D01*
X201711Y123506D01*
Y121394D01*
X202258Y119354D01*
X203314Y117525D01*
X204807Y116032D01*
X206263Y115192D01*
X221154Y100301D01*
X222725Y99095D01*
X224554Y98337D01*
X226517Y98079D01*
X314140D01*
X316103Y98337D01*
X317932Y99095D01*
X319503Y100301D01*
X330926Y111723D01*
X341332Y101317D01*
X342903Y100111D01*
X344733Y99354D01*
X346696Y99095D01*
X346696Y99095D01*
X405130D01*
X407093Y99354D01*
X408922Y100111D01*
X410493Y101317D01*
X439768Y130591D01*
X447641D01*
X447981Y129321D01*
X447196Y128868D01*
X445702Y127374D01*
X444646Y125545D01*
X444100Y123506D01*
Y121394D01*
X444646Y119354D01*
X445702Y117525D01*
X447196Y116032D01*
X449024Y114976D01*
X451064Y114430D01*
X453176D01*
X455216Y114976D01*
X457044Y116032D01*
X458538Y117525D01*
X459594Y119354D01*
X460140Y121394D01*
Y123506D01*
X459594Y125545D01*
X458538Y127374D01*
X457044Y128868D01*
X456259Y129321D01*
X456599Y130591D01*
X572516D01*
X574479Y130850D01*
X576308Y131607D01*
X577879Y132813D01*
X623972Y178905D01*
X660400D01*
X662363Y179163D01*
X664192Y179921D01*
X665763Y181126D01*
X666969Y182697D01*
X667727Y184527D01*
X667985Y186490D01*
X667727Y188453D01*
X666969Y190282D01*
X665763Y191853D01*
X664192Y193059D01*
X662363Y193816D01*
X660400Y194075D01*
D02*
G37*
G36*
X583800Y206975D02*
X581837Y206716D01*
X581700Y206660D01*
X576530D01*
Y202847D01*
X553226Y179543D01*
X138045D01*
X136082Y179284D01*
X134253Y178527D01*
X132682Y177321D01*
X85069Y129708D01*
X83613Y128868D01*
X82120Y127374D01*
X81064Y125545D01*
X80517Y123506D01*
Y121394D01*
X81064Y119354D01*
X82120Y117525D01*
X83613Y116032D01*
X85442Y114976D01*
X87481Y114430D01*
X89593D01*
X91633Y114976D01*
X93462Y116032D01*
X94955Y117525D01*
X95795Y118981D01*
X141187Y164373D01*
X556368D01*
X558331Y164632D01*
X560160Y165389D01*
X561731Y166595D01*
X587256Y192120D01*
X591070D01*
Y197291D01*
X591126Y197427D01*
X591385Y199390D01*
X591126Y201353D01*
X591070Y201489D01*
Y206660D01*
X585899D01*
X585763Y206716D01*
X583800Y206975D01*
D02*
G37*
G36*
X195762Y69270D02*
X195045D01*
Y59635D01*
X204680D01*
Y60352D01*
X203980Y62964D01*
X202628Y65306D01*
X200716Y67218D01*
X198374Y68570D01*
X195762Y69270D01*
D02*
G37*
G36*
X193775D02*
X193058D01*
X190446Y68570D01*
X188104Y67218D01*
X186192Y65306D01*
X184840Y62964D01*
X184140Y60352D01*
Y59635D01*
X193775D01*
Y69270D01*
D02*
G37*
G36*
X204680Y58365D02*
X195045D01*
Y48730D01*
X195762D01*
X198374Y49430D01*
X200716Y50782D01*
X202628Y52694D01*
X203980Y55036D01*
X204680Y57648D01*
Y58365D01*
D02*
G37*
G36*
X193775D02*
X184140D01*
Y57648D01*
X184840Y55036D01*
X186192Y52694D01*
X188104Y50782D01*
X190446Y49430D01*
X193058Y48730D01*
X193775D01*
Y58365D01*
D02*
G37*
G36*
X28996Y130470D02*
X26884D01*
X24844Y129923D01*
X23016Y128868D01*
X21522Y127374D01*
X20466Y125545D01*
X19920Y123506D01*
Y121394D01*
X20466Y119354D01*
X21522Y117525D01*
X23016Y116032D01*
X24471Y115192D01*
X86026Y53637D01*
X87597Y52431D01*
X89427Y51674D01*
X91390Y51415D01*
X111271D01*
X111904Y50782D01*
X114246Y49430D01*
X116858Y48730D01*
X119562D01*
X122174Y49430D01*
X124516Y50782D01*
X126428Y52694D01*
X127780Y55036D01*
X128480Y57648D01*
Y60352D01*
X127780Y62964D01*
X126428Y65306D01*
X124516Y67218D01*
X122174Y68570D01*
X119562Y69270D01*
X116858D01*
X114246Y68570D01*
X111904Y67218D01*
X111271Y66585D01*
X94531D01*
X35198Y125918D01*
X34358Y127374D01*
X32864Y128868D01*
X31036Y129923D01*
X28996Y130470D01*
D02*
G37*
G36*
X738052Y67420D02*
X735348D01*
X732736Y66720D01*
X730394Y65368D01*
X728482Y63456D01*
X727130Y61114D01*
X726430Y58502D01*
Y55798D01*
X727130Y53186D01*
X728482Y50844D01*
X730394Y48932D01*
X732736Y47580D01*
X735348Y46880D01*
X738052D01*
X740664Y47580D01*
X743006Y48932D01*
X744918Y50844D01*
X746270Y53186D01*
X746970Y55798D01*
Y58502D01*
X746270Y61114D01*
X744918Y63456D01*
X743006Y65368D01*
X740664Y66720D01*
X738052Y67420D01*
D02*
G37*
G36*
X553473Y116390D02*
X551427D01*
X549451Y115861D01*
X547679Y114838D01*
X546232Y113391D01*
X545210Y111619D01*
X544680Y109643D01*
Y107597D01*
X545210Y105621D01*
X546232Y103849D01*
X547679Y102402D01*
X549451Y101380D01*
X551427Y100850D01*
X553473D01*
X554164Y101035D01*
X643888D01*
X688230Y56693D01*
Y55798D01*
X688930Y53186D01*
X690282Y50844D01*
X692194Y48932D01*
X694536Y47580D01*
X697148Y46880D01*
X699852D01*
X702464Y47580D01*
X704806Y48932D01*
X706718Y50844D01*
X708070Y53186D01*
X708770Y55798D01*
Y58502D01*
X708070Y61114D01*
X706718Y63456D01*
X704806Y65368D01*
X702464Y66720D01*
X699852Y67420D01*
X698957D01*
X652393Y113983D01*
X650822Y115189D01*
X648993Y115947D01*
X647030Y116205D01*
X554164D01*
X553473Y116390D01*
D02*
G37*
G36*
X150190Y130470D02*
X148078D01*
X146039Y129923D01*
X144210Y128868D01*
X142717Y127374D01*
X141661Y125545D01*
X141114Y123506D01*
Y121394D01*
X141661Y119354D01*
X142717Y117525D01*
X144210Y116032D01*
X145666Y115192D01*
X171218Y89639D01*
X171257Y89589D01*
X178579Y82267D01*
X180150Y81061D01*
X181979Y80303D01*
X183942Y80045D01*
X626878D01*
X650230Y56693D01*
Y55798D01*
X650930Y53186D01*
X652282Y50844D01*
X654194Y48932D01*
X656536Y47580D01*
X659148Y46880D01*
X661852D01*
X664464Y47580D01*
X666806Y48932D01*
X668718Y50844D01*
X670070Y53186D01*
X670770Y55798D01*
Y58502D01*
X670070Y61114D01*
X668718Y63456D01*
X666806Y65368D01*
X664464Y66720D01*
X661852Y67420D01*
X660957D01*
X635383Y92993D01*
X633812Y94199D01*
X631983Y94957D01*
X630020Y95215D01*
X187084D01*
X182022Y100277D01*
X181983Y100327D01*
X156392Y125918D01*
X155552Y127374D01*
X154059Y128868D01*
X152230Y129923D01*
X150190Y130470D01*
D02*
G37*
G36*
X453572Y67420D02*
X450868D01*
X448256Y66720D01*
X445914Y65368D01*
X444002Y63456D01*
X442650Y61114D01*
X441950Y58502D01*
Y55798D01*
X442650Y53186D01*
X444002Y50844D01*
X445914Y48932D01*
X448256Y47580D01*
X450868Y46880D01*
X453572D01*
X456184Y47580D01*
X458526Y48932D01*
X460438Y50844D01*
X461790Y53186D01*
X462490Y55798D01*
Y58502D01*
X461790Y61114D01*
X460438Y63456D01*
X458526Y65368D01*
X456184Y66720D01*
X453572Y67420D01*
D02*
G37*
G36*
X415372D02*
X412668D01*
X410056Y66720D01*
X407714Y65368D01*
X405802Y63456D01*
X404450Y61114D01*
X403750Y58502D01*
Y55798D01*
X404450Y53186D01*
X405802Y50844D01*
X407714Y48932D01*
X410056Y47580D01*
X412668Y46880D01*
X415372D01*
X417984Y47580D01*
X420326Y48932D01*
X422238Y50844D01*
X423590Y53186D01*
X424290Y55798D01*
Y58502D01*
X423590Y61114D01*
X422238Y63456D01*
X420326Y65368D01*
X417984Y66720D01*
X415372Y67420D01*
D02*
G37*
G36*
X377372D02*
X374668D01*
X372056Y66720D01*
X369714Y65368D01*
X367802Y63456D01*
X366450Y61114D01*
X365750Y58502D01*
Y55798D01*
X366450Y53186D01*
X367802Y50844D01*
X369714Y48932D01*
X372056Y47580D01*
X374668Y46880D01*
X377372D01*
X379984Y47580D01*
X382326Y48932D01*
X384238Y50844D01*
X385590Y53186D01*
X386290Y55798D01*
Y58502D01*
X385590Y61114D01*
X384238Y63456D01*
X382326Y65368D01*
X379984Y66720D01*
X377372Y67420D01*
D02*
G37*
G36*
X295277Y60610D02*
X293363D01*
X291514Y60115D01*
X289856Y59157D01*
X288503Y57804D01*
X287545Y56146D01*
X287050Y54297D01*
Y52383D01*
X287545Y50534D01*
X288503Y48876D01*
X289856Y47523D01*
X291514Y46565D01*
X293363Y46070D01*
X295277D01*
X297126Y46565D01*
X298784Y47523D01*
X300137Y48876D01*
X301094Y50534D01*
X301590Y52383D01*
Y54297D01*
X301094Y56146D01*
X300137Y57804D01*
X298784Y59157D01*
X297126Y60115D01*
X295277Y60610D01*
D02*
G37*
G36*
X781050Y45805D02*
X779738D01*
X775918Y45045D01*
X772320Y43555D01*
X769082Y41391D01*
X766329Y38638D01*
X764165Y35400D01*
X762675Y31802D01*
X761915Y27982D01*
Y26670D01*
X781050D01*
Y45805D01*
D02*
G37*
G36*
X29252D02*
X27940D01*
Y26670D01*
X47075D01*
Y27982D01*
X46315Y31802D01*
X44825Y35400D01*
X42661Y38638D01*
X39908Y41391D01*
X36670Y43555D01*
X33072Y45045D01*
X29252Y45805D01*
D02*
G37*
G36*
X560220Y41390D02*
X544680D01*
X544680Y25850D01*
X543506Y25619D01*
X283836D01*
X283705Y25654D01*
X281699D01*
X279761Y25135D01*
X278023Y24132D01*
X276604Y22713D01*
X275601Y20975D01*
X275082Y19037D01*
Y17031D01*
X275601Y15093D01*
X276604Y13355D01*
X278023Y11937D01*
X279761Y10933D01*
X281699Y10414D01*
X283705D01*
X283836Y10449D01*
X696450D01*
X696581Y10414D01*
X698587D01*
X700525Y10933D01*
X702263Y11937D01*
X703682Y13355D01*
X704685Y15093D01*
X705204Y17031D01*
Y19037D01*
X704685Y20975D01*
X703682Y22713D01*
X702263Y24132D01*
X700525Y25135D01*
X698587Y25654D01*
X696581D01*
X696450Y25619D01*
X561394D01*
X560220Y25850D01*
X560220Y26889D01*
Y41390D01*
D02*
G37*
G36*
X157562Y69270D02*
X154858D01*
X152246Y68570D01*
X149904Y67218D01*
X147992Y65306D01*
X146640Y62964D01*
X145940Y60352D01*
Y57648D01*
X146640Y55036D01*
X147992Y52694D01*
X148625Y52061D01*
Y39660D01*
X148883Y37696D01*
X149641Y35867D01*
X150847Y34296D01*
X164337Y20806D01*
X165907Y19601D01*
X167737Y18843D01*
X169700Y18585D01*
X247150D01*
X249113Y18843D01*
X250942Y19601D01*
X252513Y20806D01*
X277777Y46070D01*
X281590D01*
Y51241D01*
X281646Y51377D01*
X281905Y53340D01*
X281646Y55303D01*
X281590Y55439D01*
Y60610D01*
X276419D01*
X276283Y60666D01*
X274320Y60925D01*
X272357Y60666D01*
X272221Y60610D01*
X267050D01*
Y56797D01*
X244008Y33754D01*
X172842D01*
X163795Y42801D01*
Y52061D01*
X164428Y52694D01*
X165780Y55036D01*
X166480Y57648D01*
Y60352D01*
X165780Y62964D01*
X164428Y65306D01*
X162516Y67218D01*
X160174Y68570D01*
X157562Y69270D01*
D02*
G37*
G36*
X781050Y25400D02*
X761915D01*
Y24088D01*
X762675Y20268D01*
X764165Y16670D01*
X766329Y13432D01*
X769082Y10679D01*
X772320Y8515D01*
X775918Y7025D01*
X779738Y6265D01*
X781050D01*
Y25400D01*
D02*
G37*
G36*
X47075D02*
X27940D01*
Y6265D01*
X29252D01*
X33072Y7025D01*
X36670Y8515D01*
X39908Y10679D01*
X42661Y13432D01*
X44825Y16670D01*
X46315Y20268D01*
X47075Y24088D01*
Y25400D01*
D02*
G37*
%LPD*%
G36*
X141609Y781531D02*
Y768831D01*
X183519Y726921D01*
Y636751D01*
X175229D01*
X134199Y677781D01*
X75569D01*
Y741481D01*
X76249Y742161D01*
X44201Y774210D01*
Y781531D01*
Y787359D01*
X80649Y820379D01*
X180457D01*
X141609Y781531D01*
D02*
G37*
G36*
X379079Y199547D02*
X380151Y198724D01*
X379720Y197454D01*
X243454D01*
X216989Y223919D01*
X216149Y225375D01*
X214656Y226868D01*
X213794Y227365D01*
X214135Y228635D01*
X265925D01*
X266266Y227365D01*
X265404Y226868D01*
X263911Y225375D01*
X262855Y223546D01*
X262309Y221506D01*
Y219394D01*
X262855Y217355D01*
X263911Y215526D01*
X265404Y214032D01*
X267233Y212977D01*
X269273Y212430D01*
X271385D01*
X273424Y212977D01*
X275253Y214032D01*
X276746Y215526D01*
X277802Y217355D01*
X278349Y219394D01*
Y221506D01*
X277802Y223546D01*
X276746Y225375D01*
X275253Y226868D01*
X274392Y227365D01*
X274732Y228635D01*
X326523D01*
X326863Y227365D01*
X326002Y226868D01*
X324508Y225375D01*
X323452Y223546D01*
X322906Y221506D01*
Y219394D01*
X323452Y217355D01*
X324508Y215526D01*
X326002Y214032D01*
X327830Y212977D01*
X329870Y212430D01*
X331982D01*
X334021Y212977D01*
X335850Y214032D01*
X337343Y215526D01*
X338399Y217355D01*
X338946Y219394D01*
Y221506D01*
X338399Y223546D01*
X337343Y225375D01*
X335850Y226868D01*
X334989Y227365D01*
X335329Y228635D01*
X349991D01*
X379079Y199547D01*
D02*
G37*
D16*
X234550Y485140D02*
D03*
X660400Y186490D02*
D03*
X294320Y53340D02*
D03*
X533800Y199390D02*
D03*
D17*
X209550Y485140D02*
D03*
X274320Y53340D02*
D03*
X583800Y199390D02*
D03*
D18*
X419354Y415520D02*
D03*
X635000Y539520D02*
D03*
X571500Y429490D02*
D03*
X551180Y709700D02*
D03*
X621030Y602210D02*
D03*
X501650Y538250D02*
D03*
D19*
X419354Y524280D02*
D03*
X635000Y430760D02*
D03*
X571500Y538250D02*
D03*
X551180Y600940D02*
D03*
X621030Y710970D02*
D03*
X501650Y429490D02*
D03*
D20*
X660400Y161490D02*
D03*
D22*
X182210Y627380D02*
D03*
X442630Y637540D02*
D03*
D23*
X257210Y627380D02*
D03*
X367630Y637540D02*
D03*
D31*
X209731Y122450D02*
D03*
Y220450D02*
D03*
X270329D02*
D03*
Y122450D02*
D03*
X330926Y220450D02*
D03*
Y122450D02*
D03*
X74930Y566030D02*
D03*
X27940Y676030D02*
D03*
X452120Y220450D02*
D03*
Y122450D02*
D03*
X391523Y122450D02*
D03*
Y220450D02*
D03*
X27860Y386470D02*
D03*
X27940Y220450D02*
D03*
Y122450D02*
D03*
X144780Y386470D02*
D03*
X86320Y386080D02*
D03*
X149134Y220450D02*
D03*
Y122450D02*
D03*
X88537Y220450D02*
D03*
Y122450D02*
D03*
D32*
X74930Y676030D02*
D03*
X27940Y566030D02*
D03*
X27860Y276470D02*
D03*
X144780D02*
D03*
X86320Y276080D02*
D03*
D33*
X718820Y614680D02*
D03*
Y640080D02*
D03*
D34*
Y665480D02*
D03*
D35*
X717550Y420370D02*
D03*
Y445770D02*
D03*
D36*
Y471170D02*
D03*
D37*
X150970Y486410D02*
D03*
X552450Y108620D02*
D03*
X382589Y768309D02*
D03*
X315279Y767039D02*
D03*
D38*
X552450Y33620D02*
D03*
D42*
X176620Y94952D02*
Y94964D01*
X183942Y87630D02*
X630020D01*
X660500Y57150D01*
X176620Y94952D02*
X183942Y87630D01*
X149134Y122450D02*
X176620Y94964D01*
X226517Y105664D02*
X314140D01*
X209731Y122450D02*
X226517Y105664D01*
X314140D02*
X330926Y122450D01*
X346696Y106680D02*
X405130D01*
X436626Y138176D01*
X330926Y122450D02*
X346696Y106680D01*
X136840Y814070D02*
X428211D01*
X114300Y727710D02*
Y791530D01*
X136840Y814070D01*
X673740Y232410D02*
X729670Y288340D01*
X485775Y232410D02*
X673740D01*
X46410Y457250D02*
X101810D01*
X130970Y486410D01*
X74930Y676030D02*
X133560D01*
X182210Y627380D01*
X52760Y778560D02*
X74930Y756390D01*
Y676030D02*
Y756390D01*
X429895Y288290D02*
X485775Y232410D01*
X282702Y18034D02*
X697584D01*
X182210Y627380D02*
Y659800D01*
X114300Y727710D02*
X182210Y659800D01*
X572770Y288290D02*
X591820Y269240D01*
X632460D01*
X490855Y252730D02*
X655320D01*
X455295Y288290D02*
X490855Y252730D01*
X209731Y220450D02*
X240312Y189870D01*
X524279D02*
X533800Y199390D01*
X240312Y189870D02*
X524279D01*
X88537Y122450D02*
X138045Y171958D01*
X556368D02*
X583800Y199390D01*
X138045Y171958D02*
X556368D01*
X620830Y186490D02*
X660400D01*
X572516Y138176D02*
X620830Y186490D01*
X436626Y138176D02*
X572516D01*
X632460Y304800D02*
X648970Y288290D01*
X497205Y304800D02*
X632460D01*
X463320Y415520D02*
X471170Y407670D01*
X419354Y415520D02*
X463320D01*
X471170Y407670D02*
X611910D01*
X635000Y430760D01*
X455295Y389890D02*
X547370D01*
X572770Y364490D01*
X429895D02*
X455295Y389890D01*
X673100Y665480D02*
X718820D01*
X656590Y648970D02*
X673100Y665480D01*
X534900Y571500D02*
X649268D01*
X656590Y578822D01*
Y648970D01*
X501650Y538250D02*
X534900Y571500D01*
X419354Y524280D02*
X512804Y617730D01*
X605510D01*
X621030Y602210D01*
X428211Y814070D02*
X464330Y777951D01*
Y775138D02*
Y777951D01*
Y775138D02*
X472440Y767028D01*
Y765810D02*
Y767028D01*
X295279Y506689D02*
Y767039D01*
X292100Y506730D02*
X293370Y505460D01*
X523216Y600940D02*
X551180D01*
X384810Y462534D02*
X523216Y600940D01*
X12192Y287782D02*
X209550Y485140D01*
X252476Y279146D02*
X261620Y288290D01*
X252476Y275590D02*
Y279146D01*
X246126Y269240D02*
X252476Y275590D01*
X163186Y269240D02*
X246126D01*
X155956Y276470D02*
X163186Y269240D01*
X144780Y276470D02*
X155956D01*
X436580Y204910D02*
X452120Y220450D01*
X384443Y204910D02*
X436580D01*
X353133Y236220D02*
X384443Y204910D01*
X129540Y236220D02*
X353133D01*
X123698Y306070D02*
X129540Y236220D01*
X123698Y306070D02*
X280162Y462534D01*
X384810D01*
X150970Y475582D02*
Y486410D01*
X61858Y386470D02*
X150970Y475582D01*
X27860Y386470D02*
X61858D01*
X12192Y236198D02*
Y287782D01*
Y236198D02*
X27940Y220450D01*
X27860Y276470D02*
X74404D01*
X74794Y276080D01*
X86320D01*
X323683Y288290D02*
X391523Y220450D01*
X312420Y288290D02*
X323683D01*
X459359Y309626D02*
X480695Y288290D01*
X393192Y309626D02*
X459359D01*
X388112Y304546D02*
X393192Y309626D01*
X388112Y257411D02*
Y304546D01*
Y257411D02*
X391523Y254000D01*
Y220450D02*
Y254000D01*
X91390Y59000D02*
X118210D01*
X27940Y122450D02*
X91390Y59000D01*
X552450Y108620D02*
X647030D01*
X698500Y57150D01*
X247150Y26170D02*
X274320Y53340D01*
X169700Y26170D02*
X247150D01*
X156210Y39660D02*
X169700Y26170D01*
X156210Y39660D02*
Y59000D01*
X236220Y364490D02*
X252730Y347980D01*
X413385D01*
X429895Y364490D01*
X480695Y288290D02*
X497205Y304800D01*
X88537Y220450D02*
X149134D01*
D43*
X27940Y852170D02*
D03*
X780415Y851535D02*
D03*
X27305Y26035D02*
D03*
X781685D02*
D03*
D44*
X729670Y288340D02*
D03*
Y250240D02*
D03*
X52760Y778560D02*
D03*
Y740460D02*
D03*
X194410Y59000D02*
D03*
X156210D02*
D03*
X118210D02*
D03*
X736700Y57150D02*
D03*
X698500D02*
D03*
X660500D02*
D03*
X452220D02*
D03*
X414020D02*
D03*
X376020D02*
D03*
X46410Y495350D02*
D03*
Y457250D02*
D03*
D45*
X217809Y765769D02*
D03*
X192409D02*
D03*
X472440Y765810D02*
D03*
X497840D02*
D03*
D46*
X167009Y765769D02*
D03*
X447040Y765810D02*
D03*
D47*
X480695Y364490D02*
D03*
X455295D02*
D03*
X429895D02*
D03*
X404495D02*
D03*
X480695Y288290D02*
D03*
X455295D02*
D03*
X429895D02*
D03*
X648970Y364490D02*
D03*
X623570D02*
D03*
X598170D02*
D03*
X572770D02*
D03*
X648970Y288290D02*
D03*
X623570D02*
D03*
X598170D02*
D03*
X261620D02*
D03*
X287020D02*
D03*
X312420D02*
D03*
X236220Y364490D02*
D03*
X261620D02*
D03*
X287020D02*
D03*
X312420D02*
D03*
D48*
X404495Y288290D02*
D03*
X572770D02*
D03*
X236220D02*
D03*
D49*
X130970Y486410D02*
D03*
X362589Y768309D02*
D03*
X295279Y767039D02*
D03*
D50*
X293370Y505460D02*
D03*
X306070Y429260D02*
D03*
D51*
X318370Y505460D02*
D03*
X331070Y429260D02*
D03*
D52*
X632460Y269240D02*
D03*
X655320Y252730D02*
D03*
X282702Y18034D02*
D03*
X697584D02*
D03*
M02*
