G04*
G04 #@! TF.GenerationSoftware,Altium Limited,Altium Designer,23.4.1 (23)*
G04*
G04 Layer_Color=16711935*
%FSLAX44Y44*%
%MOMM*%
G71*
G04*
G04 #@! TF.SameCoordinates,296E2F05-AFD3-44B7-80E4-9C800FA3EDDF*
G04*
G04*
G04 #@! TF.FilePolarity,Positive*
G04*
G01*
G75*
%ADD11C,0.2000*%
G36*
X225222Y491750D02*
X225305Y491741D01*
X225406Y491732D01*
X225508Y491723D01*
X225628Y491695D01*
X225878Y491640D01*
X226155Y491556D01*
X226294Y491501D01*
X226423Y491436D01*
X226553Y491353D01*
X226682Y491270D01*
X226691Y491260D01*
X226710Y491251D01*
X226747Y491223D01*
X226793Y491177D01*
X226839Y491131D01*
X226904Y491066D01*
X226969Y490992D01*
X227043Y490918D01*
X227117Y490826D01*
X227191Y490715D01*
X227274Y490604D01*
X227348Y490484D01*
X227413Y490345D01*
X227487Y490206D01*
X227542Y490059D01*
X227598Y489892D01*
X226765Y489698D01*
Y489707D01*
X226756Y489726D01*
X226738Y489763D01*
X226719Y489809D01*
X226701Y489864D01*
X226673Y489938D01*
X226599Y490086D01*
X226507Y490253D01*
X226396Y490419D01*
X226257Y490576D01*
X226109Y490715D01*
X226091Y490733D01*
X226035Y490770D01*
X225943Y490817D01*
X225822Y490881D01*
X225665Y490937D01*
X225490Y490992D01*
X225277Y491029D01*
X225046Y491039D01*
X224972D01*
X224926Y491029D01*
X224861D01*
X224787Y491020D01*
X224611Y490992D01*
X224417Y490955D01*
X224214Y490891D01*
X224001Y490798D01*
X223807Y490678D01*
X223798D01*
X223788Y490659D01*
X223724Y490613D01*
X223640Y490539D01*
X223539Y490428D01*
X223419Y490290D01*
X223308Y490132D01*
X223206Y489938D01*
X223113Y489726D01*
Y489716D01*
X223104Y489698D01*
X223095Y489670D01*
X223086Y489624D01*
X223067Y489568D01*
X223049Y489504D01*
X223021Y489347D01*
X222984Y489162D01*
X222947Y488958D01*
X222929Y488736D01*
X222919Y488496D01*
Y488487D01*
Y488459D01*
Y488413D01*
Y488357D01*
X222929Y488293D01*
Y488209D01*
X222938Y488117D01*
X222947Y488015D01*
X222975Y487793D01*
X223021Y487553D01*
X223076Y487313D01*
X223151Y487072D01*
Y487063D01*
X223160Y487044D01*
X223178Y487017D01*
X223197Y486970D01*
X223252Y486860D01*
X223335Y486730D01*
X223437Y486582D01*
X223566Y486425D01*
X223714Y486286D01*
X223890Y486157D01*
X223899D01*
X223918Y486148D01*
X223946Y486129D01*
X223983Y486111D01*
X224029Y486092D01*
X224084Y486064D01*
X224214Y486009D01*
X224380Y485953D01*
X224565Y485907D01*
X224768Y485870D01*
X224981Y485861D01*
X225046D01*
X225101Y485870D01*
X225166D01*
X225231Y485880D01*
X225397Y485916D01*
X225591Y485963D01*
X225786Y486037D01*
X225989Y486138D01*
X226091Y486194D01*
X226183Y486268D01*
X226192Y486277D01*
X226201Y486286D01*
X226229Y486314D01*
X226266Y486342D01*
X226303Y486388D01*
X226349Y486443D01*
X226405Y486499D01*
X226451Y486573D01*
X226507Y486656D01*
X226571Y486749D01*
X226627Y486841D01*
X226682Y486952D01*
X226728Y487072D01*
X226775Y487202D01*
X226821Y487340D01*
X226858Y487488D01*
X227708Y487276D01*
Y487266D01*
X227699Y487229D01*
X227681Y487174D01*
X227653Y487100D01*
X227625Y487017D01*
X227588Y486915D01*
X227542Y486804D01*
X227487Y486684D01*
X227357Y486425D01*
X227191Y486166D01*
X227089Y486037D01*
X226987Y485907D01*
X226876Y485796D01*
X226747Y485685D01*
X226738Y485676D01*
X226719Y485658D01*
X226673Y485639D01*
X226627Y485602D01*
X226553Y485556D01*
X226479Y485510D01*
X226377Y485463D01*
X226276Y485417D01*
X226155Y485362D01*
X226026Y485316D01*
X225887Y485269D01*
X225739Y485223D01*
X225582Y485186D01*
X225416Y485168D01*
X225240Y485149D01*
X225055Y485140D01*
X224953D01*
X224879Y485149D01*
X224796D01*
X224694Y485158D01*
X224583Y485177D01*
X224454Y485195D01*
X224186Y485242D01*
X223909Y485316D01*
X223631Y485417D01*
X223502Y485482D01*
X223372Y485556D01*
X223363Y485565D01*
X223345Y485574D01*
X223308Y485602D01*
X223271Y485639D01*
X223215Y485676D01*
X223151Y485732D01*
X223076Y485796D01*
X223002Y485870D01*
X222929Y485953D01*
X222845Y486037D01*
X222679Y486249D01*
X222522Y486499D01*
X222383Y486776D01*
Y486786D01*
X222365Y486813D01*
X222355Y486860D01*
X222328Y486915D01*
X222309Y486989D01*
X222281Y487081D01*
X222244Y487183D01*
X222217Y487294D01*
X222189Y487414D01*
X222152Y487553D01*
X222106Y487840D01*
X222069Y488163D01*
X222050Y488496D01*
Y488505D01*
Y488542D01*
Y488598D01*
X222059Y488662D01*
Y488755D01*
X222069Y488847D01*
X222078Y488968D01*
X222097Y489088D01*
X222143Y489356D01*
X222207Y489652D01*
X222300Y489948D01*
X222429Y490234D01*
X222439Y490243D01*
X222448Y490271D01*
X222466Y490308D01*
X222503Y490354D01*
X222540Y490419D01*
X222586Y490493D01*
X222707Y490659D01*
X222864Y490844D01*
X223049Y491029D01*
X223261Y491214D01*
X223511Y491371D01*
X223520Y491381D01*
X223548Y491390D01*
X223585Y491408D01*
X223631Y491436D01*
X223705Y491464D01*
X223779Y491492D01*
X223872Y491529D01*
X223973Y491566D01*
X224084Y491603D01*
X224205Y491640D01*
X224463Y491695D01*
X224759Y491741D01*
X225064Y491760D01*
X225157D01*
X225222Y491750D01*
D02*
G37*
G36*
X230704Y491667D02*
X230778Y491658D01*
X230870Y491649D01*
X230972Y491630D01*
X231074Y491612D01*
X231314Y491547D01*
X231555Y491455D01*
X231675Y491399D01*
X231795Y491334D01*
X231906Y491251D01*
X232008Y491159D01*
X232017Y491149D01*
X232036Y491140D01*
X232054Y491103D01*
X232091Y491066D01*
X232137Y491020D01*
X232183Y490955D01*
X232230Y490891D01*
X232285Y490807D01*
X232378Y490632D01*
X232470Y490410D01*
X232507Y490299D01*
X232526Y490169D01*
X232544Y490040D01*
X232553Y489901D01*
Y489883D01*
Y489837D01*
X232544Y489763D01*
X232535Y489661D01*
X232516Y489550D01*
X232479Y489421D01*
X232442Y489282D01*
X232387Y489143D01*
X232378Y489125D01*
X232359Y489078D01*
X232322Y489005D01*
X232267Y488903D01*
X232193Y488792D01*
X232100Y488653D01*
X231989Y488515D01*
X231860Y488357D01*
X231841Y488339D01*
X231795Y488283D01*
X231749Y488237D01*
X231703Y488191D01*
X231647Y488135D01*
X231573Y488061D01*
X231499Y487988D01*
X231407Y487904D01*
X231314Y487812D01*
X231203Y487710D01*
X231083Y487608D01*
X230954Y487488D01*
X230806Y487368D01*
X230658Y487239D01*
X230649Y487229D01*
X230630Y487211D01*
X230593Y487183D01*
X230547Y487146D01*
X230492Y487091D01*
X230427Y487035D01*
X230279Y486915D01*
X230122Y486776D01*
X229974Y486638D01*
X229844Y486517D01*
X229789Y486471D01*
X229743Y486425D01*
X229733Y486416D01*
X229706Y486388D01*
X229669Y486351D01*
X229622Y486296D01*
X229576Y486231D01*
X229521Y486166D01*
X229410Y486009D01*
X232563D01*
Y485251D01*
X228319D01*
Y485260D01*
Y485297D01*
Y485353D01*
X228328Y485426D01*
X228337Y485510D01*
X228356Y485602D01*
X228374Y485695D01*
X228411Y485796D01*
Y485806D01*
X228420Y485815D01*
X228439Y485870D01*
X228476Y485953D01*
X228531Y486064D01*
X228605Y486194D01*
X228698Y486342D01*
X228799Y486490D01*
X228929Y486647D01*
Y486656D01*
X228947Y486665D01*
X228994Y486721D01*
X229077Y486804D01*
X229197Y486924D01*
X229336Y487063D01*
X229511Y487229D01*
X229724Y487414D01*
X229955Y487608D01*
X229965Y487618D01*
X230001Y487645D01*
X230057Y487692D01*
X230122Y487747D01*
X230205Y487821D01*
X230306Y487904D01*
X230408Y487997D01*
X230528Y488098D01*
X230760Y488320D01*
X230991Y488542D01*
X231102Y488653D01*
X231203Y488764D01*
X231296Y488866D01*
X231370Y488968D01*
Y488977D01*
X231388Y488986D01*
X231407Y489014D01*
X231425Y489051D01*
X231490Y489152D01*
X231564Y489273D01*
X231629Y489421D01*
X231693Y489578D01*
X231730Y489753D01*
X231749Y489920D01*
Y489929D01*
Y489938D01*
X231740Y489994D01*
X231730Y490086D01*
X231703Y490188D01*
X231666Y490317D01*
X231601Y490447D01*
X231518Y490576D01*
X231407Y490706D01*
X231388Y490724D01*
X231342Y490761D01*
X231277Y490807D01*
X231176Y490872D01*
X231046Y490928D01*
X230898Y490983D01*
X230723Y491020D01*
X230528Y491029D01*
X230473D01*
X230436Y491020D01*
X230325Y491011D01*
X230196Y490983D01*
X230057Y490946D01*
X229900Y490881D01*
X229752Y490798D01*
X229613Y490687D01*
X229595Y490669D01*
X229558Y490622D01*
X229502Y490549D01*
X229447Y490438D01*
X229382Y490308D01*
X229326Y490142D01*
X229289Y489957D01*
X229271Y489744D01*
X228467Y489827D01*
Y489837D01*
X228476Y489864D01*
Y489911D01*
X228485Y489975D01*
X228504Y490049D01*
X228522Y490132D01*
X228550Y490234D01*
X228578Y490336D01*
X228652Y490558D01*
X228762Y490780D01*
X228827Y490891D01*
X228911Y491002D01*
X228994Y491103D01*
X229086Y491196D01*
X229095Y491205D01*
X229114Y491214D01*
X229142Y491242D01*
X229188Y491270D01*
X229243Y491307D01*
X229308Y491344D01*
X229382Y491390D01*
X229474Y491436D01*
X229576Y491482D01*
X229687Y491529D01*
X229807Y491566D01*
X229937Y491603D01*
X230075Y491630D01*
X230223Y491658D01*
X230380Y491667D01*
X230547Y491676D01*
X230639D01*
X230704Y491667D01*
D02*
G37*
G36*
X417496Y480218D02*
X417570Y480209D01*
X417653Y480190D01*
X417745Y480172D01*
X417847Y480153D01*
X418069Y480079D01*
X418189Y480024D01*
X418300Y479968D01*
X418420Y479894D01*
X418540Y479811D01*
X418661Y479719D01*
X418772Y479608D01*
X418781Y479599D01*
X418799Y479580D01*
X418827Y479543D01*
X418864Y479497D01*
X418910Y479441D01*
X418956Y479367D01*
X419012Y479284D01*
X419058Y479183D01*
X419114Y479081D01*
X419169Y478961D01*
X419215Y478840D01*
X419262Y478702D01*
X419299Y478554D01*
X419326Y478397D01*
X419345Y478239D01*
X419354Y478064D01*
Y477980D01*
X419345Y477925D01*
X419336Y477851D01*
X419326Y477768D01*
X419308Y477675D01*
X419289Y477574D01*
X419234Y477352D01*
X419141Y477121D01*
X419086Y477001D01*
X419021Y476889D01*
X418938Y476779D01*
X418855Y476668D01*
X418846Y476658D01*
X418827Y476640D01*
X418799Y476612D01*
X418762Y476584D01*
X418716Y476538D01*
X418651Y476492D01*
X418587Y476437D01*
X418503Y476381D01*
X418411Y476326D01*
X418319Y476270D01*
X418097Y476168D01*
X417838Y476085D01*
X417699Y476057D01*
X417551Y476039D01*
X417449Y476825D01*
X417459D01*
X417477Y476834D01*
X417514Y476843D01*
X417560Y476853D01*
X417616Y476862D01*
X417681Y476880D01*
X417819Y476926D01*
X417986Y476991D01*
X418143Y477075D01*
X418291Y477167D01*
X418420Y477278D01*
X418429Y477296D01*
X418466Y477333D01*
X418513Y477407D01*
X418559Y477500D01*
X418614Y477611D01*
X418661Y477749D01*
X418698Y477907D01*
X418707Y478073D01*
Y478129D01*
X418698Y478165D01*
X418688Y478267D01*
X418661Y478397D01*
X418614Y478545D01*
X418550Y478702D01*
X418457Y478859D01*
X418328Y479007D01*
X418309Y479025D01*
X418254Y479072D01*
X418171Y479127D01*
X418060Y479201D01*
X417921Y479275D01*
X417764Y479330D01*
X417579Y479377D01*
X417375Y479395D01*
X417366D01*
X417348D01*
X417320D01*
X417283Y479386D01*
X417181Y479377D01*
X417061Y479349D01*
X416913Y479312D01*
X416765Y479247D01*
X416617Y479155D01*
X416479Y479035D01*
X416460Y479016D01*
X416423Y478970D01*
X416368Y478896D01*
X416303Y478794D01*
X416238Y478665D01*
X416183Y478507D01*
X416146Y478332D01*
X416127Y478138D01*
Y478055D01*
X416137Y477990D01*
X416146Y477907D01*
X416164Y477814D01*
X416183Y477703D01*
X416211Y477583D01*
X415517Y477675D01*
Y477722D01*
X415526Y477759D01*
Y477879D01*
X415508Y477980D01*
X415489Y478101D01*
X415462Y478239D01*
X415415Y478397D01*
X415351Y478545D01*
X415267Y478702D01*
Y478711D01*
X415258Y478720D01*
X415221Y478766D01*
X415157Y478831D01*
X415073Y478905D01*
X414953Y478979D01*
X414814Y479044D01*
X414657Y479090D01*
X414565Y479109D01*
X414463D01*
X414454D01*
X414445D01*
X414389D01*
X414315Y479090D01*
X414213Y479072D01*
X414103Y479035D01*
X413982Y478988D01*
X413862Y478914D01*
X413751Y478813D01*
X413742Y478803D01*
X413705Y478757D01*
X413659Y478692D01*
X413603Y478609D01*
X413557Y478498D01*
X413511Y478369D01*
X413474Y478221D01*
X413465Y478055D01*
Y477980D01*
X413483Y477897D01*
X413502Y477786D01*
X413539Y477666D01*
X413585Y477546D01*
X413659Y477416D01*
X413751Y477296D01*
X413760Y477287D01*
X413807Y477250D01*
X413871Y477195D01*
X413964Y477130D01*
X414084Y477065D01*
X414232Y477001D01*
X414408Y476945D01*
X414611Y476908D01*
X414472Y476122D01*
X414463D01*
X414435Y476131D01*
X414398Y476141D01*
X414343Y476150D01*
X414278Y476168D01*
X414204Y476196D01*
X414029Y476252D01*
X413825Y476344D01*
X413622Y476455D01*
X413428Y476594D01*
X413252Y476769D01*
X413243Y476779D01*
X413233Y476797D01*
X413215Y476825D01*
X413187Y476862D01*
X413150Y476908D01*
X413113Y476973D01*
X413076Y477038D01*
X413030Y477121D01*
X412956Y477306D01*
X412882Y477518D01*
X412836Y477768D01*
X412817Y477897D01*
Y478129D01*
X412827Y478230D01*
X412845Y478350D01*
X412873Y478498D01*
X412919Y478665D01*
X412975Y478831D01*
X413049Y478997D01*
Y479007D01*
X413058Y479016D01*
X413086Y479072D01*
X413141Y479155D01*
X413206Y479247D01*
X413298Y479358D01*
X413400Y479469D01*
X413520Y479580D01*
X413659Y479673D01*
X413677Y479682D01*
X413723Y479710D01*
X413807Y479746D01*
X413908Y479793D01*
X414029Y479839D01*
X414167Y479876D01*
X414324Y479904D01*
X414482Y479913D01*
X414500D01*
X414556D01*
X414630Y479904D01*
X414731Y479885D01*
X414851Y479857D01*
X414981Y479811D01*
X415110Y479756D01*
X415240Y479682D01*
X415258Y479673D01*
X415295Y479645D01*
X415360Y479589D01*
X415434Y479515D01*
X415517Y479423D01*
X415610Y479312D01*
X415693Y479183D01*
X415776Y479025D01*
Y479035D01*
X415785Y479053D01*
X415794Y479081D01*
X415804Y479118D01*
X415841Y479219D01*
X415896Y479349D01*
X415970Y479497D01*
X416063Y479645D01*
X416183Y479783D01*
X416321Y479913D01*
X416340Y479922D01*
X416395Y479959D01*
X416488Y480015D01*
X416608Y480070D01*
X416756Y480126D01*
X416932Y480181D01*
X417135Y480218D01*
X417357Y480227D01*
X417366D01*
X417394D01*
X417440D01*
X417496Y480218D01*
D02*
G37*
G36*
X416201Y475179D02*
X416275D01*
X416451Y475170D01*
X416654Y475142D01*
X416867Y475114D01*
X417089Y475068D01*
X417311Y475013D01*
X417320D01*
X417338Y475003D01*
X417366Y474994D01*
X417403Y474985D01*
X417505Y474948D01*
X417634Y474893D01*
X417782Y474837D01*
X417930Y474763D01*
X418087Y474671D01*
X418235Y474578D01*
X418254Y474569D01*
X418300Y474532D01*
X418365Y474476D01*
X418448Y474403D01*
X418540Y474319D01*
X418633Y474218D01*
X418735Y474116D01*
X418818Y473996D01*
X418827Y473977D01*
X418855Y473940D01*
X418892Y473876D01*
X418938Y473783D01*
X418993Y473672D01*
X419040Y473543D01*
X419095Y473395D01*
X419141Y473228D01*
Y473210D01*
X419151Y473182D01*
X419160Y473154D01*
X419169Y473062D01*
X419188Y472932D01*
X419206Y472785D01*
X419225Y472609D01*
X419234Y472415D01*
X419243Y472202D01*
Y469900D01*
X412845D01*
Y472359D01*
X412854Y472526D01*
X412864Y472710D01*
X412882Y472895D01*
X412910Y473080D01*
X412938Y473237D01*
Y473247D01*
X412947Y473265D01*
Y473293D01*
X412965Y473330D01*
X412993Y473432D01*
X413039Y473561D01*
X413104Y473709D01*
X413187Y473866D01*
X413280Y474023D01*
X413400Y474171D01*
X413409Y474181D01*
X413418Y474190D01*
X413446Y474218D01*
X413474Y474255D01*
X413566Y474347D01*
X413696Y474458D01*
X413853Y474578D01*
X414038Y474708D01*
X414250Y474828D01*
X414491Y474930D01*
X414500D01*
X414519Y474939D01*
X414556Y474957D01*
X414611Y474967D01*
X414676Y474994D01*
X414750Y475013D01*
X414833Y475031D01*
X414935Y475059D01*
X415036Y475087D01*
X415157Y475105D01*
X415415Y475151D01*
X415702Y475179D01*
X416016Y475188D01*
X416026D01*
X416044D01*
X416090D01*
X416137D01*
X416201Y475179D01*
D02*
G37*
G36*
X658375Y184558D02*
X658431D01*
X658579Y184530D01*
X658754Y184502D01*
X658939Y184456D01*
X659143Y184391D01*
X659337Y184299D01*
X659346D01*
X659355Y184289D01*
X659383Y184271D01*
X659420Y184252D01*
X659512Y184197D01*
X659633Y184114D01*
X659762Y184012D01*
X659892Y183892D01*
X660021Y183744D01*
X660132Y183587D01*
Y183578D01*
X660141Y183568D01*
X660160Y183541D01*
X660169Y183504D01*
X660215Y183411D01*
X660261Y183291D01*
X660317Y183134D01*
X660354Y182958D01*
X660391Y182764D01*
X660400Y182551D01*
Y182505D01*
X660391Y182459D01*
Y182385D01*
X660382Y182302D01*
X660363Y182209D01*
X660335Y182098D01*
X660308Y181987D01*
X660271Y181858D01*
X660224Y181728D01*
X660169Y181599D01*
X660095Y181460D01*
X660012Y181331D01*
X659919Y181201D01*
X659808Y181072D01*
X659679Y180952D01*
X659670Y180943D01*
X659642Y180924D01*
X659605Y180896D01*
X659540Y180859D01*
X659457Y180804D01*
X659365Y180758D01*
X659244Y180702D01*
X659115Y180647D01*
X658958Y180582D01*
X658782Y180527D01*
X658588Y180480D01*
X658375Y180434D01*
X658135Y180388D01*
X657876Y180360D01*
X657599Y180342D01*
X657303Y180332D01*
X657294D01*
X657284D01*
X657257D01*
X657220D01*
X657127Y180342D01*
X656998D01*
X656850Y180351D01*
X656674Y180369D01*
X656480Y180388D01*
X656267Y180416D01*
X656055Y180452D01*
X655824Y180499D01*
X655602Y180554D01*
X655380Y180619D01*
X655167Y180702D01*
X654964Y180795D01*
X654770Y180896D01*
X654603Y181017D01*
X654594Y181026D01*
X654575Y181044D01*
X654538Y181081D01*
X654483Y181127D01*
X654427Y181183D01*
X654372Y181257D01*
X654298Y181349D01*
X654233Y181442D01*
X654168Y181553D01*
X654095Y181673D01*
X654039Y181812D01*
X653974Y181950D01*
X653928Y182108D01*
X653891Y182274D01*
X653873Y182450D01*
X653863Y182635D01*
Y182708D01*
X653873Y182764D01*
Y182829D01*
X653882Y182903D01*
X653919Y183078D01*
X653965Y183272D01*
X654039Y183476D01*
X654150Y183679D01*
X654215Y183781D01*
X654289Y183873D01*
X654298Y183883D01*
X654307Y183892D01*
X654335Y183920D01*
X654363Y183947D01*
X654409Y183994D01*
X654464Y184031D01*
X654594Y184132D01*
X654760Y184234D01*
X654964Y184326D01*
X655195Y184410D01*
X655454Y184465D01*
X655518Y183679D01*
X655509D01*
X655500Y183670D01*
X655444Y183661D01*
X655361Y183633D01*
X655259Y183596D01*
X655149Y183559D01*
X655038Y183504D01*
X654936Y183439D01*
X654853Y183374D01*
X654834Y183356D01*
X654797Y183319D01*
X654742Y183254D01*
X654677Y183162D01*
X654622Y183041D01*
X654566Y182912D01*
X654529Y182755D01*
X654511Y182588D01*
Y182524D01*
X654520Y182450D01*
X654538Y182366D01*
X654566Y182255D01*
X654603Y182145D01*
X654649Y182034D01*
X654723Y181923D01*
X654733Y181904D01*
X654770Y181858D01*
X654834Y181793D01*
X654927Y181710D01*
X655038Y181618D01*
X655167Y181516D01*
X655333Y181423D01*
X655518Y181331D01*
X655528D01*
X655546Y181322D01*
X655574Y181312D01*
X655611Y181294D01*
X655666Y181285D01*
X655731Y181266D01*
X655805Y181248D01*
X655898Y181229D01*
X655999Y181201D01*
X656110Y181183D01*
X656230Y181164D01*
X656360Y181155D01*
X656508Y181137D01*
X656656Y181127D01*
X656822Y181118D01*
X656988D01*
X656979Y181127D01*
X656924Y181164D01*
X656850Y181229D01*
X656757Y181312D01*
X656646Y181405D01*
X656545Y181525D01*
X656443Y181654D01*
X656350Y181802D01*
Y181812D01*
X656341Y181821D01*
X656313Y181876D01*
X656286Y181960D01*
X656240Y182071D01*
X656203Y182200D01*
X656175Y182348D01*
X656147Y182505D01*
X656138Y182672D01*
Y182745D01*
X656147Y182801D01*
X656156Y182875D01*
X656166Y182949D01*
X656184Y183041D01*
X656212Y183134D01*
X656276Y183346D01*
X656323Y183457D01*
X656387Y183568D01*
X656452Y183679D01*
X656526Y183799D01*
X656619Y183910D01*
X656720Y184012D01*
X656730Y184021D01*
X656748Y184040D01*
X656776Y184068D01*
X656822Y184095D01*
X656887Y184142D01*
X656952Y184188D01*
X657035Y184234D01*
X657127Y184289D01*
X657229Y184345D01*
X657340Y184391D01*
X657469Y184437D01*
X657599Y184484D01*
X657737Y184511D01*
X657895Y184539D01*
X658052Y184558D01*
X658218Y184567D01*
X658227D01*
X658246D01*
X658274D01*
X658320D01*
X658375Y184558D01*
D02*
G37*
G36*
X658311Y179639D02*
X658366Y179620D01*
X658440Y179593D01*
X658523Y179565D01*
X658625Y179528D01*
X658736Y179482D01*
X658856Y179426D01*
X659115Y179297D01*
X659374Y179130D01*
X659503Y179029D01*
X659633Y178927D01*
X659744Y178816D01*
X659855Y178687D01*
X659864Y178677D01*
X659882Y178659D01*
X659901Y178613D01*
X659938Y178566D01*
X659984Y178493D01*
X660030Y178419D01*
X660077Y178317D01*
X660123Y178215D01*
X660178Y178095D01*
X660224Y177966D01*
X660271Y177827D01*
X660317Y177679D01*
X660354Y177522D01*
X660372Y177355D01*
X660391Y177180D01*
X660400Y176995D01*
Y176893D01*
X660391Y176819D01*
Y176736D01*
X660382Y176634D01*
X660363Y176523D01*
X660345Y176394D01*
X660298Y176126D01*
X660224Y175848D01*
X660123Y175571D01*
X660058Y175441D01*
X659984Y175312D01*
X659975Y175303D01*
X659966Y175284D01*
X659938Y175247D01*
X659901Y175210D01*
X659864Y175155D01*
X659808Y175090D01*
X659744Y175016D01*
X659670Y174942D01*
X659586Y174868D01*
X659503Y174785D01*
X659291Y174619D01*
X659041Y174461D01*
X658764Y174323D01*
X658754D01*
X658727Y174304D01*
X658680Y174295D01*
X658625Y174267D01*
X658551Y174249D01*
X658458Y174221D01*
X658357Y174184D01*
X658246Y174156D01*
X658126Y174129D01*
X657987Y174092D01*
X657700Y174045D01*
X657377Y174008D01*
X657044Y173990D01*
X657035D01*
X656998D01*
X656942D01*
X656878Y173999D01*
X656785D01*
X656693Y174008D01*
X656572Y174018D01*
X656452Y174036D01*
X656184Y174082D01*
X655888Y174147D01*
X655592Y174240D01*
X655306Y174369D01*
X655296Y174378D01*
X655269Y174387D01*
X655232Y174406D01*
X655186Y174443D01*
X655121Y174480D01*
X655047Y174526D01*
X654881Y174646D01*
X654696Y174804D01*
X654511Y174988D01*
X654326Y175201D01*
X654168Y175451D01*
X654159Y175460D01*
X654150Y175488D01*
X654132Y175525D01*
X654104Y175571D01*
X654076Y175645D01*
X654048Y175719D01*
X654011Y175811D01*
X653974Y175913D01*
X653937Y176024D01*
X653900Y176144D01*
X653845Y176403D01*
X653799Y176699D01*
X653780Y177004D01*
Y177096D01*
X653790Y177161D01*
X653799Y177244D01*
X653808Y177346D01*
X653817Y177448D01*
X653845Y177568D01*
X653900Y177818D01*
X653984Y178095D01*
X654039Y178234D01*
X654104Y178363D01*
X654187Y178493D01*
X654270Y178622D01*
X654279Y178631D01*
X654289Y178650D01*
X654316Y178687D01*
X654363Y178733D01*
X654409Y178779D01*
X654474Y178844D01*
X654548Y178909D01*
X654622Y178983D01*
X654714Y179056D01*
X654825Y179130D01*
X654936Y179214D01*
X655056Y179288D01*
X655195Y179352D01*
X655333Y179426D01*
X655481Y179482D01*
X655648Y179537D01*
X655842Y178705D01*
X655833D01*
X655814Y178696D01*
X655777Y178677D01*
X655731Y178659D01*
X655676Y178640D01*
X655602Y178613D01*
X655454Y178539D01*
X655287Y178446D01*
X655121Y178335D01*
X654964Y178197D01*
X654825Y178049D01*
X654807Y178030D01*
X654770Y177975D01*
X654723Y177882D01*
X654659Y177762D01*
X654603Y177605D01*
X654548Y177429D01*
X654511Y177217D01*
X654501Y176985D01*
Y176912D01*
X654511Y176865D01*
Y176800D01*
X654520Y176727D01*
X654548Y176551D01*
X654585Y176357D01*
X654649Y176153D01*
X654742Y175941D01*
X654862Y175746D01*
Y175737D01*
X654881Y175728D01*
X654927Y175663D01*
X655001Y175580D01*
X655112Y175478D01*
X655250Y175358D01*
X655407Y175247D01*
X655602Y175146D01*
X655814Y175053D01*
X655824D01*
X655842Y175044D01*
X655870Y175035D01*
X655916Y175025D01*
X655971Y175007D01*
X656036Y174988D01*
X656193Y174961D01*
X656378Y174924D01*
X656582Y174887D01*
X656804Y174868D01*
X657044Y174859D01*
X657053D01*
X657081D01*
X657127D01*
X657183D01*
X657247Y174868D01*
X657330D01*
X657423Y174877D01*
X657525Y174887D01*
X657747Y174914D01*
X657987Y174961D01*
X658227Y175016D01*
X658468Y175090D01*
X658477D01*
X658495Y175099D01*
X658523Y175118D01*
X658569Y175136D01*
X658680Y175192D01*
X658810Y175275D01*
X658958Y175377D01*
X659115Y175506D01*
X659254Y175654D01*
X659383Y175830D01*
Y175839D01*
X659392Y175858D01*
X659411Y175885D01*
X659429Y175922D01*
X659448Y175968D01*
X659475Y176024D01*
X659531Y176153D01*
X659586Y176320D01*
X659633Y176505D01*
X659670Y176708D01*
X659679Y176921D01*
Y176985D01*
X659670Y177041D01*
Y177106D01*
X659660Y177170D01*
X659623Y177337D01*
X659577Y177531D01*
X659503Y177725D01*
X659402Y177929D01*
X659346Y178030D01*
X659272Y178123D01*
X659263Y178132D01*
X659254Y178141D01*
X659226Y178169D01*
X659198Y178206D01*
X659152Y178243D01*
X659096Y178289D01*
X659041Y178345D01*
X658967Y178391D01*
X658884Y178446D01*
X658791Y178511D01*
X658699Y178566D01*
X658588Y178622D01*
X658468Y178668D01*
X658338Y178714D01*
X658200Y178761D01*
X658052Y178798D01*
X658264Y179648D01*
X658274D01*
X658311Y179639D01*
D02*
G37*
G36*
X222881Y633991D02*
X222964Y633981D01*
X223066Y633972D01*
X223168Y633963D01*
X223288Y633935D01*
X223538Y633880D01*
X223815Y633796D01*
X223954Y633741D01*
X224083Y633676D01*
X224212Y633593D01*
X224342Y633510D01*
X224351Y633501D01*
X224370Y633491D01*
X224407Y633464D01*
X224453Y633417D01*
X224499Y633371D01*
X224564Y633306D01*
X224629Y633232D01*
X224702Y633158D01*
X224776Y633066D01*
X224850Y632955D01*
X224934Y632844D01*
X225008Y632724D01*
X225072Y632585D01*
X225146Y632447D01*
X225202Y632299D01*
X225257Y632132D01*
X224425Y631938D01*
Y631947D01*
X224416Y631966D01*
X224397Y632003D01*
X224379Y632049D01*
X224360Y632104D01*
X224333Y632178D01*
X224259Y632326D01*
X224166Y632493D01*
X224055Y632659D01*
X223917Y632816D01*
X223769Y632955D01*
X223750Y632974D01*
X223695Y633010D01*
X223602Y633057D01*
X223482Y633121D01*
X223325Y633177D01*
X223149Y633232D01*
X222937Y633269D01*
X222705Y633279D01*
X222631D01*
X222585Y633269D01*
X222521D01*
X222447Y633260D01*
X222271Y633232D01*
X222077Y633195D01*
X221873Y633131D01*
X221661Y633038D01*
X221467Y632918D01*
X221457D01*
X221448Y632900D01*
X221383Y632853D01*
X221300Y632779D01*
X221198Y632668D01*
X221078Y632530D01*
X220967Y632373D01*
X220866Y632178D01*
X220773Y631966D01*
Y631956D01*
X220764Y631938D01*
X220755Y631910D01*
X220745Y631864D01*
X220727Y631809D01*
X220708Y631744D01*
X220681Y631587D01*
X220644Y631402D01*
X220607Y631198D01*
X220588Y630976D01*
X220579Y630736D01*
Y630727D01*
Y630699D01*
Y630653D01*
Y630597D01*
X220588Y630533D01*
Y630449D01*
X220597Y630357D01*
X220607Y630255D01*
X220634Y630033D01*
X220681Y629793D01*
X220736Y629553D01*
X220810Y629312D01*
Y629303D01*
X220819Y629285D01*
X220838Y629257D01*
X220856Y629211D01*
X220912Y629100D01*
X220995Y628970D01*
X221097Y628822D01*
X221226Y628665D01*
X221374Y628526D01*
X221550Y628397D01*
X221559D01*
X221577Y628388D01*
X221605Y628369D01*
X221642Y628351D01*
X221688Y628332D01*
X221744Y628304D01*
X221873Y628249D01*
X222040Y628194D01*
X222225Y628147D01*
X222428Y628110D01*
X222641Y628101D01*
X222705D01*
X222761Y628110D01*
X222826D01*
X222890Y628120D01*
X223057Y628157D01*
X223251Y628203D01*
X223445Y628277D01*
X223648Y628378D01*
X223750Y628434D01*
X223843Y628508D01*
X223852Y628517D01*
X223861Y628526D01*
X223889Y628554D01*
X223926Y628582D01*
X223963Y628628D01*
X224009Y628684D01*
X224065Y628739D01*
X224111Y628813D01*
X224166Y628896D01*
X224231Y628989D01*
X224286Y629081D01*
X224342Y629192D01*
X224388Y629312D01*
X224434Y629442D01*
X224481Y629580D01*
X224518Y629728D01*
X225368Y629516D01*
Y629506D01*
X225359Y629469D01*
X225340Y629414D01*
X225313Y629340D01*
X225285Y629257D01*
X225248Y629155D01*
X225202Y629044D01*
X225146Y628924D01*
X225017Y628665D01*
X224850Y628406D01*
X224749Y628277D01*
X224647Y628147D01*
X224536Y628036D01*
X224407Y627925D01*
X224397Y627916D01*
X224379Y627898D01*
X224333Y627879D01*
X224286Y627842D01*
X224212Y627796D01*
X224139Y627750D01*
X224037Y627704D01*
X223935Y627657D01*
X223815Y627602D01*
X223685Y627556D01*
X223547Y627509D01*
X223399Y627463D01*
X223242Y627426D01*
X223075Y627408D01*
X222900Y627389D01*
X222715Y627380D01*
X222613D01*
X222539Y627389D01*
X222456D01*
X222354Y627398D01*
X222243Y627417D01*
X222114Y627435D01*
X221846Y627482D01*
X221568Y627556D01*
X221291Y627657D01*
X221161Y627722D01*
X221032Y627796D01*
X221023Y627805D01*
X221004Y627814D01*
X220967Y627842D01*
X220930Y627879D01*
X220875Y627916D01*
X220810Y627972D01*
X220736Y628036D01*
X220662Y628110D01*
X220588Y628194D01*
X220505Y628277D01*
X220339Y628489D01*
X220181Y628739D01*
X220043Y629016D01*
Y629026D01*
X220024Y629053D01*
X220015Y629100D01*
X219987Y629155D01*
X219969Y629229D01*
X219941Y629321D01*
X219904Y629423D01*
X219876Y629534D01*
X219849Y629654D01*
X219812Y629793D01*
X219765Y630080D01*
X219728Y630403D01*
X219710Y630736D01*
Y630745D01*
Y630782D01*
Y630838D01*
X219719Y630902D01*
Y630995D01*
X219728Y631087D01*
X219738Y631208D01*
X219756Y631328D01*
X219802Y631596D01*
X219867Y631892D01*
X219960Y632188D01*
X220089Y632474D01*
X220098Y632483D01*
X220107Y632511D01*
X220126Y632548D01*
X220163Y632594D01*
X220200Y632659D01*
X220246Y632733D01*
X220366Y632900D01*
X220523Y633084D01*
X220708Y633269D01*
X220921Y633454D01*
X221171Y633611D01*
X221180Y633621D01*
X221208Y633630D01*
X221245Y633648D01*
X221291Y633676D01*
X221365Y633704D01*
X221439Y633732D01*
X221531Y633769D01*
X221633Y633806D01*
X221744Y633843D01*
X221864Y633880D01*
X222123Y633935D01*
X222419Y633981D01*
X222724Y634000D01*
X222816D01*
X222881Y633991D01*
D02*
G37*
G36*
X235002Y633057D02*
X232441D01*
X232099Y631328D01*
X232108Y631337D01*
X232127Y631346D01*
X232155Y631365D01*
X232201Y631393D01*
X232256Y631420D01*
X232321Y631457D01*
X232469Y631531D01*
X232654Y631605D01*
X232857Y631670D01*
X233079Y631716D01*
X233190Y631735D01*
X233393D01*
X233449Y631725D01*
X233523Y631716D01*
X233606Y631707D01*
X233699Y631688D01*
X233800Y631661D01*
X234022Y631596D01*
X234142Y631550D01*
X234262Y631485D01*
X234383Y631420D01*
X234503Y631346D01*
X234614Y631254D01*
X234725Y631152D01*
X234734Y631143D01*
X234753Y631124D01*
X234780Y631097D01*
X234817Y631050D01*
X234863Y630986D01*
X234910Y630921D01*
X234965Y630838D01*
X235021Y630745D01*
X235067Y630644D01*
X235122Y630533D01*
X235168Y630403D01*
X235215Y630274D01*
X235252Y630135D01*
X235280Y629978D01*
X235298Y629821D01*
X235307Y629654D01*
Y629645D01*
Y629617D01*
Y629571D01*
X235298Y629506D01*
X235289Y629432D01*
X235280Y629349D01*
X235261Y629248D01*
X235243Y629146D01*
X235187Y628905D01*
X235095Y628656D01*
X235039Y628526D01*
X234965Y628406D01*
X234891Y628277D01*
X234799Y628157D01*
X234789Y628147D01*
X234771Y628120D01*
X234734Y628083D01*
X234688Y628036D01*
X234623Y627981D01*
X234549Y627907D01*
X234457Y627842D01*
X234355Y627768D01*
X234244Y627694D01*
X234114Y627630D01*
X233976Y627565D01*
X233828Y627500D01*
X233671Y627454D01*
X233495Y627417D01*
X233310Y627389D01*
X233116Y627380D01*
X233033D01*
X232968Y627389D01*
X232894Y627398D01*
X232811Y627408D01*
X232709Y627417D01*
X232607Y627445D01*
X232376Y627500D01*
X232145Y627583D01*
X232025Y627639D01*
X231905Y627704D01*
X231794Y627777D01*
X231683Y627861D01*
X231674Y627870D01*
X231655Y627879D01*
X231637Y627916D01*
X231600Y627953D01*
X231553Y627999D01*
X231507Y628055D01*
X231452Y628129D01*
X231406Y628212D01*
X231350Y628295D01*
X231295Y628397D01*
X231193Y628619D01*
X231110Y628878D01*
X231082Y629016D01*
X231063Y629164D01*
X231886Y629229D01*
Y629220D01*
Y629201D01*
X231896Y629174D01*
X231905Y629127D01*
X231933Y629026D01*
X231970Y628887D01*
X232025Y628748D01*
X232099Y628591D01*
X232191Y628452D01*
X232302Y628323D01*
X232321Y628314D01*
X232358Y628277D01*
X232432Y628231D01*
X232533Y628175D01*
X232645Y628120D01*
X232783Y628073D01*
X232940Y628036D01*
X233116Y628027D01*
X233172D01*
X233208Y628036D01*
X233319Y628046D01*
X233449Y628083D01*
X233606Y628129D01*
X233763Y628203D01*
X233930Y628314D01*
X234004Y628378D01*
X234077Y628452D01*
X234087Y628462D01*
X234096Y628471D01*
X234114Y628499D01*
X234142Y628526D01*
X234207Y628628D01*
X234281Y628758D01*
X234346Y628915D01*
X234410Y629109D01*
X234457Y629340D01*
X234475Y629460D01*
Y629590D01*
Y629599D01*
Y629617D01*
Y629654D01*
X234466Y629701D01*
Y629756D01*
X234457Y629821D01*
X234429Y629969D01*
X234383Y630144D01*
X234318Y630320D01*
X234226Y630486D01*
X234096Y630644D01*
Y630653D01*
X234077Y630662D01*
X234031Y630708D01*
X233948Y630773D01*
X233837Y630847D01*
X233689Y630912D01*
X233523Y630976D01*
X233329Y631023D01*
X233218Y631041D01*
X233042D01*
X232968Y631032D01*
X232876Y631023D01*
X232765Y630995D01*
X232654Y630967D01*
X232533Y630921D01*
X232413Y630866D01*
X232404Y630856D01*
X232367Y630838D01*
X232312Y630792D01*
X232238Y630745D01*
X232164Y630681D01*
X232090Y630597D01*
X232006Y630514D01*
X231942Y630412D01*
X231202Y630514D01*
X231822Y633806D01*
X235002D01*
Y633057D01*
D02*
G37*
G36*
X229048Y627491D02*
X228262D01*
Y632493D01*
X228253Y632483D01*
X228207Y632447D01*
X228151Y632391D01*
X228059Y632326D01*
X227957Y632243D01*
X227827Y632151D01*
X227680Y632049D01*
X227513Y631947D01*
X227504D01*
X227495Y631938D01*
X227439Y631901D01*
X227347Y631855D01*
X227236Y631799D01*
X227106Y631735D01*
X226968Y631670D01*
X226829Y631605D01*
X226690Y631550D01*
Y632308D01*
X226700D01*
X226718Y632326D01*
X226755Y632336D01*
X226801Y632363D01*
X226857Y632391D01*
X226921Y632428D01*
X227079Y632520D01*
X227264Y632622D01*
X227448Y632752D01*
X227643Y632900D01*
X227837Y633057D01*
X227846Y633066D01*
X227855Y633075D01*
X227883Y633103D01*
X227920Y633131D01*
X228003Y633223D01*
X228114Y633334D01*
X228225Y633464D01*
X228345Y633611D01*
X228447Y633759D01*
X228539Y633917D01*
X229048D01*
Y627491D01*
D02*
G37*
G36*
X287491Y59950D02*
X287574Y59941D01*
X287676Y59932D01*
X287778Y59923D01*
X287898Y59895D01*
X288148Y59840D01*
X288425Y59756D01*
X288564Y59701D01*
X288693Y59636D01*
X288822Y59553D01*
X288952Y59470D01*
X288961Y59461D01*
X288980Y59451D01*
X289017Y59423D01*
X289063Y59377D01*
X289109Y59331D01*
X289174Y59266D01*
X289238Y59192D01*
X289312Y59118D01*
X289386Y59026D01*
X289460Y58915D01*
X289544Y58804D01*
X289618Y58684D01*
X289682Y58545D01*
X289756Y58407D01*
X289812Y58259D01*
X289867Y58092D01*
X289035Y57898D01*
Y57907D01*
X289026Y57926D01*
X289007Y57963D01*
X288989Y58009D01*
X288970Y58064D01*
X288943Y58138D01*
X288869Y58286D01*
X288776Y58453D01*
X288665Y58619D01*
X288527Y58776D01*
X288379Y58915D01*
X288360Y58934D01*
X288305Y58970D01*
X288212Y59017D01*
X288092Y59081D01*
X287935Y59137D01*
X287759Y59192D01*
X287547Y59229D01*
X287315Y59239D01*
X287241D01*
X287195Y59229D01*
X287131D01*
X287057Y59220D01*
X286881Y59192D01*
X286687Y59155D01*
X286483Y59091D01*
X286271Y58998D01*
X286077Y58878D01*
X286067D01*
X286058Y58860D01*
X285993Y58813D01*
X285910Y58739D01*
X285808Y58628D01*
X285688Y58490D01*
X285577Y58333D01*
X285476Y58138D01*
X285383Y57926D01*
Y57916D01*
X285374Y57898D01*
X285365Y57870D01*
X285355Y57824D01*
X285337Y57769D01*
X285318Y57704D01*
X285291Y57547D01*
X285254Y57362D01*
X285217Y57158D01*
X285198Y56936D01*
X285189Y56696D01*
Y56687D01*
Y56659D01*
Y56613D01*
Y56557D01*
X285198Y56493D01*
Y56409D01*
X285207Y56317D01*
X285217Y56215D01*
X285244Y55993D01*
X285291Y55753D01*
X285346Y55513D01*
X285420Y55272D01*
Y55263D01*
X285429Y55244D01*
X285448Y55217D01*
X285466Y55170D01*
X285522Y55060D01*
X285605Y54930D01*
X285707Y54782D01*
X285836Y54625D01*
X285984Y54486D01*
X286160Y54357D01*
X286169D01*
X286187Y54348D01*
X286215Y54329D01*
X286252Y54311D01*
X286298Y54292D01*
X286354Y54264D01*
X286483Y54209D01*
X286650Y54153D01*
X286835Y54107D01*
X287038Y54070D01*
X287251Y54061D01*
X287315D01*
X287371Y54070D01*
X287436D01*
X287500Y54079D01*
X287667Y54117D01*
X287861Y54163D01*
X288055Y54237D01*
X288258Y54338D01*
X288360Y54394D01*
X288453Y54468D01*
X288462Y54477D01*
X288471Y54486D01*
X288499Y54514D01*
X288536Y54542D01*
X288573Y54588D01*
X288619Y54644D01*
X288675Y54699D01*
X288721Y54773D01*
X288776Y54856D01*
X288841Y54949D01*
X288896Y55041D01*
X288952Y55152D01*
X288998Y55272D01*
X289044Y55402D01*
X289091Y55540D01*
X289128Y55688D01*
X289978Y55476D01*
Y55466D01*
X289969Y55429D01*
X289950Y55374D01*
X289923Y55300D01*
X289895Y55217D01*
X289858Y55115D01*
X289812Y55004D01*
X289756Y54884D01*
X289627Y54625D01*
X289460Y54366D01*
X289359Y54237D01*
X289257Y54107D01*
X289146Y53996D01*
X289017Y53885D01*
X289007Y53876D01*
X288989Y53858D01*
X288943Y53839D01*
X288896Y53802D01*
X288822Y53756D01*
X288748Y53710D01*
X288647Y53664D01*
X288545Y53617D01*
X288425Y53562D01*
X288295Y53516D01*
X288157Y53469D01*
X288009Y53423D01*
X287852Y53386D01*
X287685Y53368D01*
X287510Y53349D01*
X287325Y53340D01*
X287223D01*
X287149Y53349D01*
X287066D01*
X286964Y53358D01*
X286853Y53377D01*
X286724Y53395D01*
X286456Y53442D01*
X286178Y53516D01*
X285901Y53617D01*
X285771Y53682D01*
X285642Y53756D01*
X285633Y53765D01*
X285614Y53774D01*
X285577Y53802D01*
X285540Y53839D01*
X285485Y53876D01*
X285420Y53932D01*
X285346Y53996D01*
X285272Y54070D01*
X285198Y54153D01*
X285115Y54237D01*
X284949Y54449D01*
X284791Y54699D01*
X284653Y54976D01*
Y54986D01*
X284634Y55013D01*
X284625Y55060D01*
X284597Y55115D01*
X284579Y55189D01*
X284551Y55281D01*
X284514Y55383D01*
X284486Y55494D01*
X284459Y55614D01*
X284422Y55753D01*
X284375Y56040D01*
X284338Y56363D01*
X284320Y56696D01*
Y56705D01*
Y56742D01*
Y56798D01*
X284329Y56862D01*
Y56955D01*
X284338Y57047D01*
X284348Y57168D01*
X284366Y57288D01*
X284412Y57556D01*
X284477Y57852D01*
X284569Y58148D01*
X284699Y58434D01*
X284708Y58443D01*
X284717Y58471D01*
X284736Y58508D01*
X284773Y58554D01*
X284810Y58619D01*
X284856Y58693D01*
X284976Y58860D01*
X285133Y59044D01*
X285318Y59229D01*
X285531Y59414D01*
X285781Y59571D01*
X285790Y59581D01*
X285818Y59590D01*
X285855Y59608D01*
X285901Y59636D01*
X285975Y59664D01*
X286049Y59692D01*
X286141Y59729D01*
X286243Y59766D01*
X286354Y59802D01*
X286474Y59840D01*
X286733Y59895D01*
X287029Y59941D01*
X287334Y59960D01*
X287426D01*
X287491Y59950D01*
D02*
G37*
G36*
X292900Y59867D02*
X293020Y59849D01*
X293168Y59821D01*
X293334Y59775D01*
X293501Y59719D01*
X293667Y59645D01*
X293676D01*
X293686Y59636D01*
X293741Y59608D01*
X293824Y59553D01*
X293917Y59488D01*
X294028Y59396D01*
X294139Y59294D01*
X294250Y59174D01*
X294342Y59035D01*
X294351Y59017D01*
X294379Y58970D01*
X294416Y58887D01*
X294462Y58786D01*
X294508Y58665D01*
X294545Y58527D01*
X294573Y58369D01*
X294583Y58212D01*
Y58194D01*
Y58138D01*
X294573Y58064D01*
X294555Y57963D01*
X294527Y57842D01*
X294481Y57713D01*
X294425Y57584D01*
X294351Y57454D01*
X294342Y57436D01*
X294314Y57399D01*
X294259Y57334D01*
X294185Y57260D01*
X294093Y57177D01*
X293981Y57084D01*
X293852Y57001D01*
X293695Y56918D01*
X293704D01*
X293723Y56909D01*
X293750Y56899D01*
X293787Y56890D01*
X293889Y56853D01*
X294018Y56798D01*
X294166Y56724D01*
X294314Y56631D01*
X294453Y56511D01*
X294583Y56372D01*
X294592Y56354D01*
X294629Y56298D01*
X294684Y56206D01*
X294740Y56086D01*
X294795Y55938D01*
X294851Y55762D01*
X294888Y55559D01*
X294897Y55337D01*
Y55328D01*
Y55300D01*
Y55254D01*
X294888Y55198D01*
X294878Y55124D01*
X294860Y55041D01*
X294841Y54949D01*
X294823Y54847D01*
X294749Y54625D01*
X294693Y54505D01*
X294638Y54394D01*
X294564Y54274D01*
X294481Y54153D01*
X294388Y54033D01*
X294277Y53922D01*
X294268Y53913D01*
X294250Y53895D01*
X294213Y53867D01*
X294166Y53830D01*
X294111Y53784D01*
X294037Y53737D01*
X293954Y53682D01*
X293852Y53636D01*
X293750Y53580D01*
X293630Y53525D01*
X293510Y53479D01*
X293371Y53432D01*
X293223Y53395D01*
X293066Y53368D01*
X292909Y53349D01*
X292733Y53340D01*
X292650D01*
X292595Y53349D01*
X292521Y53358D01*
X292437Y53368D01*
X292345Y53386D01*
X292243Y53405D01*
X292021Y53460D01*
X291790Y53552D01*
X291670Y53608D01*
X291559Y53673D01*
X291448Y53756D01*
X291337Y53839D01*
X291328Y53848D01*
X291310Y53867D01*
X291282Y53895D01*
X291254Y53932D01*
X291208Y53978D01*
X291162Y54043D01*
X291106Y54107D01*
X291051Y54191D01*
X290995Y54283D01*
X290940Y54375D01*
X290838Y54597D01*
X290755Y54856D01*
X290727Y54995D01*
X290709Y55143D01*
X291494Y55244D01*
Y55235D01*
X291504Y55217D01*
X291513Y55180D01*
X291522Y55134D01*
X291531Y55078D01*
X291550Y55013D01*
X291596Y54875D01*
X291661Y54708D01*
X291744Y54551D01*
X291836Y54403D01*
X291947Y54274D01*
X291966Y54264D01*
X292003Y54227D01*
X292077Y54181D01*
X292169Y54135D01*
X292280Y54079D01*
X292419Y54033D01*
X292576Y53996D01*
X292743Y53987D01*
X292798D01*
X292835Y53996D01*
X292937Y54006D01*
X293066Y54033D01*
X293214Y54079D01*
X293371Y54144D01*
X293528Y54237D01*
X293676Y54366D01*
X293695Y54385D01*
X293741Y54440D01*
X293797Y54523D01*
X293871Y54634D01*
X293944Y54773D01*
X294000Y54930D01*
X294046Y55115D01*
X294065Y55318D01*
Y55328D01*
Y55346D01*
Y55374D01*
X294056Y55411D01*
X294046Y55513D01*
X294018Y55633D01*
X293981Y55781D01*
X293917Y55929D01*
X293824Y56077D01*
X293704Y56215D01*
X293686Y56234D01*
X293639Y56271D01*
X293566Y56326D01*
X293464Y56391D01*
X293334Y56456D01*
X293177Y56511D01*
X293001Y56548D01*
X292807Y56567D01*
X292724D01*
X292659Y56557D01*
X292576Y56548D01*
X292484Y56530D01*
X292373Y56511D01*
X292253Y56483D01*
X292345Y57177D01*
X292391D01*
X292428Y57168D01*
X292548D01*
X292650Y57186D01*
X292770Y57204D01*
X292909Y57232D01*
X293066Y57278D01*
X293214Y57343D01*
X293371Y57426D01*
X293381D01*
X293390Y57436D01*
X293436Y57473D01*
X293501Y57537D01*
X293575Y57621D01*
X293649Y57741D01*
X293713Y57880D01*
X293760Y58037D01*
X293778Y58129D01*
Y58231D01*
Y58240D01*
Y58249D01*
Y58305D01*
X293760Y58379D01*
X293741Y58480D01*
X293704Y58591D01*
X293658Y58712D01*
X293584Y58832D01*
X293482Y58943D01*
X293473Y58952D01*
X293427Y58989D01*
X293362Y59035D01*
X293279Y59091D01*
X293168Y59137D01*
X293039Y59183D01*
X292890Y59220D01*
X292724Y59229D01*
X292650D01*
X292567Y59211D01*
X292456Y59192D01*
X292336Y59155D01*
X292216Y59109D01*
X292086Y59035D01*
X291966Y58943D01*
X291957Y58934D01*
X291920Y58887D01*
X291864Y58822D01*
X291800Y58730D01*
X291735Y58610D01*
X291670Y58462D01*
X291615Y58286D01*
X291578Y58083D01*
X290792Y58222D01*
Y58231D01*
X290801Y58259D01*
X290810Y58295D01*
X290819Y58351D01*
X290838Y58416D01*
X290866Y58490D01*
X290921Y58665D01*
X291014Y58869D01*
X291125Y59072D01*
X291263Y59266D01*
X291439Y59442D01*
X291448Y59451D01*
X291467Y59461D01*
X291494Y59479D01*
X291531Y59507D01*
X291578Y59544D01*
X291642Y59581D01*
X291707Y59618D01*
X291790Y59664D01*
X291975Y59738D01*
X292188Y59812D01*
X292437Y59858D01*
X292567Y59876D01*
X292798D01*
X292900Y59867D01*
D02*
G37*
G36*
X641398Y482681D02*
X641389Y482514D01*
X641379Y482329D01*
X641361Y482145D01*
X641333Y481960D01*
X641305Y481802D01*
Y481793D01*
X641296Y481775D01*
Y481747D01*
X641278Y481710D01*
X641250Y481608D01*
X641204Y481479D01*
X641139Y481331D01*
X641056Y481174D01*
X640963Y481017D01*
X640843Y480869D01*
X640834Y480859D01*
X640825Y480850D01*
X640797Y480822D01*
X640769Y480785D01*
X640677Y480693D01*
X640547Y480582D01*
X640390Y480462D01*
X640205Y480332D01*
X639992Y480212D01*
X639752Y480111D01*
X639743D01*
X639724Y480101D01*
X639687Y480083D01*
X639632Y480074D01*
X639567Y480046D01*
X639493Y480027D01*
X639410Y480009D01*
X639308Y479981D01*
X639207Y479953D01*
X639086Y479935D01*
X638828Y479889D01*
X638541Y479861D01*
X638227Y479852D01*
X638217D01*
X638199D01*
X638153D01*
X638106D01*
X638042Y479861D01*
X637968D01*
X637792Y479870D01*
X637589Y479898D01*
X637376Y479926D01*
X637154Y479972D01*
X636932Y480027D01*
X636923D01*
X636904Y480037D01*
X636877Y480046D01*
X636840Y480055D01*
X636738Y480092D01*
X636609Y480148D01*
X636461Y480203D01*
X636313Y480277D01*
X636156Y480369D01*
X636008Y480462D01*
X635989Y480471D01*
X635943Y480508D01*
X635878Y480564D01*
X635795Y480638D01*
X635703Y480721D01*
X635610Y480822D01*
X635508Y480924D01*
X635425Y481044D01*
X635416Y481063D01*
X635388Y481100D01*
X635351Y481165D01*
X635305Y481257D01*
X635249Y481368D01*
X635203Y481497D01*
X635148Y481645D01*
X635102Y481812D01*
Y481830D01*
X635092Y481858D01*
X635083Y481886D01*
X635074Y481978D01*
X635055Y482108D01*
X635037Y482255D01*
X635018Y482431D01*
X635009Y482625D01*
X635000Y482838D01*
Y485140D01*
X641398D01*
Y482681D01*
D02*
G37*
G36*
Y476348D02*
Y475710D01*
X637256D01*
Y474841D01*
X636535D01*
Y475710D01*
X635000D01*
Y476495D01*
X636535D01*
Y479278D01*
X637256D01*
X641398Y476348D01*
D02*
G37*
G36*
X569374Y494234D02*
X569448Y494225D01*
X569531Y494216D01*
X569632Y494197D01*
X569734Y494179D01*
X569975Y494123D01*
X570224Y494031D01*
X570354Y493975D01*
X570474Y493901D01*
X570603Y493827D01*
X570723Y493735D01*
X570733Y493726D01*
X570760Y493707D01*
X570797Y493670D01*
X570844Y493624D01*
X570899Y493559D01*
X570973Y493485D01*
X571038Y493393D01*
X571112Y493291D01*
X571186Y493180D01*
X571250Y493051D01*
X571315Y492912D01*
X571380Y492764D01*
X571426Y492607D01*
X571463Y492431D01*
X571491Y492246D01*
X571500Y492052D01*
Y491969D01*
X571491Y491904D01*
X571482Y491830D01*
X571472Y491747D01*
X571463Y491645D01*
X571435Y491544D01*
X571380Y491313D01*
X571297Y491081D01*
X571241Y490961D01*
X571176Y490841D01*
X571102Y490730D01*
X571019Y490619D01*
X571010Y490610D01*
X571001Y490591D01*
X570964Y490573D01*
X570927Y490536D01*
X570881Y490490D01*
X570825Y490443D01*
X570751Y490388D01*
X570668Y490342D01*
X570585Y490286D01*
X570483Y490231D01*
X570261Y490129D01*
X570002Y490046D01*
X569864Y490018D01*
X569716Y490000D01*
X569651Y490823D01*
X569660D01*
X569679D01*
X569706Y490832D01*
X569753Y490841D01*
X569854Y490869D01*
X569993Y490906D01*
X570132Y490961D01*
X570289Y491035D01*
X570428Y491128D01*
X570557Y491239D01*
X570566Y491257D01*
X570603Y491294D01*
X570649Y491368D01*
X570705Y491470D01*
X570760Y491581D01*
X570807Y491719D01*
X570844Y491877D01*
X570853Y492052D01*
Y492108D01*
X570844Y492145D01*
X570834Y492256D01*
X570797Y492385D01*
X570751Y492542D01*
X570677Y492699D01*
X570566Y492866D01*
X570502Y492940D01*
X570428Y493014D01*
X570418Y493023D01*
X570409Y493032D01*
X570381Y493051D01*
X570354Y493078D01*
X570252Y493143D01*
X570122Y493217D01*
X569965Y493282D01*
X569771Y493347D01*
X569540Y493393D01*
X569420Y493411D01*
X569290D01*
X569281D01*
X569263D01*
X569226D01*
X569179Y493402D01*
X569124D01*
X569059Y493393D01*
X568911Y493365D01*
X568736Y493319D01*
X568560Y493254D01*
X568394Y493162D01*
X568236Y493032D01*
X568227D01*
X568218Y493014D01*
X568172Y492967D01*
X568107Y492884D01*
X568033Y492773D01*
X567968Y492626D01*
X567904Y492459D01*
X567857Y492265D01*
X567839Y492154D01*
Y491978D01*
X567848Y491904D01*
X567857Y491812D01*
X567885Y491701D01*
X567913Y491590D01*
X567959Y491470D01*
X568014Y491350D01*
X568024Y491340D01*
X568042Y491303D01*
X568088Y491248D01*
X568135Y491174D01*
X568199Y491100D01*
X568283Y491026D01*
X568366Y490943D01*
X568467Y490878D01*
X568366Y490138D01*
X565074Y490758D01*
Y493938D01*
X565823D01*
Y491377D01*
X567552Y491035D01*
X567543Y491045D01*
X567534Y491063D01*
X567515Y491091D01*
X567487Y491137D01*
X567460Y491192D01*
X567423Y491257D01*
X567349Y491405D01*
X567275Y491590D01*
X567210Y491793D01*
X567164Y492015D01*
X567145Y492126D01*
Y492330D01*
X567155Y492385D01*
X567164Y492459D01*
X567173Y492542D01*
X567192Y492635D01*
X567219Y492736D01*
X567284Y492958D01*
X567330Y493078D01*
X567395Y493199D01*
X567460Y493319D01*
X567534Y493439D01*
X567626Y493550D01*
X567728Y493661D01*
X567737Y493670D01*
X567756Y493689D01*
X567783Y493716D01*
X567830Y493753D01*
X567894Y493800D01*
X567959Y493846D01*
X568042Y493901D01*
X568135Y493957D01*
X568236Y494003D01*
X568347Y494058D01*
X568477Y494105D01*
X568606Y494151D01*
X568745Y494188D01*
X568902Y494216D01*
X569059Y494234D01*
X569226Y494243D01*
X569235D01*
X569263D01*
X569309D01*
X569374Y494234D01*
D02*
G37*
G36*
X568347Y489149D02*
X568421D01*
X568597Y489140D01*
X568800Y489112D01*
X569013Y489084D01*
X569235Y489038D01*
X569457Y488983D01*
X569466D01*
X569484Y488973D01*
X569512Y488964D01*
X569549Y488955D01*
X569651Y488918D01*
X569780Y488862D01*
X569928Y488807D01*
X570076Y488733D01*
X570233Y488641D01*
X570381Y488548D01*
X570400Y488539D01*
X570446Y488502D01*
X570511Y488446D01*
X570594Y488372D01*
X570686Y488289D01*
X570779Y488188D01*
X570881Y488086D01*
X570964Y487966D01*
X570973Y487947D01*
X571001Y487910D01*
X571038Y487845D01*
X571084Y487753D01*
X571139Y487642D01*
X571186Y487513D01*
X571241Y487365D01*
X571287Y487198D01*
Y487180D01*
X571297Y487152D01*
X571306Y487124D01*
X571315Y487032D01*
X571334Y486902D01*
X571352Y486754D01*
X571371Y486579D01*
X571380Y486385D01*
X571389Y486172D01*
Y483870D01*
X564991D01*
Y486329D01*
X565000Y486496D01*
X565010Y486680D01*
X565028Y486865D01*
X565056Y487050D01*
X565084Y487207D01*
Y487217D01*
X565093Y487235D01*
Y487263D01*
X565111Y487300D01*
X565139Y487402D01*
X565185Y487531D01*
X565250Y487679D01*
X565333Y487836D01*
X565426Y487993D01*
X565546Y488141D01*
X565555Y488151D01*
X565564Y488160D01*
X565592Y488188D01*
X565620Y488225D01*
X565712Y488317D01*
X565842Y488428D01*
X565999Y488548D01*
X566184Y488678D01*
X566396Y488798D01*
X566637Y488899D01*
X566646D01*
X566665Y488909D01*
X566702Y488927D01*
X566757Y488937D01*
X566822Y488964D01*
X566896Y488983D01*
X566979Y489001D01*
X567081Y489029D01*
X567182Y489057D01*
X567303Y489075D01*
X567561Y489121D01*
X567848Y489149D01*
X568162Y489158D01*
X568172D01*
X568190D01*
X568236D01*
X568283D01*
X568347Y489149D01*
D02*
G37*
G36*
X77907Y618062D02*
X77898Y617988D01*
Y617905D01*
X77888Y617711D01*
X77861Y617508D01*
X77833Y617286D01*
X77787Y617082D01*
X77759Y616981D01*
X77731Y616897D01*
Y616888D01*
X77722Y616879D01*
X77694Y616823D01*
X77657Y616740D01*
X77593Y616638D01*
X77509Y616527D01*
X77398Y616407D01*
X77269Y616296D01*
X77121Y616185D01*
X77112D01*
X77103Y616176D01*
X77047Y616139D01*
X76955Y616102D01*
X76835Y616047D01*
X76696Y616001D01*
X76529Y615954D01*
X76354Y615927D01*
X76160Y615917D01*
X76150D01*
X76132D01*
X76095D01*
X76049Y615927D01*
X75984D01*
X75919Y615936D01*
X75762Y615973D01*
X75577Y616028D01*
X75383Y616102D01*
X75189Y616213D01*
X75096Y616287D01*
X75004Y616361D01*
X74995Y616370D01*
X74985Y616380D01*
X74958Y616407D01*
X74930Y616444D01*
X74893Y616491D01*
X74856Y616546D01*
X74810Y616620D01*
X74754Y616694D01*
X74708Y616786D01*
X74662Y616888D01*
X74606Y616999D01*
X74560Y617119D01*
X74523Y617258D01*
X74477Y617397D01*
X74449Y617554D01*
X74421Y617720D01*
X74412Y617702D01*
X74394Y617665D01*
X74357Y617609D01*
X74320Y617535D01*
X74218Y617369D01*
X74153Y617286D01*
X74098Y617212D01*
X74079Y617193D01*
X74033Y617147D01*
X73959Y617073D01*
X73867Y616981D01*
X73737Y616879D01*
X73598Y616759D01*
X73432Y616638D01*
X73247Y616509D01*
X71509Y615409D01*
Y616463D01*
X72840Y617304D01*
X72850D01*
X72868Y617323D01*
X72896Y617341D01*
X72933Y617369D01*
X73035Y617434D01*
X73164Y617517D01*
X73303Y617618D01*
X73451Y617720D01*
X73589Y617822D01*
X73719Y617914D01*
X73728Y617924D01*
X73765Y617951D01*
X73820Y617998D01*
X73885Y618062D01*
X74024Y618201D01*
X74089Y618275D01*
X74144Y618349D01*
X74153Y618358D01*
X74163Y618377D01*
X74181Y618414D01*
X74209Y618469D01*
X74236Y618525D01*
X74264Y618589D01*
X74310Y618737D01*
Y618746D01*
X74320Y618765D01*
Y618802D01*
X74329Y618848D01*
X74338Y618913D01*
Y618987D01*
X74347Y619089D01*
Y620179D01*
X71509D01*
Y621030D01*
X77907D01*
Y618062D01*
D02*
G37*
G36*
X76326Y614299D02*
X76344Y614281D01*
X76354Y614244D01*
X76381Y614198D01*
X76409Y614142D01*
X76446Y614077D01*
X76539Y613920D01*
X76640Y613735D01*
X76770Y613550D01*
X76918Y613356D01*
X77075Y613162D01*
X77084Y613153D01*
X77093Y613144D01*
X77121Y613116D01*
X77149Y613079D01*
X77241Y612996D01*
X77352Y612885D01*
X77482Y612774D01*
X77630Y612654D01*
X77778Y612552D01*
X77935Y612459D01*
Y611951D01*
X71509D01*
Y612737D01*
X76511D01*
X76502Y612746D01*
X76465Y612792D01*
X76409Y612848D01*
X76344Y612940D01*
X76261Y613042D01*
X76169Y613171D01*
X76067Y613319D01*
X75965Y613486D01*
Y613495D01*
X75956Y613504D01*
X75919Y613560D01*
X75873Y613652D01*
X75817Y613763D01*
X75753Y613893D01*
X75688Y614031D01*
X75623Y614170D01*
X75568Y614309D01*
X76326D01*
Y614299D01*
D02*
G37*
G36*
X73451Y609935D02*
X73506D01*
X73571Y609926D01*
X73719Y609908D01*
X73885Y609871D01*
X74051Y609815D01*
X74227Y609732D01*
X74394Y609630D01*
X74403D01*
X74412Y609612D01*
X74458Y609575D01*
X74532Y609501D01*
X74625Y609399D01*
X74717Y609270D01*
X74819Y609113D01*
X74902Y608937D01*
X74967Y608724D01*
Y608733D01*
X74976Y608743D01*
X74985Y608770D01*
X75004Y608807D01*
X75041Y608891D01*
X75096Y609002D01*
X75170Y609122D01*
X75263Y609242D01*
X75364Y609353D01*
X75475Y609455D01*
X75494Y609464D01*
X75531Y609492D01*
X75605Y609529D01*
X75697Y609566D01*
X75817Y609612D01*
X75956Y609649D01*
X76113Y609677D01*
X76280Y609686D01*
X76289D01*
X76308D01*
X76344D01*
X76400Y609677D01*
X76455Y609667D01*
X76529Y609658D01*
X76687Y609621D01*
X76871Y609566D01*
X77066Y609473D01*
X77167Y609418D01*
X77269Y609353D01*
X77361Y609270D01*
X77454Y609187D01*
X77463Y609177D01*
X77472Y609159D01*
X77500Y609131D01*
X77528Y609094D01*
X77565Y609048D01*
X77602Y608983D01*
X77648Y608909D01*
X77694Y608835D01*
X77741Y608743D01*
X77787Y608641D01*
X77824Y608530D01*
X77861Y608410D01*
X77916Y608151D01*
X77925Y608003D01*
X77935Y607855D01*
Y607772D01*
X77925Y607716D01*
X77916Y607642D01*
X77907Y607559D01*
X77898Y607467D01*
X77870Y607374D01*
X77814Y607152D01*
X77731Y606931D01*
X77676Y606820D01*
X77611Y606709D01*
X77528Y606607D01*
X77445Y606505D01*
X77435Y606496D01*
X77426Y606487D01*
X77398Y606459D01*
X77361Y606422D01*
X77306Y606385D01*
X77250Y606339D01*
X77112Y606246D01*
X76936Y606154D01*
X76733Y606071D01*
X76502Y606006D01*
X76381Y605997D01*
X76252Y605988D01*
X76243D01*
X76234D01*
X76178D01*
X76095Y605997D01*
X75993Y606015D01*
X75864Y606043D01*
X75734Y606089D01*
X75605Y606145D01*
X75475Y606228D01*
X75457Y606237D01*
X75420Y606274D01*
X75364Y606330D01*
X75290Y606404D01*
X75207Y606505D01*
X75124Y606625D01*
X75041Y606764D01*
X74967Y606931D01*
Y606921D01*
X74958Y606903D01*
X74948Y606875D01*
X74930Y606838D01*
X74884Y606727D01*
X74819Y606598D01*
X74727Y606459D01*
X74625Y606311D01*
X74495Y606172D01*
X74347Y606043D01*
X74338D01*
X74329Y606034D01*
X74273Y605997D01*
X74181Y605941D01*
X74061Y605886D01*
X73913Y605830D01*
X73737Y605775D01*
X73543Y605738D01*
X73330Y605729D01*
X73321D01*
X73293D01*
X73247D01*
X73192Y605738D01*
X73127Y605747D01*
X73044Y605756D01*
X72951Y605775D01*
X72850Y605803D01*
X72637Y605867D01*
X72517Y605914D01*
X72406Y605978D01*
X72286Y606043D01*
X72175Y606117D01*
X72064Y606209D01*
X71953Y606311D01*
X71943Y606320D01*
X71925Y606339D01*
X71897Y606367D01*
X71870Y606413D01*
X71823Y606478D01*
X71777Y606542D01*
X71731Y606625D01*
X71675Y606718D01*
X71620Y606820D01*
X71574Y606940D01*
X71528Y607069D01*
X71481Y607199D01*
X71453Y607347D01*
X71426Y607504D01*
X71407Y607661D01*
X71398Y607837D01*
Y607929D01*
X71407Y607994D01*
X71417Y608077D01*
X71426Y608169D01*
X71444Y608271D01*
X71472Y608382D01*
X71537Y608632D01*
X71583Y608761D01*
X71629Y608881D01*
X71694Y609011D01*
X71768Y609140D01*
X71851Y609260D01*
X71953Y609371D01*
X71962Y609381D01*
X71981Y609399D01*
X72008Y609427D01*
X72055Y609464D01*
X72110Y609501D01*
X72175Y609556D01*
X72249Y609603D01*
X72341Y609658D01*
X72434Y609714D01*
X72544Y609760D01*
X72776Y609852D01*
X72914Y609889D01*
X73053Y609917D01*
X73201Y609935D01*
X73349Y609945D01*
X73358D01*
X73377D01*
X73414D01*
X73451Y609935D01*
D02*
G37*
G36*
X26008Y636313D02*
X26026Y636294D01*
X26063Y636257D01*
X26119Y636220D01*
X26183Y636165D01*
X26257Y636091D01*
X26350Y636017D01*
X26461Y635934D01*
X26572Y635851D01*
X26701Y635749D01*
X26849Y635647D01*
X26997Y635546D01*
X27163Y635434D01*
X27339Y635324D01*
X27533Y635213D01*
X27727Y635102D01*
X27737Y635092D01*
X27774Y635074D01*
X27829Y635046D01*
X27912Y635000D01*
X28014Y634954D01*
X28125Y634898D01*
X28254Y634834D01*
X28402Y634769D01*
X28569Y634695D01*
X28735Y634612D01*
X28920Y634538D01*
X29114Y634464D01*
X29512Y634316D01*
X29937Y634177D01*
X29946D01*
X29974Y634168D01*
X30020Y634159D01*
X30076Y634140D01*
X30150Y634122D01*
X30242Y634103D01*
X30344Y634075D01*
X30455Y634057D01*
X30584Y634029D01*
X30723Y634001D01*
X31019Y633955D01*
X31342Y633909D01*
X31694Y633881D01*
Y633077D01*
X31685D01*
X31657D01*
X31620D01*
X31564Y633086D01*
X31490D01*
X31398Y633095D01*
X31296Y633105D01*
X31185Y633114D01*
X31056Y633132D01*
X30926Y633151D01*
X30769Y633179D01*
X30612Y633206D01*
X30446Y633234D01*
X30261Y633271D01*
X29882Y633363D01*
X29872D01*
X29835Y633373D01*
X29780Y633391D01*
X29697Y633419D01*
X29604Y633447D01*
X29493Y633484D01*
X29364Y633521D01*
X29225Y633576D01*
X29068Y633632D01*
X28911Y633687D01*
X28560Y633826D01*
X28190Y633992D01*
X27820Y634177D01*
X27811Y634186D01*
X27774Y634205D01*
X27727Y634233D01*
X27654Y634270D01*
X27570Y634316D01*
X27469Y634380D01*
X27358Y634445D01*
X27237Y634519D01*
X26969Y634695D01*
X26692Y634880D01*
X26405Y635092D01*
X26137Y635314D01*
Y632180D01*
X25379D01*
Y636322D01*
X25998D01*
X26008Y636313D01*
D02*
G37*
G36*
X31694Y629323D02*
X26692D01*
X26701Y629314D01*
X26738Y629268D01*
X26794Y629212D01*
X26858Y629120D01*
X26942Y629018D01*
X27034Y628889D01*
X27136Y628741D01*
X27237Y628574D01*
Y628565D01*
X27247Y628556D01*
X27284Y628500D01*
X27330Y628408D01*
X27385Y628297D01*
X27450Y628167D01*
X27515Y628029D01*
X27580Y627890D01*
X27635Y627751D01*
X26877D01*
Y627761D01*
X26858Y627779D01*
X26849Y627816D01*
X26821Y627862D01*
X26794Y627918D01*
X26757Y627983D01*
X26664Y628140D01*
X26562Y628325D01*
X26433Y628510D01*
X26285Y628704D01*
X26128Y628898D01*
X26119Y628907D01*
X26109Y628916D01*
X26082Y628944D01*
X26054Y628981D01*
X25961Y629064D01*
X25851Y629175D01*
X25721Y629286D01*
X25573Y629406D01*
X25425Y629508D01*
X25268Y629600D01*
Y630109D01*
X31694D01*
Y629323D01*
D02*
G37*
G36*
Y625597D02*
X30362Y624756D01*
X30353D01*
X30335Y624737D01*
X30307Y624719D01*
X30270Y624691D01*
X30168Y624626D01*
X30039Y624543D01*
X29900Y624441D01*
X29752Y624340D01*
X29613Y624238D01*
X29484Y624146D01*
X29475Y624136D01*
X29438Y624109D01*
X29382Y624062D01*
X29318Y623998D01*
X29179Y623859D01*
X29114Y623785D01*
X29059Y623711D01*
X29049Y623702D01*
X29040Y623683D01*
X29022Y623646D01*
X28994Y623591D01*
X28966Y623535D01*
X28939Y623471D01*
X28892Y623323D01*
Y623313D01*
X28883Y623295D01*
Y623258D01*
X28874Y623212D01*
X28865Y623147D01*
Y623073D01*
X28855Y622971D01*
Y621880D01*
X31694D01*
Y621030D01*
X25296D01*
Y623998D01*
X25305Y624072D01*
Y624155D01*
X25314Y624349D01*
X25342Y624552D01*
X25370Y624774D01*
X25416Y624978D01*
X25444Y625079D01*
X25471Y625163D01*
Y625172D01*
X25481Y625181D01*
X25508Y625237D01*
X25545Y625320D01*
X25610Y625421D01*
X25693Y625532D01*
X25804Y625653D01*
X25934Y625764D01*
X26082Y625875D01*
X26091D01*
X26100Y625884D01*
X26156Y625921D01*
X26248Y625958D01*
X26368Y626013D01*
X26507Y626059D01*
X26673Y626106D01*
X26849Y626133D01*
X27043Y626143D01*
X27053D01*
X27071D01*
X27108D01*
X27154Y626133D01*
X27219D01*
X27284Y626124D01*
X27441Y626087D01*
X27626Y626032D01*
X27820Y625958D01*
X28014Y625847D01*
X28107Y625773D01*
X28199Y625699D01*
X28208Y625690D01*
X28217Y625680D01*
X28245Y625653D01*
X28273Y625616D01*
X28310Y625569D01*
X28347Y625514D01*
X28393Y625440D01*
X28449Y625366D01*
X28495Y625274D01*
X28541Y625172D01*
X28596Y625061D01*
X28643Y624941D01*
X28680Y624802D01*
X28726Y624663D01*
X28754Y624506D01*
X28781Y624340D01*
X28791Y624358D01*
X28809Y624395D01*
X28846Y624451D01*
X28883Y624525D01*
X28985Y624691D01*
X29049Y624774D01*
X29105Y624848D01*
X29123Y624867D01*
X29170Y624913D01*
X29244Y624987D01*
X29336Y625079D01*
X29466Y625181D01*
X29604Y625301D01*
X29771Y625421D01*
X29956Y625551D01*
X31694Y626651D01*
Y625597D01*
D02*
G37*
G36*
X734129Y645113D02*
X734203Y645104D01*
X734295Y645095D01*
X734397Y645076D01*
X734499Y645058D01*
X734739Y644993D01*
X734979Y644901D01*
X735099Y644845D01*
X735220Y644780D01*
X735331Y644697D01*
X735432Y644605D01*
X735442Y644595D01*
X735460Y644586D01*
X735479Y644549D01*
X735516Y644512D01*
X735562Y644466D01*
X735608Y644401D01*
X735654Y644337D01*
X735710Y644253D01*
X735802Y644078D01*
X735895Y643856D01*
X735932Y643745D01*
X735950Y643615D01*
X735969Y643486D01*
X735978Y643347D01*
Y643329D01*
Y643283D01*
X735969Y643209D01*
X735959Y643107D01*
X735941Y642996D01*
X735904Y642867D01*
X735867Y642728D01*
X735811Y642589D01*
X735802Y642571D01*
X735784Y642524D01*
X735747Y642450D01*
X735691Y642349D01*
X735617Y642238D01*
X735525Y642099D01*
X735414Y641961D01*
X735284Y641803D01*
X735266Y641785D01*
X735220Y641729D01*
X735173Y641683D01*
X735127Y641637D01*
X735072Y641581D01*
X734998Y641507D01*
X734924Y641433D01*
X734831Y641350D01*
X734739Y641258D01*
X734628Y641156D01*
X734508Y641054D01*
X734378Y640934D01*
X734230Y640814D01*
X734082Y640685D01*
X734073Y640675D01*
X734055Y640657D01*
X734018Y640629D01*
X733971Y640592D01*
X733916Y640537D01*
X733851Y640481D01*
X733703Y640361D01*
X733546Y640222D01*
X733398Y640084D01*
X733269Y639963D01*
X733213Y639917D01*
X733167Y639871D01*
X733158Y639862D01*
X733130Y639834D01*
X733093Y639797D01*
X733047Y639742D01*
X733001Y639677D01*
X732945Y639612D01*
X732834Y639455D01*
X735987D01*
Y638697D01*
X731743D01*
Y638706D01*
Y638743D01*
Y638798D01*
X731753Y638872D01*
X731762Y638956D01*
X731780Y639048D01*
X731799Y639141D01*
X731836Y639242D01*
Y639252D01*
X731845Y639261D01*
X731863Y639316D01*
X731900Y639399D01*
X731956Y639510D01*
X732030Y639640D01*
X732122Y639788D01*
X732224Y639936D01*
X732354Y640093D01*
Y640102D01*
X732372Y640111D01*
X732418Y640167D01*
X732502Y640250D01*
X732622Y640370D01*
X732760Y640509D01*
X732936Y640675D01*
X733149Y640860D01*
X733380Y641054D01*
X733389Y641064D01*
X733426Y641091D01*
X733482Y641138D01*
X733546Y641193D01*
X733629Y641267D01*
X733731Y641350D01*
X733833Y641443D01*
X733953Y641544D01*
X734184Y641766D01*
X734415Y641988D01*
X734526Y642099D01*
X734628Y642210D01*
X734720Y642312D01*
X734794Y642413D01*
Y642423D01*
X734813Y642432D01*
X734831Y642460D01*
X734850Y642497D01*
X734915Y642598D01*
X734988Y642719D01*
X735053Y642867D01*
X735118Y643024D01*
X735155Y643199D01*
X735173Y643366D01*
Y643375D01*
Y643384D01*
X735164Y643440D01*
X735155Y643532D01*
X735127Y643634D01*
X735090Y643763D01*
X735025Y643893D01*
X734942Y644022D01*
X734831Y644152D01*
X734813Y644170D01*
X734767Y644207D01*
X734702Y644253D01*
X734600Y644318D01*
X734471Y644374D01*
X734323Y644429D01*
X734147Y644466D01*
X733953Y644475D01*
X733897D01*
X733861Y644466D01*
X733750Y644457D01*
X733620Y644429D01*
X733482Y644392D01*
X733324Y644327D01*
X733176Y644244D01*
X733038Y644133D01*
X733019Y644115D01*
X732982Y644069D01*
X732927Y643995D01*
X732871Y643884D01*
X732807Y643754D01*
X732751Y643588D01*
X732714Y643403D01*
X732696Y643190D01*
X731891Y643273D01*
Y643283D01*
X731900Y643310D01*
Y643357D01*
X731910Y643421D01*
X731928Y643495D01*
X731947Y643578D01*
X731974Y643680D01*
X732002Y643782D01*
X732076Y644004D01*
X732187Y644226D01*
X732252Y644337D01*
X732335Y644448D01*
X732418Y644549D01*
X732511Y644642D01*
X732520Y644651D01*
X732538Y644660D01*
X732566Y644688D01*
X732612Y644716D01*
X732668Y644753D01*
X732733Y644790D01*
X732807Y644836D01*
X732899Y644882D01*
X733001Y644928D01*
X733112Y644975D01*
X733232Y645012D01*
X733361Y645049D01*
X733500Y645076D01*
X733648Y645104D01*
X733805Y645113D01*
X733971Y645123D01*
X734064D01*
X734129Y645113D01*
D02*
G37*
G36*
X728128Y645197D02*
X728212D01*
X728295Y645187D01*
X728406Y645169D01*
X728517Y645150D01*
X728757Y645104D01*
X729034Y645030D01*
X729303Y644919D01*
X729441Y644854D01*
X729580Y644780D01*
X729589Y644771D01*
X729608Y644762D01*
X729645Y644734D01*
X729700Y644706D01*
X729755Y644660D01*
X729829Y644605D01*
X729987Y644475D01*
X730153Y644309D01*
X730338Y644106D01*
X730514Y643865D01*
X730662Y643597D01*
Y643588D01*
X730680Y643560D01*
X730699Y643523D01*
X730717Y643467D01*
X730754Y643394D01*
X730782Y643310D01*
X730819Y643209D01*
X730856Y643098D01*
X730883Y642978D01*
X730920Y642848D01*
X730957Y642709D01*
X730985Y642561D01*
X731022Y642238D01*
X731041Y641896D01*
Y641887D01*
Y641859D01*
Y641822D01*
Y641766D01*
X731031Y641692D01*
Y641609D01*
X731022Y641517D01*
X731013Y641424D01*
X730985Y641202D01*
X730939Y640962D01*
X730883Y640712D01*
X730800Y640472D01*
Y640463D01*
X730791Y640444D01*
X730772Y640407D01*
X730754Y640370D01*
X730726Y640315D01*
X730699Y640250D01*
X730625Y640102D01*
X730523Y639926D01*
X730394Y639742D01*
X730246Y639557D01*
X730079Y639372D01*
X730088D01*
X730107Y639353D01*
X730135Y639335D01*
X730181Y639307D01*
X730227Y639270D01*
X730292Y639233D01*
X730430Y639150D01*
X730597Y639048D01*
X730782Y638946D01*
X730976Y638863D01*
X731161Y638780D01*
X730911Y638198D01*
X730902D01*
X730883Y638207D01*
X730846Y638225D01*
X730791Y638244D01*
X730726Y638271D01*
X730652Y638308D01*
X730569Y638345D01*
X730477Y638392D01*
X730273Y638503D01*
X730042Y638632D01*
X729792Y638798D01*
X729534Y638983D01*
X729524D01*
X729506Y638965D01*
X729460Y638946D01*
X729413Y638919D01*
X729340Y638891D01*
X729266Y638854D01*
X729173Y638826D01*
X729071Y638789D01*
X728960Y638752D01*
X728840Y638715D01*
X728572Y638651D01*
X728276Y638604D01*
X728119Y638595D01*
X727962Y638586D01*
X727879D01*
X727814Y638595D01*
X727740D01*
X727647Y638604D01*
X727546Y638623D01*
X727435Y638641D01*
X727195Y638688D01*
X726926Y638761D01*
X726649Y638863D01*
X726520Y638928D01*
X726381Y639002D01*
X726372Y639011D01*
X726353Y639020D01*
X726316Y639048D01*
X726270Y639076D01*
X726205Y639122D01*
X726141Y639178D01*
X725983Y639307D01*
X725808Y639473D01*
X725632Y639677D01*
X725456Y639908D01*
X725299Y640176D01*
Y640185D01*
X725281Y640213D01*
X725262Y640250D01*
X725244Y640306D01*
X725216Y640379D01*
X725179Y640463D01*
X725142Y640564D01*
X725114Y640675D01*
X725077Y640796D01*
X725040Y640925D01*
X725013Y641064D01*
X724976Y641221D01*
X724939Y641544D01*
X724920Y641887D01*
Y641896D01*
Y641933D01*
Y641979D01*
X724929Y642044D01*
Y642127D01*
X724939Y642229D01*
X724948Y642340D01*
X724966Y642460D01*
X725013Y642728D01*
X725077Y643015D01*
X725170Y643320D01*
X725299Y643615D01*
X725308Y643625D01*
X725318Y643652D01*
X725336Y643689D01*
X725373Y643745D01*
X725410Y643810D01*
X725456Y643884D01*
X725586Y644059D01*
X725734Y644244D01*
X725928Y644438D01*
X726141Y644632D01*
X726390Y644799D01*
X726399Y644808D01*
X726427Y644817D01*
X726464Y644836D01*
X726520Y644864D01*
X726584Y644891D01*
X726658Y644928D01*
X726751Y644965D01*
X726852Y645002D01*
X726973Y645039D01*
X727093Y645076D01*
X727361Y645141D01*
X727657Y645187D01*
X727814Y645206D01*
X728064D01*
X728128Y645197D01*
D02*
G37*
G36*
X734493Y444387D02*
X733707D01*
Y449389D01*
X733698Y449379D01*
X733652Y449342D01*
X733596Y449287D01*
X733503Y449222D01*
X733402Y449139D01*
X733272Y449047D01*
X733124Y448945D01*
X732958Y448843D01*
X732949D01*
X732940Y448834D01*
X732884Y448797D01*
X732792Y448751D01*
X732681Y448695D01*
X732551Y448630D01*
X732413Y448566D01*
X732274Y448501D01*
X732135Y448446D01*
Y449204D01*
X732144D01*
X732163Y449222D01*
X732200Y449231D01*
X732246Y449259D01*
X732302Y449287D01*
X732366Y449324D01*
X732523Y449416D01*
X732708Y449518D01*
X732893Y449648D01*
X733087Y449795D01*
X733282Y449953D01*
X733291Y449962D01*
X733300Y449971D01*
X733328Y449999D01*
X733365Y450027D01*
X733448Y450119D01*
X733559Y450230D01*
X733670Y450359D01*
X733790Y450507D01*
X733892Y450655D01*
X733984Y450812D01*
X734493D01*
Y444387D01*
D02*
G37*
G36*
X727808Y450886D02*
X727891D01*
X727975Y450877D01*
X728086Y450859D01*
X728197Y450840D01*
X728437Y450794D01*
X728714Y450720D01*
X728982Y450609D01*
X729121Y450544D01*
X729260Y450470D01*
X729269Y450461D01*
X729287Y450452D01*
X729324Y450424D01*
X729380Y450396D01*
X729436Y450350D01*
X729509Y450295D01*
X729667Y450165D01*
X729833Y449999D01*
X730018Y449795D01*
X730194Y449555D01*
X730341Y449287D01*
Y449278D01*
X730360Y449250D01*
X730378Y449213D01*
X730397Y449157D01*
X730434Y449084D01*
X730462Y449000D01*
X730499Y448899D01*
X730536Y448788D01*
X730563Y448667D01*
X730600Y448538D01*
X730637Y448399D01*
X730665Y448251D01*
X730702Y447928D01*
X730721Y447586D01*
Y447576D01*
Y447549D01*
Y447512D01*
Y447456D01*
X730711Y447382D01*
Y447299D01*
X730702Y447207D01*
X730693Y447114D01*
X730665Y446892D01*
X730619Y446652D01*
X730563Y446402D01*
X730480Y446162D01*
Y446153D01*
X730471Y446134D01*
X730452Y446097D01*
X730434Y446060D01*
X730406Y446005D01*
X730378Y445940D01*
X730305Y445792D01*
X730203Y445616D01*
X730073Y445432D01*
X729926Y445247D01*
X729759Y445062D01*
X729768D01*
X729787Y445043D01*
X729815Y445025D01*
X729861Y444997D01*
X729907Y444960D01*
X729972Y444923D01*
X730110Y444840D01*
X730277Y444738D01*
X730462Y444636D01*
X730656Y444553D01*
X730841Y444470D01*
X730591Y443888D01*
X730582D01*
X730563Y443897D01*
X730527Y443915D01*
X730471Y443934D01*
X730406Y443961D01*
X730332Y443998D01*
X730249Y444035D01*
X730157Y444082D01*
X729953Y444193D01*
X729722Y444322D01*
X729473Y444488D01*
X729214Y444673D01*
X729204D01*
X729186Y444655D01*
X729140Y444636D01*
X729093Y444609D01*
X729019Y444581D01*
X728945Y444544D01*
X728853Y444516D01*
X728751Y444479D01*
X728640Y444442D01*
X728520Y444405D01*
X728252Y444341D01*
X727956Y444294D01*
X727799Y444285D01*
X727642Y444276D01*
X727559D01*
X727494Y444285D01*
X727420D01*
X727327Y444294D01*
X727226Y444313D01*
X727115Y444331D01*
X726874Y444378D01*
X726606Y444451D01*
X726329Y444553D01*
X726199Y444618D01*
X726061Y444692D01*
X726052Y444701D01*
X726033Y444710D01*
X725996Y444738D01*
X725950Y444766D01*
X725885Y444812D01*
X725820Y444868D01*
X725663Y444997D01*
X725488Y445163D01*
X725312Y445367D01*
X725136Y445598D01*
X724979Y445866D01*
Y445875D01*
X724961Y445903D01*
X724942Y445940D01*
X724924Y445996D01*
X724896Y446069D01*
X724859Y446153D01*
X724822Y446254D01*
X724794Y446365D01*
X724757Y446486D01*
X724720Y446615D01*
X724693Y446754D01*
X724656Y446911D01*
X724619Y447234D01*
X724600Y447576D01*
Y447586D01*
Y447623D01*
Y447669D01*
X724609Y447734D01*
Y447817D01*
X724619Y447919D01*
X724628Y448030D01*
X724646Y448150D01*
X724693Y448418D01*
X724757Y448704D01*
X724850Y449010D01*
X724979Y449305D01*
X724988Y449315D01*
X724998Y449342D01*
X725016Y449379D01*
X725053Y449435D01*
X725090Y449500D01*
X725136Y449574D01*
X725266Y449749D01*
X725414Y449934D01*
X725608Y450128D01*
X725820Y450322D01*
X726070Y450489D01*
X726079Y450498D01*
X726107Y450507D01*
X726144Y450526D01*
X726199Y450554D01*
X726264Y450581D01*
X726338Y450618D01*
X726431Y450655D01*
X726532Y450692D01*
X726653Y450729D01*
X726773Y450766D01*
X727041Y450831D01*
X727337Y450877D01*
X727494Y450896D01*
X727744D01*
X727808Y450886D01*
D02*
G37*
G36*
X557578Y652861D02*
X557569Y652694D01*
X557559Y652509D01*
X557541Y652325D01*
X557513Y652140D01*
X557485Y651982D01*
Y651973D01*
X557476Y651955D01*
Y651927D01*
X557458Y651890D01*
X557430Y651788D01*
X557384Y651659D01*
X557319Y651511D01*
X557236Y651354D01*
X557143Y651197D01*
X557023Y651049D01*
X557014Y651039D01*
X557005Y651030D01*
X556977Y651002D01*
X556949Y650965D01*
X556857Y650873D01*
X556727Y650762D01*
X556570Y650642D01*
X556385Y650512D01*
X556172Y650392D01*
X555932Y650291D01*
X555923D01*
X555904Y650281D01*
X555867Y650263D01*
X555812Y650254D01*
X555747Y650226D01*
X555673Y650207D01*
X555590Y650189D01*
X555488Y650161D01*
X555387Y650133D01*
X555266Y650115D01*
X555008Y650069D01*
X554721Y650041D01*
X554407Y650032D01*
X554397D01*
X554379D01*
X554333D01*
X554286D01*
X554222Y650041D01*
X554148D01*
X553972Y650050D01*
X553769Y650078D01*
X553556Y650106D01*
X553334Y650152D01*
X553112Y650207D01*
X553103D01*
X553084Y650217D01*
X553057Y650226D01*
X553020Y650235D01*
X552918Y650272D01*
X552789Y650328D01*
X552641Y650383D01*
X552493Y650457D01*
X552336Y650549D01*
X552188Y650642D01*
X552169Y650651D01*
X552123Y650688D01*
X552058Y650743D01*
X551975Y650817D01*
X551883Y650901D01*
X551790Y651002D01*
X551688Y651104D01*
X551605Y651224D01*
X551596Y651243D01*
X551568Y651280D01*
X551531Y651345D01*
X551485Y651437D01*
X551429Y651548D01*
X551383Y651677D01*
X551328Y651825D01*
X551282Y651992D01*
Y652010D01*
X551272Y652038D01*
X551263Y652066D01*
X551254Y652158D01*
X551235Y652288D01*
X551217Y652435D01*
X551198Y652611D01*
X551189Y652805D01*
X551180Y653018D01*
Y655320D01*
X557578D01*
Y652861D01*
D02*
G37*
G36*
X555997Y648580D02*
X556015Y648561D01*
X556025Y648525D01*
X556052Y648478D01*
X556080Y648423D01*
X556117Y648358D01*
X556209Y648201D01*
X556311Y648016D01*
X556441Y647831D01*
X556589Y647637D01*
X556746Y647443D01*
X556755Y647434D01*
X556764Y647424D01*
X556792Y647397D01*
X556820Y647360D01*
X556912Y647276D01*
X557023Y647166D01*
X557152Y647055D01*
X557300Y646934D01*
X557448Y646833D01*
X557606Y646740D01*
Y646232D01*
X551180D01*
Y647018D01*
X556182D01*
X556172Y647027D01*
X556135Y647073D01*
X556080Y647129D01*
X556015Y647221D01*
X555932Y647323D01*
X555840Y647452D01*
X555738Y647600D01*
X555636Y647766D01*
Y647776D01*
X555627Y647785D01*
X555590Y647840D01*
X555544Y647933D01*
X555488Y648044D01*
X555424Y648173D01*
X555359Y648312D01*
X555294Y648451D01*
X555239Y648589D01*
X555997D01*
Y648580D01*
D02*
G37*
G36*
X621030Y662609D02*
X621021D01*
X620984D01*
X620928D01*
X620854Y662618D01*
X620771Y662627D01*
X620679Y662646D01*
X620586Y662664D01*
X620485Y662701D01*
X620475D01*
X620466Y662710D01*
X620411Y662729D01*
X620327Y662766D01*
X620216Y662821D01*
X620087Y662895D01*
X619939Y662988D01*
X619791Y663090D01*
X619634Y663219D01*
X619625D01*
X619616Y663238D01*
X619560Y663284D01*
X619477Y663367D01*
X619357Y663487D01*
X619218Y663626D01*
X619052Y663801D01*
X618867Y664014D01*
X618672Y664245D01*
X618663Y664255D01*
X618635Y664292D01*
X618589Y664347D01*
X618534Y664412D01*
X618460Y664495D01*
X618377Y664597D01*
X618284Y664698D01*
X618182Y664818D01*
X617961Y665050D01*
X617739Y665281D01*
X617628Y665392D01*
X617517Y665493D01*
X617415Y665586D01*
X617313Y665660D01*
X617304D01*
X617295Y665678D01*
X617267Y665697D01*
X617230Y665715D01*
X617128Y665780D01*
X617008Y665854D01*
X616860Y665919D01*
X616703Y665983D01*
X616527Y666020D01*
X616361Y666039D01*
X616352D01*
X616343D01*
X616287Y666030D01*
X616195Y666020D01*
X616093Y665993D01*
X615964Y665956D01*
X615834Y665891D01*
X615705Y665808D01*
X615575Y665697D01*
X615557Y665678D01*
X615520Y665632D01*
X615474Y665567D01*
X615409Y665466D01*
X615353Y665336D01*
X615298Y665188D01*
X615261Y665013D01*
X615252Y664818D01*
Y664763D01*
X615261Y664726D01*
X615270Y664615D01*
X615298Y664486D01*
X615335Y664347D01*
X615400Y664190D01*
X615483Y664042D01*
X615594Y663903D01*
X615612Y663885D01*
X615658Y663848D01*
X615732Y663792D01*
X615843Y663737D01*
X615973Y663672D01*
X616139Y663616D01*
X616324Y663579D01*
X616537Y663561D01*
X616454Y662757D01*
X616444D01*
X616417Y662766D01*
X616370D01*
X616306Y662775D01*
X616232Y662794D01*
X616148Y662812D01*
X616047Y662840D01*
X615945Y662868D01*
X615723Y662942D01*
X615501Y663053D01*
X615390Y663117D01*
X615279Y663201D01*
X615178Y663284D01*
X615085Y663376D01*
X615076Y663385D01*
X615067Y663404D01*
X615039Y663432D01*
X615011Y663478D01*
X614974Y663533D01*
X614937Y663598D01*
X614891Y663672D01*
X614845Y663764D01*
X614799Y663866D01*
X614752Y663977D01*
X614715Y664097D01*
X614678Y664227D01*
X614651Y664365D01*
X614623Y664513D01*
X614614Y664670D01*
X614604Y664837D01*
Y664929D01*
X614614Y664994D01*
X614623Y665068D01*
X614632Y665161D01*
X614651Y665262D01*
X614669Y665364D01*
X614734Y665604D01*
X614826Y665845D01*
X614882Y665965D01*
X614947Y666085D01*
X615030Y666196D01*
X615122Y666298D01*
X615131Y666307D01*
X615141Y666326D01*
X615178Y666344D01*
X615215Y666381D01*
X615261Y666427D01*
X615326Y666473D01*
X615390Y666520D01*
X615474Y666575D01*
X615649Y666668D01*
X615871Y666760D01*
X615982Y666797D01*
X616111Y666815D01*
X616241Y666834D01*
X616380Y666843D01*
X616398D01*
X616444D01*
X616518Y666834D01*
X616620Y666825D01*
X616731Y666806D01*
X616860Y666769D01*
X616999Y666732D01*
X617138Y666677D01*
X617156Y666668D01*
X617202Y666649D01*
X617276Y666612D01*
X617378Y666557D01*
X617489Y666483D01*
X617628Y666390D01*
X617766Y666279D01*
X617924Y666150D01*
X617942Y666131D01*
X617998Y666085D01*
X618044Y666039D01*
X618090Y665993D01*
X618145Y665937D01*
X618219Y665863D01*
X618293Y665789D01*
X618377Y665697D01*
X618469Y665604D01*
X618571Y665493D01*
X618672Y665373D01*
X618793Y665244D01*
X618913Y665096D01*
X619042Y664948D01*
X619052Y664939D01*
X619070Y664920D01*
X619098Y664883D01*
X619135Y664837D01*
X619190Y664781D01*
X619246Y664717D01*
X619366Y664569D01*
X619505Y664412D01*
X619643Y664264D01*
X619763Y664134D01*
X619810Y664079D01*
X619856Y664033D01*
X619865Y664023D01*
X619893Y663996D01*
X619930Y663959D01*
X619985Y663912D01*
X620050Y663866D01*
X620115Y663811D01*
X620272Y663700D01*
Y666852D01*
X621030D01*
Y662609D01*
D02*
G37*
G36*
X617988Y661869D02*
X618062D01*
X618238Y661860D01*
X618441Y661832D01*
X618654Y661804D01*
X618876Y661758D01*
X619098Y661703D01*
X619107D01*
X619126Y661693D01*
X619153Y661684D01*
X619190Y661675D01*
X619292Y661638D01*
X619421Y661582D01*
X619569Y661527D01*
X619717Y661453D01*
X619874Y661361D01*
X620022Y661268D01*
X620041Y661259D01*
X620087Y661222D01*
X620152Y661166D01*
X620235Y661093D01*
X620327Y661009D01*
X620420Y660908D01*
X620522Y660806D01*
X620605Y660686D01*
X620614Y660667D01*
X620642Y660630D01*
X620679Y660565D01*
X620725Y660473D01*
X620780Y660362D01*
X620827Y660233D01*
X620882Y660085D01*
X620928Y659918D01*
Y659900D01*
X620938Y659872D01*
X620947Y659844D01*
X620956Y659752D01*
X620975Y659622D01*
X620993Y659474D01*
X621012Y659299D01*
X621021Y659105D01*
X621030Y658892D01*
Y656590D01*
X614632D01*
Y659049D01*
X614641Y659216D01*
X614651Y659400D01*
X614669Y659585D01*
X614697Y659770D01*
X614725Y659928D01*
Y659937D01*
X614734Y659955D01*
Y659983D01*
X614752Y660020D01*
X614780Y660122D01*
X614826Y660251D01*
X614891Y660399D01*
X614974Y660556D01*
X615067Y660713D01*
X615187Y660861D01*
X615196Y660871D01*
X615205Y660880D01*
X615233Y660908D01*
X615261Y660945D01*
X615353Y661037D01*
X615483Y661148D01*
X615640Y661268D01*
X615825Y661398D01*
X616037Y661518D01*
X616278Y661619D01*
X616287D01*
X616306Y661629D01*
X616343Y661647D01*
X616398Y661656D01*
X616463Y661684D01*
X616537Y661703D01*
X616620Y661721D01*
X616722Y661749D01*
X616823Y661777D01*
X616944Y661795D01*
X617202Y661841D01*
X617489Y661869D01*
X617803Y661878D01*
X617813D01*
X617831D01*
X617877D01*
X617924D01*
X617988Y661869D01*
D02*
G37*
G36*
X508159Y481411D02*
X508149Y481244D01*
X508140Y481059D01*
X508122Y480874D01*
X508094Y480690D01*
X508066Y480532D01*
Y480523D01*
X508057Y480505D01*
Y480477D01*
X508039Y480440D01*
X508011Y480338D01*
X507965Y480209D01*
X507900Y480061D01*
X507817Y479904D01*
X507724Y479747D01*
X507604Y479599D01*
X507595Y479589D01*
X507585Y479580D01*
X507558Y479552D01*
X507530Y479515D01*
X507438Y479423D01*
X507308Y479312D01*
X507151Y479192D01*
X506966Y479062D01*
X506753Y478942D01*
X506513Y478840D01*
X506504D01*
X506485Y478831D01*
X506448Y478813D01*
X506393Y478803D01*
X506328Y478776D01*
X506254Y478757D01*
X506171Y478739D01*
X506069Y478711D01*
X505968Y478683D01*
X505847Y478665D01*
X505588Y478619D01*
X505302Y478591D01*
X504987Y478582D01*
X504978D01*
X504960D01*
X504914D01*
X504867D01*
X504803Y478591D01*
X504729D01*
X504553Y478600D01*
X504350Y478628D01*
X504137Y478656D01*
X503915Y478702D01*
X503693Y478757D01*
X503684D01*
X503665Y478767D01*
X503638Y478776D01*
X503601Y478785D01*
X503499Y478822D01*
X503370Y478877D01*
X503222Y478933D01*
X503074Y479007D01*
X502916Y479099D01*
X502769Y479192D01*
X502750Y479201D01*
X502704Y479238D01*
X502639Y479294D01*
X502556Y479367D01*
X502463Y479451D01*
X502371Y479552D01*
X502269Y479654D01*
X502186Y479774D01*
X502177Y479793D01*
X502149Y479830D01*
X502112Y479894D01*
X502066Y479987D01*
X502010Y480098D01*
X501964Y480227D01*
X501909Y480375D01*
X501862Y480542D01*
Y480560D01*
X501853Y480588D01*
X501844Y480616D01*
X501835Y480708D01*
X501816Y480838D01*
X501798Y480985D01*
X501779Y481161D01*
X501770Y481355D01*
X501761Y481568D01*
Y483870D01*
X508159D01*
Y481411D01*
D02*
G37*
G36*
X504923Y477768D02*
X505052D01*
X505200Y477759D01*
X505376Y477740D01*
X505570Y477722D01*
X505783Y477694D01*
X505995Y477657D01*
X506226Y477611D01*
X506448Y477555D01*
X506670Y477491D01*
X506883Y477407D01*
X507086Y477315D01*
X507280Y477213D01*
X507447Y477093D01*
X507456Y477084D01*
X507475Y477065D01*
X507512Y477028D01*
X507567Y476982D01*
X507622Y476927D01*
X507678Y476853D01*
X507752Y476760D01*
X507817Y476668D01*
X507881Y476557D01*
X507955Y476437D01*
X508011Y476298D01*
X508076Y476159D01*
X508122Y476002D01*
X508159Y475836D01*
X508177Y475660D01*
X508186Y475475D01*
Y475401D01*
X508177Y475346D01*
Y475281D01*
X508168Y475207D01*
X508131Y475031D01*
X508085Y474837D01*
X508011Y474634D01*
X507900Y474430D01*
X507835Y474329D01*
X507761Y474236D01*
X507752Y474227D01*
X507743Y474218D01*
X507715Y474190D01*
X507687Y474162D01*
X507641Y474116D01*
X507585Y474079D01*
X507456Y473977D01*
X507290Y473876D01*
X507086Y473783D01*
X506855Y473700D01*
X506596Y473644D01*
X506531Y474430D01*
X506541D01*
X506550Y474440D01*
X506605Y474449D01*
X506689Y474477D01*
X506790Y474514D01*
X506901Y474551D01*
X507012Y474606D01*
X507114Y474671D01*
X507197Y474735D01*
X507216Y474754D01*
X507253Y474791D01*
X507308Y474856D01*
X507373Y474948D01*
X507428Y475068D01*
X507484Y475198D01*
X507521Y475355D01*
X507539Y475521D01*
Y475586D01*
X507530Y475660D01*
X507512Y475743D01*
X507484Y475854D01*
X507447Y475965D01*
X507401Y476076D01*
X507327Y476187D01*
X507317Y476205D01*
X507280Y476252D01*
X507216Y476316D01*
X507123Y476400D01*
X507012Y476492D01*
X506883Y476594D01*
X506716Y476686D01*
X506531Y476779D01*
X506522D01*
X506504Y476788D01*
X506476Y476797D01*
X506439Y476816D01*
X506384Y476825D01*
X506319Y476843D01*
X506245Y476862D01*
X506152Y476880D01*
X506051Y476908D01*
X505940Y476927D01*
X505820Y476945D01*
X505690Y476954D01*
X505542Y476973D01*
X505394Y476982D01*
X505228Y476991D01*
X505061D01*
X505071Y476982D01*
X505126Y476945D01*
X505200Y476880D01*
X505293Y476797D01*
X505404Y476705D01*
X505505Y476585D01*
X505607Y476455D01*
X505699Y476307D01*
Y476298D01*
X505709Y476289D01*
X505736Y476233D01*
X505764Y476150D01*
X505810Y476039D01*
X505847Y475910D01*
X505875Y475762D01*
X505903Y475605D01*
X505912Y475438D01*
Y475364D01*
X505903Y475309D01*
X505894Y475235D01*
X505884Y475161D01*
X505866Y475068D01*
X505838Y474976D01*
X505773Y474763D01*
X505727Y474652D01*
X505662Y474541D01*
X505598Y474430D01*
X505524Y474310D01*
X505431Y474199D01*
X505330Y474098D01*
X505320Y474088D01*
X505302Y474070D01*
X505274Y474042D01*
X505228Y474014D01*
X505163Y473968D01*
X505098Y473922D01*
X505015Y473876D01*
X504923Y473820D01*
X504821Y473765D01*
X504710Y473718D01*
X504581Y473672D01*
X504451Y473626D01*
X504313Y473598D01*
X504155Y473571D01*
X503998Y473552D01*
X503832Y473543D01*
X503823D01*
X503804D01*
X503776D01*
X503730D01*
X503675Y473552D01*
X503619D01*
X503471Y473580D01*
X503296Y473607D01*
X503111Y473654D01*
X502907Y473718D01*
X502713Y473811D01*
X502704D01*
X502695Y473820D01*
X502667Y473839D01*
X502630Y473857D01*
X502537Y473913D01*
X502417Y473996D01*
X502288Y474098D01*
X502158Y474218D01*
X502029Y474366D01*
X501918Y474523D01*
Y474532D01*
X501909Y474541D01*
X501890Y474569D01*
X501881Y474606D01*
X501835Y474698D01*
X501789Y474819D01*
X501733Y474976D01*
X501696Y475151D01*
X501659Y475346D01*
X501650Y475558D01*
Y475605D01*
X501659Y475651D01*
Y475725D01*
X501668Y475808D01*
X501687Y475900D01*
X501715Y476011D01*
X501742Y476122D01*
X501779Y476252D01*
X501825Y476381D01*
X501881Y476511D01*
X501955Y476649D01*
X502038Y476779D01*
X502131Y476908D01*
X502242Y477038D01*
X502371Y477158D01*
X502380Y477167D01*
X502408Y477186D01*
X502445Y477213D01*
X502510Y477250D01*
X502593Y477306D01*
X502685Y477352D01*
X502806Y477407D01*
X502935Y477463D01*
X503092Y477528D01*
X503268Y477583D01*
X503462Y477629D01*
X503675Y477676D01*
X503915Y477722D01*
X504174Y477749D01*
X504451Y477768D01*
X504747Y477777D01*
X504756D01*
X504766D01*
X504793D01*
X504830D01*
X504923Y477768D01*
D02*
G37*
G36*
X27860Y339763D02*
X22858D01*
X22867Y339754D01*
X22904Y339708D01*
X22960Y339652D01*
X23024Y339560D01*
X23108Y339458D01*
X23200Y339329D01*
X23302Y339181D01*
X23403Y339014D01*
Y339005D01*
X23413Y338996D01*
X23450Y338940D01*
X23496Y338848D01*
X23551Y338737D01*
X23616Y338607D01*
X23681Y338469D01*
X23746Y338330D01*
X23801Y338191D01*
X23043D01*
Y338201D01*
X23024Y338219D01*
X23015Y338256D01*
X22987Y338302D01*
X22960Y338358D01*
X22923Y338423D01*
X22830Y338580D01*
X22729Y338765D01*
X22599Y338950D01*
X22451Y339144D01*
X22294Y339338D01*
X22285Y339347D01*
X22276Y339356D01*
X22248Y339384D01*
X22220Y339421D01*
X22127Y339504D01*
X22017Y339615D01*
X21887Y339726D01*
X21739Y339846D01*
X21591Y339948D01*
X21434Y340041D01*
Y340549D01*
X27860D01*
Y339763D01*
D02*
G37*
G36*
Y336037D02*
X26528Y335196D01*
X26519D01*
X26501Y335177D01*
X26473Y335159D01*
X26436Y335131D01*
X26334Y335066D01*
X26205Y334983D01*
X26066Y334882D01*
X25918Y334780D01*
X25780Y334678D01*
X25650Y334586D01*
X25641Y334576D01*
X25604Y334549D01*
X25548Y334502D01*
X25484Y334438D01*
X25345Y334299D01*
X25280Y334225D01*
X25225Y334151D01*
X25216Y334142D01*
X25206Y334123D01*
X25188Y334086D01*
X25160Y334031D01*
X25132Y333975D01*
X25105Y333911D01*
X25058Y333763D01*
Y333754D01*
X25049Y333735D01*
Y333698D01*
X25040Y333652D01*
X25031Y333587D01*
Y333513D01*
X25021Y333411D01*
Y332321D01*
X27860D01*
Y331470D01*
X21462D01*
Y334438D01*
X21471Y334512D01*
Y334595D01*
X21480Y334789D01*
X21508Y334992D01*
X21536Y335214D01*
X21582Y335418D01*
X21610Y335519D01*
X21637Y335603D01*
Y335612D01*
X21647Y335621D01*
X21674Y335677D01*
X21711Y335760D01*
X21776Y335862D01*
X21859Y335973D01*
X21970Y336093D01*
X22100Y336204D01*
X22248Y336315D01*
X22257D01*
X22266Y336324D01*
X22322Y336361D01*
X22414Y336398D01*
X22534Y336453D01*
X22673Y336499D01*
X22840Y336546D01*
X23015Y336573D01*
X23209Y336583D01*
X23219D01*
X23237D01*
X23274D01*
X23320Y336573D01*
X23385D01*
X23450Y336564D01*
X23607Y336527D01*
X23792Y336472D01*
X23986Y336398D01*
X24180Y336287D01*
X24272Y336213D01*
X24365Y336139D01*
X24374Y336130D01*
X24383Y336120D01*
X24411Y336093D01*
X24439Y336056D01*
X24476Y336009D01*
X24513Y335954D01*
X24559Y335880D01*
X24615Y335806D01*
X24661Y335714D01*
X24707Y335612D01*
X24762Y335501D01*
X24809Y335381D01*
X24846Y335242D01*
X24892Y335103D01*
X24920Y334946D01*
X24947Y334780D01*
X24957Y334798D01*
X24975Y334835D01*
X25012Y334891D01*
X25049Y334965D01*
X25151Y335131D01*
X25216Y335214D01*
X25271Y335288D01*
X25289Y335307D01*
X25336Y335353D01*
X25410Y335427D01*
X25502Y335519D01*
X25632Y335621D01*
X25770Y335741D01*
X25937Y335862D01*
X26122Y335991D01*
X27860Y337091D01*
Y336037D01*
D02*
G37*
G36*
X402301Y637531D02*
X402384D01*
X402486Y637522D01*
X402597Y637503D01*
X402726Y637485D01*
X402994Y637438D01*
X403272Y637364D01*
X403549Y637263D01*
X403679Y637198D01*
X403808Y637124D01*
X403817Y637115D01*
X403836Y637105D01*
X403873Y637078D01*
X403910Y637041D01*
X403965Y637004D01*
X404030Y636948D01*
X404104Y636884D01*
X404178Y636810D01*
X404252Y636726D01*
X404335Y636643D01*
X404501Y636431D01*
X404659Y636181D01*
X404797Y635904D01*
Y635894D01*
X404816Y635867D01*
X404825Y635820D01*
X404853Y635765D01*
X404871Y635691D01*
X404899Y635598D01*
X404936Y635497D01*
X404964Y635386D01*
X404991Y635266D01*
X405028Y635127D01*
X405075Y634840D01*
X405112Y634517D01*
X405130Y634184D01*
Y634175D01*
Y634138D01*
Y634082D01*
X405121Y634017D01*
Y633925D01*
X405112Y633833D01*
X405102Y633712D01*
X405084Y633592D01*
X405038Y633324D01*
X404973Y633028D01*
X404880Y632732D01*
X404751Y632446D01*
X404742Y632436D01*
X404733Y632409D01*
X404714Y632372D01*
X404677Y632326D01*
X404640Y632261D01*
X404594Y632187D01*
X404474Y632020D01*
X404316Y631836D01*
X404132Y631651D01*
X403919Y631466D01*
X403669Y631309D01*
X403660Y631299D01*
X403632Y631290D01*
X403595Y631272D01*
X403549Y631244D01*
X403475Y631216D01*
X403401Y631188D01*
X403309Y631151D01*
X403207Y631114D01*
X403096Y631077D01*
X402976Y631040D01*
X402717Y630985D01*
X402421Y630939D01*
X402116Y630920D01*
X402024D01*
X401959Y630929D01*
X401876Y630939D01*
X401774Y630948D01*
X401672Y630957D01*
X401552Y630985D01*
X401302Y631040D01*
X401025Y631124D01*
X400886Y631179D01*
X400757Y631244D01*
X400628Y631327D01*
X400498Y631410D01*
X400489Y631419D01*
X400470Y631429D01*
X400433Y631456D01*
X400387Y631503D01*
X400341Y631549D01*
X400276Y631614D01*
X400211Y631688D01*
X400137Y631762D01*
X400064Y631854D01*
X399990Y631965D01*
X399906Y632076D01*
X399832Y632196D01*
X399768Y632335D01*
X399694Y632473D01*
X399638Y632621D01*
X399583Y632788D01*
X400415Y632982D01*
Y632973D01*
X400424Y632954D01*
X400443Y632917D01*
X400461Y632871D01*
X400480Y632816D01*
X400507Y632742D01*
X400581Y632594D01*
X400674Y632427D01*
X400785Y632261D01*
X400923Y632104D01*
X401071Y631965D01*
X401090Y631946D01*
X401145Y631909D01*
X401238Y631863D01*
X401358Y631799D01*
X401515Y631743D01*
X401691Y631688D01*
X401903Y631651D01*
X402135Y631641D01*
X402209D01*
X402255Y631651D01*
X402319D01*
X402393Y631660D01*
X402569Y631688D01*
X402763Y631725D01*
X402967Y631789D01*
X403179Y631882D01*
X403373Y632002D01*
X403383D01*
X403392Y632020D01*
X403457Y632067D01*
X403540Y632141D01*
X403642Y632252D01*
X403762Y632390D01*
X403873Y632547D01*
X403974Y632742D01*
X404067Y632954D01*
Y632963D01*
X404076Y632982D01*
X404085Y633010D01*
X404095Y633056D01*
X404113Y633111D01*
X404132Y633176D01*
X404159Y633333D01*
X404196Y633518D01*
X404233Y633722D01*
X404252Y633943D01*
X404261Y634184D01*
Y634193D01*
Y634221D01*
Y634267D01*
Y634323D01*
X404252Y634387D01*
Y634470D01*
X404243Y634563D01*
X404233Y634665D01*
X404206Y634887D01*
X404159Y635127D01*
X404104Y635367D01*
X404030Y635608D01*
Y635617D01*
X404021Y635635D01*
X404002Y635663D01*
X403984Y635709D01*
X403928Y635820D01*
X403845Y635950D01*
X403743Y636098D01*
X403614Y636255D01*
X403466Y636394D01*
X403290Y636523D01*
X403281D01*
X403262Y636532D01*
X403235Y636551D01*
X403198Y636569D01*
X403152Y636588D01*
X403096Y636615D01*
X402967Y636671D01*
X402800Y636726D01*
X402615Y636773D01*
X402412Y636810D01*
X402199Y636819D01*
X402135D01*
X402079Y636810D01*
X402014D01*
X401950Y636800D01*
X401783Y636763D01*
X401589Y636717D01*
X401395Y636643D01*
X401191Y636542D01*
X401090Y636486D01*
X400997Y636412D01*
X400988Y636403D01*
X400979Y636394D01*
X400951Y636366D01*
X400914Y636338D01*
X400877Y636292D01*
X400831Y636236D01*
X400775Y636181D01*
X400729Y636107D01*
X400674Y636024D01*
X400609Y635931D01*
X400554Y635839D01*
X400498Y635728D01*
X400452Y635608D01*
X400406Y635478D01*
X400359Y635340D01*
X400322Y635192D01*
X399472Y635404D01*
Y635414D01*
X399481Y635451D01*
X399500Y635506D01*
X399527Y635580D01*
X399555Y635663D01*
X399592Y635765D01*
X399638Y635876D01*
X399694Y635996D01*
X399823Y636255D01*
X399990Y636514D01*
X400091Y636643D01*
X400193Y636773D01*
X400304Y636884D01*
X400433Y636995D01*
X400443Y637004D01*
X400461Y637022D01*
X400507Y637041D01*
X400554Y637078D01*
X400628Y637124D01*
X400701Y637170D01*
X400803Y637216D01*
X400905Y637263D01*
X401025Y637318D01*
X401155Y637364D01*
X401293Y637411D01*
X401441Y637457D01*
X401598Y637494D01*
X401765Y637512D01*
X401940Y637531D01*
X402125Y637540D01*
X402227D01*
X402301Y637531D01*
D02*
G37*
G36*
X391262Y635894D02*
X394045D01*
Y635173D01*
X391114Y631031D01*
X390476D01*
Y635173D01*
X389607D01*
Y635894D01*
X390476D01*
Y637429D01*
X391262D01*
Y635894D01*
D02*
G37*
G36*
X396578Y632427D02*
X396587Y632436D01*
X396633Y632473D01*
X396689Y632529D01*
X396781Y632594D01*
X396883Y632677D01*
X397012Y632769D01*
X397160Y632871D01*
X397327Y632973D01*
X397336D01*
X397345Y632982D01*
X397401Y633019D01*
X397493Y633065D01*
X397604Y633121D01*
X397734Y633185D01*
X397872Y633250D01*
X398011Y633315D01*
X398150Y633370D01*
Y632612D01*
X398140D01*
X398122Y632594D01*
X398085Y632584D01*
X398039Y632557D01*
X397983Y632529D01*
X397919Y632492D01*
X397761Y632399D01*
X397576Y632298D01*
X397392Y632168D01*
X397197Y632020D01*
X397003Y631863D01*
X396994Y631854D01*
X396985Y631845D01*
X396957Y631817D01*
X396920Y631789D01*
X396837Y631697D01*
X396726Y631586D01*
X396615Y631456D01*
X396495Y631309D01*
X396393Y631161D01*
X396301Y631003D01*
X395792D01*
Y637429D01*
X396578D01*
Y632427D01*
D02*
G37*
G36*
X142922Y341779D02*
X142996Y341769D01*
X143079Y341751D01*
X143171Y341732D01*
X143273Y341714D01*
X143495Y341640D01*
X143615Y341585D01*
X143726Y341529D01*
X143846Y341455D01*
X143967Y341372D01*
X144087Y341279D01*
X144198Y341169D01*
X144207Y341159D01*
X144225Y341141D01*
X144253Y341104D01*
X144290Y341058D01*
X144336Y341002D01*
X144382Y340928D01*
X144438Y340845D01*
X144484Y340743D01*
X144540Y340642D01*
X144595Y340521D01*
X144641Y340401D01*
X144688Y340262D01*
X144725Y340115D01*
X144752Y339957D01*
X144771Y339800D01*
X144780Y339624D01*
Y339541D01*
X144771Y339486D01*
X144762Y339412D01*
X144752Y339329D01*
X144734Y339236D01*
X144715Y339134D01*
X144660Y338913D01*
X144567Y338681D01*
X144512Y338561D01*
X144447Y338450D01*
X144364Y338339D01*
X144281Y338228D01*
X144272Y338219D01*
X144253Y338201D01*
X144225Y338173D01*
X144188Y338145D01*
X144142Y338099D01*
X144077Y338053D01*
X144013Y337997D01*
X143930Y337942D01*
X143837Y337886D01*
X143745Y337831D01*
X143523Y337729D01*
X143264Y337646D01*
X143125Y337618D01*
X142977Y337600D01*
X142875Y338386D01*
X142885D01*
X142903Y338395D01*
X142940Y338404D01*
X142986Y338413D01*
X143042Y338423D01*
X143107Y338441D01*
X143245Y338487D01*
X143412Y338552D01*
X143569Y338635D01*
X143717Y338728D01*
X143846Y338839D01*
X143855Y338857D01*
X143892Y338894D01*
X143939Y338968D01*
X143985Y339061D01*
X144040Y339171D01*
X144087Y339310D01*
X144124Y339467D01*
X144133Y339634D01*
Y339689D01*
X144124Y339726D01*
X144114Y339828D01*
X144087Y339957D01*
X144040Y340105D01*
X143976Y340262D01*
X143883Y340420D01*
X143754Y340568D01*
X143735Y340586D01*
X143680Y340632D01*
X143597Y340688D01*
X143486Y340762D01*
X143347Y340836D01*
X143190Y340891D01*
X143005Y340937D01*
X142802Y340956D01*
X142792D01*
X142774D01*
X142746D01*
X142709Y340947D01*
X142607Y340937D01*
X142487Y340910D01*
X142339Y340873D01*
X142191Y340808D01*
X142043Y340715D01*
X141905Y340595D01*
X141886Y340577D01*
X141849Y340531D01*
X141794Y340457D01*
X141729Y340355D01*
X141664Y340225D01*
X141609Y340068D01*
X141572Y339893D01*
X141553Y339698D01*
Y339615D01*
X141563Y339551D01*
X141572Y339467D01*
X141590Y339375D01*
X141609Y339264D01*
X141637Y339144D01*
X140943Y339236D01*
Y339282D01*
X140952Y339319D01*
Y339440D01*
X140934Y339541D01*
X140915Y339661D01*
X140888Y339800D01*
X140842Y339957D01*
X140777Y340105D01*
X140694Y340262D01*
Y340272D01*
X140684Y340281D01*
X140647Y340327D01*
X140583Y340392D01*
X140499Y340466D01*
X140379Y340540D01*
X140240Y340605D01*
X140083Y340651D01*
X139991Y340669D01*
X139889D01*
X139880D01*
X139871D01*
X139815D01*
X139741Y340651D01*
X139640Y340632D01*
X139529Y340595D01*
X139408Y340549D01*
X139288Y340475D01*
X139177Y340373D01*
X139168Y340364D01*
X139131Y340318D01*
X139085Y340253D01*
X139029Y340170D01*
X138983Y340059D01*
X138937Y339930D01*
X138900Y339782D01*
X138891Y339615D01*
Y339541D01*
X138909Y339458D01*
X138928Y339347D01*
X138965Y339227D01*
X139011Y339107D01*
X139085Y338977D01*
X139177Y338857D01*
X139186Y338848D01*
X139233Y338811D01*
X139297Y338755D01*
X139390Y338691D01*
X139510Y338626D01*
X139658Y338561D01*
X139834Y338506D01*
X140037Y338469D01*
X139898Y337683D01*
X139889D01*
X139861Y337692D01*
X139824Y337701D01*
X139769Y337711D01*
X139704Y337729D01*
X139630Y337757D01*
X139455Y337812D01*
X139251Y337905D01*
X139048Y338016D01*
X138854Y338154D01*
X138678Y338330D01*
X138669Y338339D01*
X138659Y338358D01*
X138641Y338386D01*
X138613Y338423D01*
X138576Y338469D01*
X138539Y338534D01*
X138502Y338598D01*
X138456Y338681D01*
X138382Y338866D01*
X138308Y339079D01*
X138262Y339329D01*
X138243Y339458D01*
Y339689D01*
X138253Y339791D01*
X138271Y339911D01*
X138299Y340059D01*
X138345Y340225D01*
X138401Y340392D01*
X138475Y340558D01*
Y340568D01*
X138484Y340577D01*
X138512Y340632D01*
X138567Y340715D01*
X138632Y340808D01*
X138724Y340919D01*
X138826Y341030D01*
X138946Y341141D01*
X139085Y341233D01*
X139103Y341242D01*
X139150Y341270D01*
X139233Y341307D01*
X139334Y341353D01*
X139455Y341400D01*
X139593Y341437D01*
X139750Y341464D01*
X139908Y341474D01*
X139926D01*
X139982D01*
X140056Y341464D01*
X140157Y341446D01*
X140278Y341418D01*
X140407Y341372D01*
X140536Y341316D01*
X140666Y341242D01*
X140684Y341233D01*
X140721Y341205D01*
X140786Y341150D01*
X140860Y341076D01*
X140943Y340984D01*
X141036Y340873D01*
X141119Y340743D01*
X141202Y340586D01*
Y340595D01*
X141211Y340614D01*
X141221Y340642D01*
X141230Y340678D01*
X141267Y340780D01*
X141322Y340910D01*
X141396Y341058D01*
X141489Y341205D01*
X141609Y341344D01*
X141748Y341474D01*
X141766Y341483D01*
X141821Y341520D01*
X141914Y341575D01*
X142034Y341631D01*
X142182Y341686D01*
X142358Y341742D01*
X142561Y341779D01*
X142783Y341788D01*
X142792D01*
X142820D01*
X142866D01*
X142922Y341779D01*
D02*
G37*
G36*
X144669Y336037D02*
X143338Y335196D01*
X143329D01*
X143310Y335177D01*
X143282Y335159D01*
X143245Y335131D01*
X143144Y335066D01*
X143014Y334983D01*
X142875Y334882D01*
X142728Y334780D01*
X142589Y334678D01*
X142459Y334586D01*
X142450Y334576D01*
X142413Y334549D01*
X142358Y334502D01*
X142293Y334438D01*
X142154Y334299D01*
X142090Y334225D01*
X142034Y334151D01*
X142025Y334142D01*
X142016Y334123D01*
X141997Y334086D01*
X141969Y334031D01*
X141942Y333975D01*
X141914Y333911D01*
X141868Y333763D01*
Y333754D01*
X141859Y333735D01*
Y333698D01*
X141849Y333652D01*
X141840Y333587D01*
Y333513D01*
X141831Y333411D01*
Y332321D01*
X144669D01*
Y331470D01*
X138271D01*
Y334438D01*
X138280Y334512D01*
Y334595D01*
X138290Y334789D01*
X138317Y334992D01*
X138345Y335214D01*
X138391Y335418D01*
X138419Y335519D01*
X138447Y335603D01*
Y335612D01*
X138456Y335621D01*
X138484Y335677D01*
X138521Y335760D01*
X138586Y335862D01*
X138669Y335973D01*
X138780Y336093D01*
X138909Y336204D01*
X139057Y336315D01*
X139066D01*
X139075Y336324D01*
X139131Y336361D01*
X139223Y336398D01*
X139344Y336453D01*
X139482Y336499D01*
X139649Y336546D01*
X139824Y336573D01*
X140019Y336583D01*
X140028D01*
X140046D01*
X140083D01*
X140129Y336573D01*
X140194D01*
X140259Y336564D01*
X140416Y336527D01*
X140601Y336472D01*
X140795Y336398D01*
X140989Y336287D01*
X141082Y336213D01*
X141174Y336139D01*
X141184Y336130D01*
X141193Y336120D01*
X141221Y336093D01*
X141248Y336056D01*
X141285Y336009D01*
X141322Y335954D01*
X141368Y335880D01*
X141424Y335806D01*
X141470Y335714D01*
X141516Y335612D01*
X141572Y335501D01*
X141618Y335381D01*
X141655Y335242D01*
X141701Y335103D01*
X141729Y334946D01*
X141757Y334780D01*
X141766Y334798D01*
X141784Y334835D01*
X141821Y334891D01*
X141859Y334965D01*
X141960Y335131D01*
X142025Y335214D01*
X142080Y335288D01*
X142099Y335307D01*
X142145Y335353D01*
X142219Y335427D01*
X142311Y335519D01*
X142441Y335621D01*
X142580Y335741D01*
X142746Y335862D01*
X142931Y335991D01*
X144669Y337091D01*
Y336037D01*
D02*
G37*
G36*
X86320Y337089D02*
X86311D01*
X86274D01*
X86218D01*
X86144Y337099D01*
X86061Y337108D01*
X85969Y337126D01*
X85876Y337145D01*
X85774Y337182D01*
X85765D01*
X85756Y337191D01*
X85701Y337210D01*
X85617Y337247D01*
X85506Y337302D01*
X85377Y337376D01*
X85229Y337468D01*
X85081Y337570D01*
X84924Y337700D01*
X84915D01*
X84905Y337718D01*
X84850Y337764D01*
X84767Y337848D01*
X84647Y337968D01*
X84508Y338106D01*
X84341Y338282D01*
X84157Y338495D01*
X83962Y338726D01*
X83953Y338735D01*
X83925Y338772D01*
X83879Y338828D01*
X83824Y338892D01*
X83750Y338975D01*
X83666Y339077D01*
X83574Y339179D01*
X83472Y339299D01*
X83250Y339530D01*
X83028Y339761D01*
X82918Y339872D01*
X82807Y339974D01*
X82705Y340066D01*
X82603Y340140D01*
X82594D01*
X82585Y340159D01*
X82557Y340177D01*
X82520Y340196D01*
X82418Y340261D01*
X82298Y340335D01*
X82150Y340399D01*
X81993Y340464D01*
X81817Y340501D01*
X81651Y340519D01*
X81642D01*
X81632D01*
X81577Y340510D01*
X81484Y340501D01*
X81383Y340473D01*
X81253Y340436D01*
X81124Y340372D01*
X80995Y340288D01*
X80865Y340177D01*
X80847Y340159D01*
X80810Y340113D01*
X80763Y340048D01*
X80699Y339946D01*
X80643Y339817D01*
X80588Y339669D01*
X80551Y339493D01*
X80541Y339299D01*
Y339244D01*
X80551Y339207D01*
X80560Y339096D01*
X80588Y338966D01*
X80625Y338828D01*
X80689Y338670D01*
X80773Y338522D01*
X80884Y338384D01*
X80902Y338365D01*
X80948Y338328D01*
X81022Y338273D01*
X81133Y338217D01*
X81263Y338153D01*
X81429Y338097D01*
X81614Y338060D01*
X81827Y338042D01*
X81743Y337237D01*
X81734D01*
X81706Y337247D01*
X81660D01*
X81595Y337256D01*
X81522Y337274D01*
X81438Y337293D01*
X81337Y337321D01*
X81235Y337348D01*
X81013Y337422D01*
X80791Y337533D01*
X80680Y337598D01*
X80569Y337681D01*
X80468Y337764D01*
X80375Y337857D01*
X80366Y337866D01*
X80357Y337884D01*
X80329Y337912D01*
X80301Y337958D01*
X80264Y338014D01*
X80227Y338079D01*
X80181Y338153D01*
X80135Y338245D01*
X80088Y338347D01*
X80042Y338458D01*
X80005Y338578D01*
X79968Y338707D01*
X79941Y338846D01*
X79913Y338994D01*
X79903Y339151D01*
X79894Y339318D01*
Y339410D01*
X79903Y339475D01*
X79913Y339549D01*
X79922Y339641D01*
X79941Y339743D01*
X79959Y339845D01*
X80024Y340085D01*
X80116Y340325D01*
X80172Y340446D01*
X80236Y340566D01*
X80319Y340677D01*
X80412Y340778D01*
X80421Y340788D01*
X80430Y340806D01*
X80468Y340825D01*
X80505Y340862D01*
X80551Y340908D01*
X80615Y340954D01*
X80680Y341000D01*
X80763Y341056D01*
X80939Y341148D01*
X81161Y341241D01*
X81272Y341278D01*
X81401Y341296D01*
X81531Y341315D01*
X81669Y341324D01*
X81688D01*
X81734D01*
X81808Y341315D01*
X81910Y341305D01*
X82021Y341287D01*
X82150Y341250D01*
X82289Y341213D01*
X82428Y341157D01*
X82446Y341148D01*
X82492Y341130D01*
X82566Y341093D01*
X82668Y341037D01*
X82779Y340963D01*
X82918Y340871D01*
X83056Y340760D01*
X83213Y340630D01*
X83232Y340612D01*
X83287Y340566D01*
X83334Y340519D01*
X83380Y340473D01*
X83435Y340418D01*
X83509Y340344D01*
X83583Y340270D01*
X83666Y340177D01*
X83759Y340085D01*
X83861Y339974D01*
X83962Y339854D01*
X84082Y339724D01*
X84203Y339576D01*
X84332Y339428D01*
X84341Y339419D01*
X84360Y339401D01*
X84388Y339364D01*
X84425Y339318D01*
X84480Y339262D01*
X84536Y339197D01*
X84656Y339049D01*
X84794Y338892D01*
X84933Y338744D01*
X85053Y338615D01*
X85099Y338559D01*
X85146Y338513D01*
X85155Y338504D01*
X85183Y338476D01*
X85220Y338439D01*
X85275Y338393D01*
X85340Y338347D01*
X85405Y338291D01*
X85562Y338180D01*
Y341333D01*
X86320D01*
Y337089D01*
D02*
G37*
G36*
Y335647D02*
X84989Y334806D01*
X84979D01*
X84961Y334787D01*
X84933Y334769D01*
X84896Y334741D01*
X84794Y334676D01*
X84665Y334593D01*
X84526Y334491D01*
X84378Y334390D01*
X84240Y334288D01*
X84110Y334196D01*
X84101Y334186D01*
X84064Y334159D01*
X84009Y334112D01*
X83944Y334048D01*
X83805Y333909D01*
X83740Y333835D01*
X83685Y333761D01*
X83676Y333752D01*
X83666Y333733D01*
X83648Y333696D01*
X83620Y333641D01*
X83593Y333585D01*
X83565Y333521D01*
X83518Y333373D01*
Y333363D01*
X83509Y333345D01*
Y333308D01*
X83500Y333262D01*
X83491Y333197D01*
Y333123D01*
X83482Y333021D01*
Y331930D01*
X86320D01*
Y331080D01*
X79922D01*
Y334048D01*
X79931Y334122D01*
Y334205D01*
X79941Y334399D01*
X79968Y334602D01*
X79996Y334824D01*
X80042Y335028D01*
X80070Y335129D01*
X80098Y335213D01*
Y335222D01*
X80107Y335231D01*
X80135Y335286D01*
X80172Y335370D01*
X80236Y335471D01*
X80319Y335582D01*
X80430Y335703D01*
X80560Y335813D01*
X80708Y335924D01*
X80717D01*
X80726Y335934D01*
X80782Y335971D01*
X80874Y336008D01*
X80995Y336063D01*
X81133Y336109D01*
X81300Y336156D01*
X81475Y336183D01*
X81669Y336193D01*
X81679D01*
X81697D01*
X81734D01*
X81780Y336183D01*
X81845D01*
X81910Y336174D01*
X82067Y336137D01*
X82252Y336082D01*
X82446Y336008D01*
X82640Y335897D01*
X82733Y335823D01*
X82825Y335749D01*
X82834Y335740D01*
X82844Y335730D01*
X82871Y335703D01*
X82899Y335666D01*
X82936Y335619D01*
X82973Y335564D01*
X83019Y335490D01*
X83075Y335416D01*
X83121Y335323D01*
X83167Y335222D01*
X83223Y335111D01*
X83269Y334991D01*
X83306Y334852D01*
X83352Y334713D01*
X83380Y334556D01*
X83408Y334390D01*
X83417Y334408D01*
X83435Y334445D01*
X83472Y334501D01*
X83509Y334575D01*
X83611Y334741D01*
X83676Y334824D01*
X83731Y334898D01*
X83750Y334917D01*
X83796Y334963D01*
X83870Y335037D01*
X83962Y335129D01*
X84092Y335231D01*
X84230Y335351D01*
X84397Y335471D01*
X84582Y335601D01*
X86320Y336701D01*
Y335647D01*
D02*
G37*
G36*
X552206Y81734D02*
X552280Y81725D01*
X552363Y81715D01*
X552465Y81697D01*
X552566Y81678D01*
X552807Y81623D01*
X553057Y81531D01*
X553186Y81475D01*
X553306Y81401D01*
X553436Y81327D01*
X553556Y81235D01*
X553565Y81225D01*
X553593Y81207D01*
X553630Y81170D01*
X553676Y81124D01*
X553731Y81059D01*
X553805Y80985D01*
X553870Y80893D01*
X553944Y80791D01*
X554018Y80680D01*
X554083Y80550D01*
X554147Y80412D01*
X554212Y80264D01*
X554258Y80107D01*
X554296Y79931D01*
X554323Y79746D01*
X554332Y79552D01*
Y79469D01*
X554323Y79404D01*
X554314Y79330D01*
X554305Y79247D01*
X554296Y79145D01*
X554268Y79043D01*
X554212Y78812D01*
X554129Y78581D01*
X554074Y78461D01*
X554009Y78341D01*
X553935Y78230D01*
X553852Y78119D01*
X553842Y78110D01*
X553833Y78091D01*
X553796Y78073D01*
X553759Y78036D01*
X553713Y77990D01*
X553657Y77943D01*
X553584Y77888D01*
X553500Y77842D01*
X553417Y77786D01*
X553315Y77731D01*
X553093Y77629D01*
X552835Y77546D01*
X552696Y77518D01*
X552548Y77499D01*
X552483Y78322D01*
X552493D01*
X552511D01*
X552539Y78332D01*
X552585Y78341D01*
X552687Y78369D01*
X552825Y78405D01*
X552964Y78461D01*
X553121Y78535D01*
X553260Y78627D01*
X553389Y78738D01*
X553399Y78757D01*
X553436Y78794D01*
X553482Y78868D01*
X553537Y78969D01*
X553593Y79081D01*
X553639Y79219D01*
X553676Y79376D01*
X553685Y79552D01*
Y79608D01*
X553676Y79644D01*
X553667Y79755D01*
X553630Y79885D01*
X553584Y80042D01*
X553510Y80199D01*
X553399Y80366D01*
X553334Y80440D01*
X553260Y80513D01*
X553251Y80523D01*
X553242Y80532D01*
X553214Y80550D01*
X553186Y80578D01*
X553084Y80643D01*
X552955Y80717D01*
X552798Y80782D01*
X552603Y80846D01*
X552372Y80893D01*
X552252Y80911D01*
X552123D01*
X552113D01*
X552095D01*
X552058D01*
X552012Y80902D01*
X551956D01*
X551892Y80893D01*
X551744Y80865D01*
X551568Y80819D01*
X551392Y80754D01*
X551226Y80661D01*
X551069Y80532D01*
X551059D01*
X551050Y80513D01*
X551004Y80467D01*
X550939Y80384D01*
X550865Y80273D01*
X550801Y80125D01*
X550736Y79959D01*
X550690Y79765D01*
X550671Y79654D01*
Y79478D01*
X550680Y79404D01*
X550690Y79312D01*
X550717Y79201D01*
X550745Y79090D01*
X550791Y78969D01*
X550847Y78849D01*
X550856Y78840D01*
X550875Y78803D01*
X550921Y78748D01*
X550967Y78674D01*
X551032Y78600D01*
X551115Y78526D01*
X551198Y78443D01*
X551300Y78378D01*
X551198Y77638D01*
X547907Y78258D01*
Y81438D01*
X548656D01*
Y78877D01*
X550385Y78535D01*
X550375Y78544D01*
X550366Y78563D01*
X550348Y78590D01*
X550320Y78637D01*
X550292Y78692D01*
X550255Y78757D01*
X550181Y78905D01*
X550107Y79090D01*
X550042Y79293D01*
X549996Y79515D01*
X549978Y79626D01*
Y79829D01*
X549987Y79885D01*
X549996Y79959D01*
X550005Y80042D01*
X550024Y80134D01*
X550052Y80236D01*
X550117Y80458D01*
X550163Y80578D01*
X550227Y80698D01*
X550292Y80819D01*
X550366Y80939D01*
X550458Y81050D01*
X550560Y81161D01*
X550569Y81170D01*
X550588Y81188D01*
X550616Y81216D01*
X550662Y81253D01*
X550727Y81299D01*
X550791Y81346D01*
X550875Y81401D01*
X550967Y81457D01*
X551069Y81503D01*
X551180Y81558D01*
X551309Y81604D01*
X551439Y81651D01*
X551577Y81688D01*
X551734Y81715D01*
X551892Y81734D01*
X552058Y81743D01*
X552067D01*
X552095D01*
X552141D01*
X552206Y81734D01*
D02*
G37*
G36*
X552243Y76769D02*
X552298Y76751D01*
X552372Y76723D01*
X552456Y76695D01*
X552557Y76658D01*
X552668Y76612D01*
X552788Y76556D01*
X553047Y76427D01*
X553306Y76261D01*
X553436Y76159D01*
X553565Y76057D01*
X553676Y75946D01*
X553787Y75817D01*
X553796Y75807D01*
X553815Y75789D01*
X553833Y75743D01*
X553870Y75697D01*
X553916Y75623D01*
X553963Y75549D01*
X554009Y75447D01*
X554055Y75345D01*
X554111Y75225D01*
X554157Y75096D01*
X554203Y74957D01*
X554249Y74809D01*
X554286Y74652D01*
X554305Y74485D01*
X554323Y74310D01*
X554332Y74125D01*
Y74023D01*
X554323Y73949D01*
Y73866D01*
X554314Y73764D01*
X554296Y73653D01*
X554277Y73524D01*
X554231Y73256D01*
X554157Y72978D01*
X554055Y72701D01*
X553990Y72572D01*
X553916Y72442D01*
X553907Y72433D01*
X553898Y72414D01*
X553870Y72377D01*
X553833Y72340D01*
X553796Y72285D01*
X553741Y72220D01*
X553676Y72146D01*
X553602Y72072D01*
X553519Y71998D01*
X553436Y71915D01*
X553223Y71749D01*
X552973Y71592D01*
X552696Y71453D01*
X552687D01*
X552659Y71434D01*
X552613Y71425D01*
X552557Y71397D01*
X552483Y71379D01*
X552391Y71351D01*
X552289Y71314D01*
X552178Y71286D01*
X552058Y71259D01*
X551919Y71222D01*
X551633Y71175D01*
X551309Y71139D01*
X550976Y71120D01*
X550967D01*
X550930D01*
X550875D01*
X550810Y71129D01*
X550717D01*
X550625Y71139D01*
X550505Y71148D01*
X550385Y71166D01*
X550117Y71213D01*
X549821Y71277D01*
X549525Y71370D01*
X549238Y71499D01*
X549229Y71508D01*
X549201Y71518D01*
X549164Y71536D01*
X549118Y71573D01*
X549053Y71610D01*
X548979Y71656D01*
X548813Y71776D01*
X548628Y71934D01*
X548443Y72119D01*
X548258Y72331D01*
X548101Y72581D01*
X548092Y72590D01*
X548082Y72618D01*
X548064Y72655D01*
X548036Y72701D01*
X548008Y72775D01*
X547981Y72849D01*
X547944Y72941D01*
X547907Y73043D01*
X547870Y73154D01*
X547833Y73274D01*
X547777Y73533D01*
X547731Y73829D01*
X547713Y74134D01*
Y74226D01*
X547722Y74291D01*
X547731Y74374D01*
X547740Y74476D01*
X547750Y74578D01*
X547777Y74698D01*
X547833Y74948D01*
X547916Y75225D01*
X547971Y75364D01*
X548036Y75493D01*
X548119Y75623D01*
X548203Y75752D01*
X548212Y75761D01*
X548221Y75780D01*
X548249Y75817D01*
X548295Y75863D01*
X548341Y75909D01*
X548406Y75974D01*
X548480Y76039D01*
X548554Y76113D01*
X548646Y76187D01*
X548757Y76261D01*
X548868Y76344D01*
X548988Y76418D01*
X549127Y76482D01*
X549266Y76556D01*
X549414Y76612D01*
X549580Y76667D01*
X549774Y75835D01*
X549765D01*
X549747Y75826D01*
X549710Y75807D01*
X549663Y75789D01*
X549608Y75771D01*
X549534Y75743D01*
X549386Y75669D01*
X549220Y75576D01*
X549053Y75465D01*
X548896Y75327D01*
X548757Y75179D01*
X548739Y75160D01*
X548702Y75105D01*
X548656Y75012D01*
X548591Y74892D01*
X548535Y74735D01*
X548480Y74559D01*
X548443Y74347D01*
X548434Y74116D01*
Y74042D01*
X548443Y73995D01*
Y73931D01*
X548452Y73857D01*
X548480Y73681D01*
X548517Y73487D01*
X548582Y73284D01*
X548674Y73071D01*
X548794Y72877D01*
Y72867D01*
X548813Y72858D01*
X548859Y72793D01*
X548933Y72710D01*
X549044Y72608D01*
X549183Y72488D01*
X549340Y72377D01*
X549534Y72276D01*
X549747Y72183D01*
X549756D01*
X549774Y72174D01*
X549802Y72165D01*
X549848Y72155D01*
X549904Y72137D01*
X549968Y72119D01*
X550126Y72091D01*
X550311Y72054D01*
X550514Y72017D01*
X550736Y71998D01*
X550976Y71989D01*
X550985D01*
X551013D01*
X551059D01*
X551115D01*
X551180Y71998D01*
X551263D01*
X551355Y72008D01*
X551457Y72017D01*
X551679Y72045D01*
X551919Y72091D01*
X552160Y72146D01*
X552400Y72220D01*
X552409D01*
X552428Y72229D01*
X552456Y72248D01*
X552502Y72267D01*
X552613Y72322D01*
X552742Y72405D01*
X552890Y72507D01*
X553047Y72636D01*
X553186Y72784D01*
X553315Y72960D01*
Y72969D01*
X553325Y72988D01*
X553343Y73015D01*
X553362Y73052D01*
X553380Y73099D01*
X553408Y73154D01*
X553463Y73284D01*
X553519Y73450D01*
X553565Y73635D01*
X553602Y73838D01*
X553611Y74051D01*
Y74116D01*
X553602Y74171D01*
Y74236D01*
X553593Y74300D01*
X553556Y74467D01*
X553510Y74661D01*
X553436Y74855D01*
X553334Y75059D01*
X553278Y75160D01*
X553204Y75253D01*
X553195Y75262D01*
X553186Y75271D01*
X553158Y75299D01*
X553130Y75336D01*
X553084Y75373D01*
X553029Y75419D01*
X552973Y75475D01*
X552899Y75521D01*
X552816Y75576D01*
X552724Y75641D01*
X552631Y75697D01*
X552520Y75752D01*
X552400Y75798D01*
X552271Y75844D01*
X552132Y75891D01*
X551984Y75928D01*
X552197Y76778D01*
X552206D01*
X552243Y76769D01*
D02*
G37*
G36*
X555971Y199381D02*
X556054D01*
X556156Y199372D01*
X556267Y199353D01*
X556396Y199335D01*
X556664Y199288D01*
X556942Y199214D01*
X557219Y199113D01*
X557349Y199048D01*
X557478Y198974D01*
X557487Y198965D01*
X557506Y198955D01*
X557543Y198928D01*
X557580Y198891D01*
X557635Y198854D01*
X557700Y198798D01*
X557774Y198734D01*
X557848Y198660D01*
X557922Y198577D01*
X558005Y198493D01*
X558171Y198281D01*
X558329Y198031D01*
X558467Y197754D01*
Y197744D01*
X558486Y197717D01*
X558495Y197670D01*
X558523Y197615D01*
X558541Y197541D01*
X558569Y197449D01*
X558606Y197347D01*
X558634Y197236D01*
X558661Y197116D01*
X558698Y196977D01*
X558745Y196690D01*
X558782Y196367D01*
X558800Y196034D01*
Y196025D01*
Y195988D01*
Y195932D01*
X558791Y195868D01*
Y195775D01*
X558782Y195683D01*
X558772Y195562D01*
X558754Y195442D01*
X558708Y195174D01*
X558643Y194878D01*
X558550Y194582D01*
X558421Y194296D01*
X558412Y194286D01*
X558402Y194259D01*
X558384Y194222D01*
X558347Y194176D01*
X558310Y194111D01*
X558264Y194037D01*
X558144Y193871D01*
X557986Y193685D01*
X557802Y193501D01*
X557589Y193316D01*
X557339Y193158D01*
X557330Y193149D01*
X557302Y193140D01*
X557265Y193122D01*
X557219Y193094D01*
X557145Y193066D01*
X557071Y193038D01*
X556979Y193001D01*
X556877Y192964D01*
X556766Y192927D01*
X556646Y192890D01*
X556387Y192835D01*
X556091Y192789D01*
X555786Y192770D01*
X555694D01*
X555629Y192780D01*
X555546Y192789D01*
X555444Y192798D01*
X555342Y192807D01*
X555222Y192835D01*
X554972Y192890D01*
X554695Y192974D01*
X554556Y193029D01*
X554427Y193094D01*
X554297Y193177D01*
X554168Y193260D01*
X554159Y193270D01*
X554140Y193279D01*
X554103Y193307D01*
X554057Y193353D01*
X554011Y193399D01*
X553946Y193464D01*
X553881Y193538D01*
X553807Y193612D01*
X553733Y193704D01*
X553660Y193815D01*
X553576Y193926D01*
X553502Y194046D01*
X553438Y194185D01*
X553364Y194324D01*
X553308Y194471D01*
X553253Y194638D01*
X554085Y194832D01*
Y194823D01*
X554094Y194804D01*
X554113Y194767D01*
X554131Y194721D01*
X554150Y194666D01*
X554177Y194592D01*
X554251Y194444D01*
X554344Y194277D01*
X554455Y194111D01*
X554593Y193954D01*
X554741Y193815D01*
X554760Y193797D01*
X554815Y193759D01*
X554908Y193713D01*
X555028Y193649D01*
X555185Y193593D01*
X555361Y193538D01*
X555573Y193501D01*
X555804Y193491D01*
X555878D01*
X555925Y193501D01*
X555989D01*
X556063Y193510D01*
X556239Y193538D01*
X556433Y193575D01*
X556637Y193639D01*
X556849Y193732D01*
X557043Y193852D01*
X557053D01*
X557062Y193871D01*
X557127Y193917D01*
X557210Y193991D01*
X557312Y194102D01*
X557432Y194240D01*
X557543Y194398D01*
X557644Y194592D01*
X557737Y194804D01*
Y194813D01*
X557746Y194832D01*
X557755Y194860D01*
X557765Y194906D01*
X557783Y194961D01*
X557802Y195026D01*
X557829Y195183D01*
X557866Y195368D01*
X557903Y195572D01*
X557922Y195793D01*
X557931Y196034D01*
Y196043D01*
Y196071D01*
Y196117D01*
Y196173D01*
X557922Y196237D01*
Y196320D01*
X557912Y196413D01*
X557903Y196515D01*
X557876Y196737D01*
X557829Y196977D01*
X557774Y197217D01*
X557700Y197458D01*
Y197467D01*
X557691Y197486D01*
X557672Y197513D01*
X557654Y197559D01*
X557598Y197670D01*
X557515Y197800D01*
X557413Y197948D01*
X557284Y198105D01*
X557136Y198244D01*
X556960Y198373D01*
X556951D01*
X556932Y198382D01*
X556905Y198401D01*
X556868Y198419D01*
X556822Y198438D01*
X556766Y198465D01*
X556637Y198521D01*
X556470Y198577D01*
X556285Y198623D01*
X556082Y198660D01*
X555869Y198669D01*
X555804D01*
X555749Y198660D01*
X555684D01*
X555620Y198650D01*
X555453Y198613D01*
X555259Y198567D01*
X555065Y198493D01*
X554861Y198392D01*
X554760Y198336D01*
X554667Y198262D01*
X554658Y198253D01*
X554649Y198244D01*
X554621Y198216D01*
X554584Y198188D01*
X554547Y198142D01*
X554501Y198086D01*
X554445Y198031D01*
X554399Y197957D01*
X554344Y197874D01*
X554279Y197781D01*
X554224Y197689D01*
X554168Y197578D01*
X554122Y197458D01*
X554076Y197328D01*
X554029Y197190D01*
X553992Y197042D01*
X553142Y197254D01*
Y197264D01*
X553151Y197301D01*
X553170Y197356D01*
X553197Y197430D01*
X553225Y197513D01*
X553262Y197615D01*
X553308Y197726D01*
X553364Y197846D01*
X553493Y198105D01*
X553660Y198364D01*
X553761Y198493D01*
X553863Y198623D01*
X553974Y198734D01*
X554103Y198845D01*
X554113Y198854D01*
X554131Y198872D01*
X554177Y198891D01*
X554224Y198928D01*
X554297Y198974D01*
X554371Y199020D01*
X554473Y199067D01*
X554575Y199113D01*
X554695Y199168D01*
X554824Y199214D01*
X554963Y199261D01*
X555111Y199307D01*
X555268Y199344D01*
X555435Y199362D01*
X555610Y199381D01*
X555795Y199390D01*
X555897D01*
X555971Y199381D01*
D02*
G37*
G36*
X549906Y197744D02*
X552689D01*
Y197023D01*
X549758Y192881D01*
X549120D01*
Y197023D01*
X548251D01*
Y197744D01*
X549120D01*
Y199279D01*
X549906D01*
Y197744D01*
D02*
G37*
%LPC*%
G36*
X415998Y474319D02*
X415989D01*
X415952D01*
X415905D01*
X415831Y474310D01*
X415748D01*
X415656Y474301D01*
X415545Y474291D01*
X415434Y474282D01*
X415184Y474236D01*
X414925Y474181D01*
X414685Y474097D01*
X414565Y474042D01*
X414463Y473986D01*
X414454D01*
X414435Y473968D01*
X414408Y473949D01*
X414371Y473931D01*
X414278Y473857D01*
X414167Y473764D01*
X414047Y473644D01*
X413927Y473506D01*
X413825Y473349D01*
X413742Y473182D01*
X413733Y473164D01*
X413723Y473117D01*
X413696Y473034D01*
X413668Y472914D01*
X413649Y472766D01*
X413622Y472581D01*
X413613Y472470D01*
Y472350D01*
X413603Y472230D01*
Y470751D01*
X418485D01*
Y472267D01*
X418476Y472332D01*
X418466Y472470D01*
X418457Y472627D01*
X418439Y472794D01*
X418411Y472960D01*
X418374Y473099D01*
X418365Y473117D01*
X418356Y473164D01*
X418328Y473228D01*
X418291Y473312D01*
X418235Y473404D01*
X418180Y473496D01*
X418115Y473589D01*
X418041Y473681D01*
X418023Y473691D01*
X417986Y473728D01*
X417921Y473783D01*
X417829Y473848D01*
X417708Y473922D01*
X417570Y474005D01*
X417412Y474079D01*
X417237Y474144D01*
X417228D01*
X417209Y474153D01*
X417181Y474162D01*
X417144Y474171D01*
X417098Y474181D01*
X417033Y474199D01*
X416969Y474218D01*
X416895Y474236D01*
X416710Y474264D01*
X416497Y474291D01*
X416257Y474310D01*
X415998Y474319D01*
D02*
G37*
G36*
X658264Y183762D02*
X658255D01*
X658237D01*
X658200D01*
X658153Y183753D01*
X658098D01*
X658033Y183744D01*
X657885Y183716D01*
X657719Y183679D01*
X657543Y183615D01*
X657377Y183522D01*
X657220Y183402D01*
X657201Y183383D01*
X657155Y183337D01*
X657099Y183263D01*
X657025Y183162D01*
X656952Y183032D01*
X656896Y182884D01*
X656850Y182708D01*
X656831Y182514D01*
Y182459D01*
X656841Y182422D01*
X656850Y182329D01*
X656878Y182200D01*
X656924Y182061D01*
X656998Y181904D01*
X657090Y181756D01*
X657220Y181608D01*
X657238Y181590D01*
X657284Y181553D01*
X657367Y181488D01*
X657488Y181423D01*
X657626Y181359D01*
X657802Y181294D01*
X657996Y181257D01*
X658218Y181238D01*
X658237D01*
X658283D01*
X658366Y181248D01*
X658468Y181257D01*
X658588Y181275D01*
X658717Y181312D01*
X658856Y181349D01*
X658995Y181405D01*
X659013Y181414D01*
X659060Y181442D01*
X659124Y181479D01*
X659207Y181534D01*
X659291Y181599D01*
X659392Y181682D01*
X659475Y181775D01*
X659559Y181886D01*
X659568Y181904D01*
X659586Y181941D01*
X659623Y182006D01*
X659651Y182089D01*
X659688Y182181D01*
X659725Y182292D01*
X659744Y182413D01*
X659753Y182542D01*
Y182588D01*
X659744Y182625D01*
X659734Y182718D01*
X659707Y182838D01*
X659651Y182967D01*
X659586Y183115D01*
X659485Y183263D01*
X659429Y183337D01*
X659355Y183402D01*
X659346D01*
X659337Y183420D01*
X659281Y183457D01*
X659189Y183513D01*
X659069Y183587D01*
X658912Y183652D01*
X658727Y183707D01*
X658514Y183744D01*
X658264Y183762D01*
D02*
G37*
G36*
X640640Y484290D02*
X635758D01*
Y482773D01*
X635767Y482709D01*
X635776Y482570D01*
X635786Y482413D01*
X635804Y482246D01*
X635832Y482080D01*
X635869Y481941D01*
X635878Y481923D01*
X635887Y481876D01*
X635915Y481812D01*
X635952Y481728D01*
X636008Y481636D01*
X636063Y481544D01*
X636128Y481451D01*
X636202Y481359D01*
X636220Y481349D01*
X636257Y481312D01*
X636322Y481257D01*
X636414Y481192D01*
X636535Y481118D01*
X636673Y481035D01*
X636830Y480961D01*
X637006Y480896D01*
X637015D01*
X637034Y480887D01*
X637062Y480878D01*
X637099Y480869D01*
X637145Y480859D01*
X637210Y480841D01*
X637274Y480822D01*
X637348Y480804D01*
X637533Y480776D01*
X637746Y480748D01*
X637986Y480730D01*
X638245Y480721D01*
X638254D01*
X638291D01*
X638338D01*
X638411Y480730D01*
X638495D01*
X638587Y480739D01*
X638698Y480748D01*
X638809Y480758D01*
X639059Y480804D01*
X639318Y480859D01*
X639558Y480943D01*
X639678Y480998D01*
X639780Y481054D01*
X639789D01*
X639808Y481072D01*
X639835Y481091D01*
X639872Y481109D01*
X639965Y481183D01*
X640076Y481275D01*
X640196Y481396D01*
X640316Y481534D01*
X640418Y481692D01*
X640501Y481858D01*
X640510Y481876D01*
X640519Y481923D01*
X640547Y482006D01*
X640575Y482126D01*
X640593Y482274D01*
X640621Y482459D01*
X640630Y482570D01*
Y482690D01*
X640640Y482810D01*
Y484290D01*
D02*
G37*
G36*
X637256Y478511D02*
Y476495D01*
X640122D01*
X637256Y478511D01*
D02*
G37*
G36*
X568144Y488289D02*
X568135D01*
X568098D01*
X568051D01*
X567977Y488280D01*
X567894D01*
X567802Y488271D01*
X567691Y488261D01*
X567580Y488252D01*
X567330Y488206D01*
X567071Y488151D01*
X566831Y488067D01*
X566711Y488012D01*
X566609Y487956D01*
X566600D01*
X566581Y487938D01*
X566554Y487919D01*
X566517Y487901D01*
X566424Y487827D01*
X566313Y487734D01*
X566193Y487614D01*
X566073Y487476D01*
X565971Y487318D01*
X565888Y487152D01*
X565879Y487134D01*
X565869Y487087D01*
X565842Y487004D01*
X565814Y486884D01*
X565796Y486736D01*
X565768Y486551D01*
X565759Y486440D01*
Y486320D01*
X565749Y486200D01*
Y484720D01*
X570631D01*
Y486237D01*
X570622Y486301D01*
X570612Y486440D01*
X570603Y486597D01*
X570585Y486764D01*
X570557Y486930D01*
X570520Y487069D01*
X570511Y487087D01*
X570502Y487134D01*
X570474Y487198D01*
X570437Y487281D01*
X570381Y487374D01*
X570326Y487466D01*
X570261Y487559D01*
X570187Y487651D01*
X570169Y487661D01*
X570132Y487698D01*
X570067Y487753D01*
X569975Y487818D01*
X569854Y487892D01*
X569716Y487975D01*
X569558Y488049D01*
X569383Y488114D01*
X569374D01*
X569355Y488123D01*
X569327Y488132D01*
X569290Y488141D01*
X569244Y488151D01*
X569179Y488169D01*
X569115Y488188D01*
X569041Y488206D01*
X568856Y488234D01*
X568643Y488261D01*
X568403Y488280D01*
X568144Y488289D01*
D02*
G37*
G36*
X77195Y620179D02*
X75078D01*
Y618275D01*
X75087Y618164D01*
X75096Y618035D01*
X75106Y617887D01*
X75124Y617739D01*
X75152Y617591D01*
X75189Y617461D01*
X75198Y617443D01*
X75216Y617406D01*
X75244Y617350D01*
X75281Y617276D01*
X75337Y617193D01*
X75401Y617110D01*
X75485Y617027D01*
X75577Y616962D01*
X75586Y616953D01*
X75623Y616934D01*
X75679Y616907D01*
X75753Y616870D01*
X75836Y616842D01*
X75928Y616814D01*
X76039Y616796D01*
X76150Y616786D01*
X76160D01*
X76169D01*
X76224Y616796D01*
X76308Y616805D01*
X76418Y616823D01*
X76529Y616870D01*
X76659Y616925D01*
X76779Y617008D01*
X76899Y617119D01*
X76908Y617138D01*
X76945Y617184D01*
X76992Y617258D01*
X77047Y617378D01*
X77103Y617517D01*
X77149Y617702D01*
X77186Y617914D01*
X77195Y618164D01*
Y620179D01*
D02*
G37*
G36*
X76298Y608881D02*
X76289D01*
X76280D01*
X76224Y608872D01*
X76141Y608863D01*
X76039Y608844D01*
X75919Y608807D01*
X75799Y608761D01*
X75669Y608687D01*
X75559Y608595D01*
X75549Y608586D01*
X75512Y608539D01*
X75466Y608475D01*
X75420Y608391D01*
X75364Y608280D01*
X75318Y608151D01*
X75281Y608003D01*
X75272Y607837D01*
Y607818D01*
X75281Y607763D01*
X75290Y607679D01*
X75309Y607569D01*
X75346Y607448D01*
X75392Y607328D01*
X75466Y607199D01*
X75559Y607088D01*
X75568Y607079D01*
X75614Y607042D01*
X75669Y606995D01*
X75753Y606940D01*
X75854Y606884D01*
X75975Y606838D01*
X76113Y606801D01*
X76261Y606792D01*
X76270D01*
X76280D01*
X76335D01*
X76418Y606810D01*
X76520Y606829D01*
X76631Y606866D01*
X76751Y606921D01*
X76871Y606995D01*
X76992Y607097D01*
X77001Y607106D01*
X77038Y607152D01*
X77084Y607217D01*
X77140Y607300D01*
X77195Y607411D01*
X77241Y607532D01*
X77278Y607679D01*
X77288Y607837D01*
Y607911D01*
X77269Y607994D01*
X77250Y608105D01*
X77214Y608225D01*
X77167Y608354D01*
X77093Y608475D01*
X76992Y608595D01*
X76982Y608604D01*
X76945Y608641D01*
X76881Y608687D01*
X76797Y608733D01*
X76696Y608789D01*
X76576Y608835D01*
X76446Y608872D01*
X76298Y608881D01*
D02*
G37*
G36*
X73349Y609140D02*
X73330D01*
X73293D01*
X73229Y609131D01*
X73145Y609122D01*
X73044Y609103D01*
X72933Y609076D01*
X72822Y609039D01*
X72702Y608992D01*
X72692Y608983D01*
X72646Y608965D01*
X72591Y608928D01*
X72526Y608872D01*
X72443Y608807D01*
X72360Y608724D01*
X72286Y608632D01*
X72212Y608521D01*
X72202Y608502D01*
X72184Y608465D01*
X72156Y608401D01*
X72129Y608317D01*
X72101Y608216D01*
X72073Y608096D01*
X72055Y607966D01*
X72045Y607837D01*
Y607781D01*
X72055Y607744D01*
X72064Y607633D01*
X72091Y607504D01*
X72138Y607356D01*
X72193Y607199D01*
X72286Y607051D01*
X72406Y606903D01*
X72424Y606884D01*
X72470Y606847D01*
X72554Y606783D01*
X72656Y606718D01*
X72785Y606653D01*
X72942Y606588D01*
X73127Y606552D01*
X73321Y606533D01*
X73330D01*
X73349D01*
X73377D01*
X73414Y606542D01*
X73515Y606552D01*
X73654Y606579D01*
X73793Y606625D01*
X73950Y606690D01*
X74107Y606783D01*
X74255Y606912D01*
X74273Y606931D01*
X74310Y606977D01*
X74375Y607060D01*
X74449Y607171D01*
X74514Y607310D01*
X74578Y607476D01*
X74616Y607661D01*
X74634Y607864D01*
Y607920D01*
X74625Y607957D01*
X74616Y608059D01*
X74588Y608188D01*
X74542Y608336D01*
X74477Y608484D01*
X74384Y608641D01*
X74264Y608780D01*
X74246Y608798D01*
X74200Y608835D01*
X74116Y608891D01*
X74015Y608955D01*
X73876Y609029D01*
X73719Y609085D01*
X73543Y609122D01*
X73349Y609140D01*
D02*
G37*
G36*
X27053Y625274D02*
X27043D01*
X27034D01*
X26978Y625264D01*
X26895Y625255D01*
X26784Y625237D01*
X26673Y625190D01*
X26544Y625135D01*
X26424Y625052D01*
X26304Y624941D01*
X26294Y624922D01*
X26257Y624876D01*
X26211Y624802D01*
X26156Y624682D01*
X26100Y624543D01*
X26054Y624358D01*
X26017Y624146D01*
X26008Y623896D01*
Y621880D01*
X28125D01*
Y623785D01*
X28116Y623896D01*
X28107Y624025D01*
X28097Y624173D01*
X28079Y624321D01*
X28051Y624469D01*
X28014Y624599D01*
X28005Y624617D01*
X27986Y624654D01*
X27959Y624710D01*
X27922Y624784D01*
X27866Y624867D01*
X27801Y624950D01*
X27718Y625033D01*
X27626Y625098D01*
X27617Y625107D01*
X27580Y625126D01*
X27524Y625153D01*
X27450Y625190D01*
X27367Y625218D01*
X27274Y625246D01*
X27163Y625264D01*
X27053Y625274D01*
D02*
G37*
G36*
X727980Y644475D02*
X727888D01*
X727823Y644466D01*
X727740Y644457D01*
X727647Y644438D01*
X727546Y644420D01*
X727435Y644392D01*
X727305Y644355D01*
X727185Y644318D01*
X727056Y644263D01*
X726917Y644198D01*
X726788Y644124D01*
X726658Y644032D01*
X726529Y643939D01*
X726409Y643819D01*
X726399Y643810D01*
X726381Y643791D01*
X726353Y643754D01*
X726316Y643699D01*
X726261Y643634D01*
X726214Y643551D01*
X726159Y643449D01*
X726104Y643338D01*
X726039Y643209D01*
X725983Y643061D01*
X725937Y642904D01*
X725891Y642728D01*
X725845Y642543D01*
X725817Y642340D01*
X725798Y642118D01*
X725789Y641887D01*
Y641868D01*
Y641831D01*
Y641766D01*
X725798Y641683D01*
X725808Y641581D01*
X725826Y641461D01*
X725845Y641323D01*
X725863Y641184D01*
X725937Y640870D01*
X725983Y640712D01*
X726048Y640555D01*
X726113Y640398D01*
X726196Y640250D01*
X726288Y640102D01*
X726399Y639973D01*
X726409Y639963D01*
X726427Y639945D01*
X726464Y639908D01*
X726510Y639871D01*
X726575Y639815D01*
X726649Y639760D01*
X726732Y639705D01*
X726834Y639640D01*
X726936Y639575D01*
X727056Y639520D01*
X727185Y639464D01*
X727324Y639409D01*
X727481Y639372D01*
X727638Y639335D01*
X727805Y639316D01*
X727980Y639307D01*
X728064D01*
X728147Y639316D01*
X728258Y639325D01*
X728396Y639344D01*
X728535Y639381D01*
X728692Y639418D01*
X728840Y639473D01*
X728822Y639483D01*
X728775Y639520D01*
X728692Y639566D01*
X728591Y639621D01*
X728461Y639677D01*
X728322Y639742D01*
X728165Y639797D01*
X727999Y639843D01*
X728212Y640453D01*
X728221D01*
X728249Y640444D01*
X728286Y640435D01*
X728332Y640416D01*
X728396Y640398D01*
X728470Y640370D01*
X728637Y640306D01*
X728831Y640213D01*
X729034Y640111D01*
X729229Y639991D01*
X729423Y639843D01*
X729432Y639852D01*
X729460Y639871D01*
X729497Y639917D01*
X729543Y639973D01*
X729598Y640047D01*
X729663Y640130D01*
X729728Y640232D01*
X729802Y640352D01*
X729866Y640490D01*
X729931Y640648D01*
X729996Y640814D01*
X730051Y640990D01*
X730107Y641193D01*
X730144Y641406D01*
X730162Y641637D01*
X730172Y641887D01*
Y641896D01*
Y641924D01*
Y641961D01*
Y642016D01*
X730162Y642090D01*
Y642164D01*
X730153Y642256D01*
X730135Y642349D01*
X730107Y642561D01*
X730061Y642793D01*
X729996Y643024D01*
X729903Y643246D01*
Y643255D01*
X729894Y643273D01*
X729876Y643301D01*
X729857Y643338D01*
X729792Y643449D01*
X729709Y643578D01*
X729598Y643726D01*
X729460Y643874D01*
X729303Y644022D01*
X729127Y644152D01*
X729118D01*
X729108Y644170D01*
X729081Y644180D01*
X729034Y644207D01*
X728988Y644226D01*
X728933Y644253D01*
X728794Y644318D01*
X728627Y644374D01*
X728433Y644429D01*
X728212Y644466D01*
X727980Y644475D01*
D02*
G37*
G36*
X727660Y450165D02*
X727568D01*
X727503Y450156D01*
X727420Y450147D01*
X727327Y450128D01*
X727226Y450110D01*
X727115Y450082D01*
X726985Y450045D01*
X726865Y450008D01*
X726736Y449953D01*
X726597Y449888D01*
X726468Y449814D01*
X726338Y449721D01*
X726209Y449629D01*
X726089Y449509D01*
X726079Y449500D01*
X726061Y449481D01*
X726033Y449444D01*
X725996Y449389D01*
X725941Y449324D01*
X725894Y449241D01*
X725839Y449139D01*
X725783Y449028D01*
X725719Y448899D01*
X725663Y448751D01*
X725617Y448594D01*
X725571Y448418D01*
X725525Y448233D01*
X725497Y448030D01*
X725478Y447808D01*
X725469Y447576D01*
Y447558D01*
Y447521D01*
Y447456D01*
X725478Y447373D01*
X725488Y447271D01*
X725506Y447151D01*
X725525Y447013D01*
X725543Y446874D01*
X725617Y446559D01*
X725663Y446402D01*
X725728Y446245D01*
X725793Y446088D01*
X725876Y445940D01*
X725968Y445792D01*
X726079Y445663D01*
X726089Y445653D01*
X726107Y445635D01*
X726144Y445598D01*
X726190Y445561D01*
X726255Y445505D01*
X726329Y445450D01*
X726412Y445395D01*
X726514Y445330D01*
X726616Y445265D01*
X726736Y445210D01*
X726865Y445154D01*
X727004Y445099D01*
X727161Y445062D01*
X727318Y445025D01*
X727485Y445006D01*
X727660Y444997D01*
X727744D01*
X727827Y445006D01*
X727938Y445015D01*
X728076Y445034D01*
X728215Y445071D01*
X728372Y445108D01*
X728520Y445163D01*
X728502Y445173D01*
X728455Y445210D01*
X728372Y445256D01*
X728270Y445311D01*
X728141Y445367D01*
X728002Y445432D01*
X727845Y445487D01*
X727679Y445533D01*
X727891Y446143D01*
X727901D01*
X727928Y446134D01*
X727965Y446125D01*
X728012Y446106D01*
X728076Y446088D01*
X728150Y446060D01*
X728317Y445996D01*
X728511Y445903D01*
X728714Y445801D01*
X728908Y445681D01*
X729103Y445533D01*
X729112Y445542D01*
X729140Y445561D01*
X729177Y445607D01*
X729223Y445663D01*
X729278Y445737D01*
X729343Y445820D01*
X729408Y445922D01*
X729482Y446042D01*
X729546Y446180D01*
X729611Y446338D01*
X729676Y446504D01*
X729731Y446680D01*
X729787Y446883D01*
X729824Y447096D01*
X729842Y447327D01*
X729852Y447576D01*
Y447586D01*
Y447613D01*
Y447650D01*
Y447706D01*
X729842Y447780D01*
Y447854D01*
X729833Y447946D01*
X729815Y448039D01*
X729787Y448251D01*
X729741Y448483D01*
X729676Y448714D01*
X729583Y448936D01*
Y448945D01*
X729574Y448963D01*
X729556Y448991D01*
X729537Y449028D01*
X729473Y449139D01*
X729389Y449268D01*
X729278Y449416D01*
X729140Y449564D01*
X728982Y449712D01*
X728807Y449842D01*
X728798D01*
X728788Y449860D01*
X728761Y449869D01*
X728714Y449897D01*
X728668Y449916D01*
X728613Y449943D01*
X728474Y450008D01*
X728307Y450064D01*
X728113Y450119D01*
X727891Y450156D01*
X727660Y450165D01*
D02*
G37*
G36*
X556820Y654470D02*
X551938D01*
Y652953D01*
X551947Y652888D01*
X551956Y652750D01*
X551966Y652593D01*
X551984Y652426D01*
X552012Y652260D01*
X552049Y652121D01*
X552058Y652103D01*
X552067Y652056D01*
X552095Y651992D01*
X552132Y651908D01*
X552188Y651816D01*
X552243Y651723D01*
X552308Y651631D01*
X552382Y651539D01*
X552400Y651529D01*
X552437Y651492D01*
X552502Y651437D01*
X552594Y651372D01*
X552715Y651298D01*
X552853Y651215D01*
X553010Y651141D01*
X553186Y651076D01*
X553195D01*
X553214Y651067D01*
X553242Y651058D01*
X553279Y651049D01*
X553325Y651039D01*
X553390Y651021D01*
X553454Y651002D01*
X553528Y650984D01*
X553713Y650956D01*
X553926Y650928D01*
X554166Y650910D01*
X554425Y650901D01*
X554434D01*
X554471D01*
X554518D01*
X554591Y650910D01*
X554675D01*
X554767Y650919D01*
X554878Y650928D01*
X554989Y650938D01*
X555239Y650984D01*
X555498Y651039D01*
X555738Y651123D01*
X555858Y651178D01*
X555960Y651234D01*
X555969D01*
X555988Y651252D01*
X556015Y651271D01*
X556052Y651289D01*
X556145Y651363D01*
X556256Y651455D01*
X556376Y651576D01*
X556496Y651714D01*
X556598Y651871D01*
X556681Y652038D01*
X556690Y652056D01*
X556699Y652103D01*
X556727Y652186D01*
X556755Y652306D01*
X556773Y652454D01*
X556801Y652639D01*
X556810Y652750D01*
Y652870D01*
X556820Y652990D01*
Y654470D01*
D02*
G37*
G36*
X617785Y661009D02*
X617776D01*
X617739D01*
X617692D01*
X617618Y661000D01*
X617535D01*
X617443Y660991D01*
X617332Y660982D01*
X617221Y660972D01*
X616971Y660926D01*
X616712Y660871D01*
X616472Y660787D01*
X616352Y660732D01*
X616250Y660676D01*
X616241D01*
X616222Y660658D01*
X616195Y660639D01*
X616158Y660621D01*
X616065Y660547D01*
X615954Y660454D01*
X615834Y660334D01*
X615714Y660196D01*
X615612Y660039D01*
X615529Y659872D01*
X615520Y659854D01*
X615510Y659807D01*
X615483Y659724D01*
X615455Y659604D01*
X615437Y659456D01*
X615409Y659271D01*
X615400Y659160D01*
Y659040D01*
X615390Y658920D01*
Y657440D01*
X620272D01*
Y658957D01*
X620263Y659022D01*
X620253Y659160D01*
X620244Y659317D01*
X620226Y659484D01*
X620198Y659650D01*
X620161Y659789D01*
X620152Y659807D01*
X620143Y659854D01*
X620115Y659918D01*
X620078Y660002D01*
X620022Y660094D01*
X619967Y660186D01*
X619902Y660279D01*
X619828Y660371D01*
X619810Y660381D01*
X619773Y660418D01*
X619708Y660473D01*
X619616Y660538D01*
X619495Y660612D01*
X619357Y660695D01*
X619199Y660769D01*
X619024Y660834D01*
X619015D01*
X618996Y660843D01*
X618968Y660852D01*
X618931Y660861D01*
X618885Y660871D01*
X618820Y660889D01*
X618756Y660908D01*
X618682Y660926D01*
X618497Y660954D01*
X618284Y660982D01*
X618044Y661000D01*
X617785Y661009D01*
D02*
G37*
G36*
X507401Y483019D02*
X502519D01*
Y481503D01*
X502528Y481438D01*
X502537Y481300D01*
X502547Y481143D01*
X502565Y480976D01*
X502593Y480810D01*
X502630Y480671D01*
X502639Y480653D01*
X502648Y480606D01*
X502676Y480542D01*
X502713Y480458D01*
X502769Y480366D01*
X502824Y480274D01*
X502889Y480181D01*
X502963Y480089D01*
X502981Y480079D01*
X503018Y480042D01*
X503083Y479987D01*
X503175Y479922D01*
X503296Y479848D01*
X503434Y479765D01*
X503591Y479691D01*
X503767Y479626D01*
X503776D01*
X503795Y479617D01*
X503823Y479608D01*
X503860Y479599D01*
X503906Y479589D01*
X503970Y479571D01*
X504035Y479552D01*
X504109Y479534D01*
X504294Y479506D01*
X504507Y479478D01*
X504747Y479460D01*
X505006Y479451D01*
X505015D01*
X505052D01*
X505098D01*
X505172Y479460D01*
X505256D01*
X505348Y479469D01*
X505459Y479478D01*
X505570Y479488D01*
X505820Y479534D01*
X506078Y479589D01*
X506319Y479673D01*
X506439Y479728D01*
X506541Y479784D01*
X506550D01*
X506568Y479802D01*
X506596Y479821D01*
X506633Y479839D01*
X506726Y479913D01*
X506837Y480005D01*
X506957Y480126D01*
X507077Y480264D01*
X507179Y480421D01*
X507262Y480588D01*
X507271Y480606D01*
X507280Y480653D01*
X507308Y480736D01*
X507336Y480856D01*
X507354Y481004D01*
X507382Y481189D01*
X507391Y481300D01*
Y481420D01*
X507401Y481540D01*
Y483019D01*
D02*
G37*
G36*
X503832Y476871D02*
X503813D01*
X503767D01*
X503684Y476862D01*
X503582Y476853D01*
X503462Y476834D01*
X503333Y476797D01*
X503194Y476760D01*
X503055Y476705D01*
X503037Y476696D01*
X502990Y476668D01*
X502926Y476631D01*
X502843Y476575D01*
X502759Y476511D01*
X502658Y476427D01*
X502574Y476335D01*
X502491Y476224D01*
X502482Y476205D01*
X502463Y476169D01*
X502426Y476104D01*
X502399Y476021D01*
X502362Y475928D01*
X502325Y475817D01*
X502306Y475697D01*
X502297Y475568D01*
Y475521D01*
X502306Y475484D01*
X502316Y475392D01*
X502343Y475272D01*
X502399Y475142D01*
X502463Y474994D01*
X502565Y474846D01*
X502621Y474772D01*
X502695Y474708D01*
X502704D01*
X502713Y474689D01*
X502769Y474652D01*
X502861Y474597D01*
X502981Y474523D01*
X503138Y474458D01*
X503323Y474403D01*
X503536Y474366D01*
X503786Y474347D01*
X503795D01*
X503813D01*
X503850D01*
X503897Y474356D01*
X503952D01*
X504017Y474366D01*
X504165Y474393D01*
X504331Y474430D01*
X504507Y474495D01*
X504673Y474588D01*
X504830Y474708D01*
X504849Y474726D01*
X504895Y474772D01*
X504951Y474846D01*
X505024Y474948D01*
X505098Y475078D01*
X505154Y475225D01*
X505200Y475401D01*
X505219Y475595D01*
Y475651D01*
X505209Y475688D01*
X505200Y475780D01*
X505172Y475910D01*
X505126Y476048D01*
X505052Y476205D01*
X504960Y476353D01*
X504830Y476501D01*
X504812Y476520D01*
X504766Y476557D01*
X504682Y476622D01*
X504562Y476686D01*
X504424Y476751D01*
X504248Y476816D01*
X504054Y476853D01*
X503832Y476871D01*
D02*
G37*
G36*
X23219Y335714D02*
X23209D01*
X23200D01*
X23145Y335704D01*
X23061Y335695D01*
X22950Y335677D01*
X22840Y335630D01*
X22710Y335575D01*
X22590Y335492D01*
X22470Y335381D01*
X22460Y335362D01*
X22423Y335316D01*
X22377Y335242D01*
X22322Y335122D01*
X22266Y334983D01*
X22220Y334798D01*
X22183Y334586D01*
X22174Y334336D01*
Y332321D01*
X24291D01*
Y334225D01*
X24282Y334336D01*
X24272Y334465D01*
X24263Y334613D01*
X24245Y334761D01*
X24217Y334909D01*
X24180Y335039D01*
X24171Y335057D01*
X24152Y335094D01*
X24125Y335150D01*
X24088Y335224D01*
X24032Y335307D01*
X23967Y335390D01*
X23884Y335473D01*
X23792Y335538D01*
X23782Y335547D01*
X23746Y335566D01*
X23690Y335593D01*
X23616Y335630D01*
X23533Y335658D01*
X23440Y335686D01*
X23330Y335704D01*
X23219Y335714D01*
D02*
G37*
G36*
X393277Y635173D02*
X391262D01*
Y632307D01*
X393277Y635173D01*
D02*
G37*
G36*
X140028Y335714D02*
X140019D01*
X140009D01*
X139954Y335704D01*
X139871Y335695D01*
X139760Y335677D01*
X139649Y335630D01*
X139519Y335575D01*
X139399Y335492D01*
X139279Y335381D01*
X139270Y335362D01*
X139233Y335316D01*
X139186Y335242D01*
X139131Y335122D01*
X139075Y334983D01*
X139029Y334798D01*
X138992Y334586D01*
X138983Y334336D01*
Y332321D01*
X141100D01*
Y334225D01*
X141091Y334336D01*
X141082Y334465D01*
X141073Y334613D01*
X141054Y334761D01*
X141026Y334909D01*
X140989Y335039D01*
X140980Y335057D01*
X140962Y335094D01*
X140934Y335150D01*
X140897Y335224D01*
X140842Y335307D01*
X140777Y335390D01*
X140694Y335473D01*
X140601Y335538D01*
X140592Y335547D01*
X140555Y335566D01*
X140499Y335593D01*
X140425Y335630D01*
X140342Y335658D01*
X140250Y335686D01*
X140139Y335704D01*
X140028Y335714D01*
D02*
G37*
G36*
X81679Y335323D02*
X81669D01*
X81660D01*
X81605Y335314D01*
X81522Y335305D01*
X81411Y335286D01*
X81300Y335240D01*
X81170Y335185D01*
X81050Y335102D01*
X80930Y334991D01*
X80920Y334972D01*
X80884Y334926D01*
X80837Y334852D01*
X80782Y334732D01*
X80726Y334593D01*
X80680Y334408D01*
X80643Y334196D01*
X80634Y333946D01*
Y331930D01*
X82751D01*
Y333835D01*
X82742Y333946D01*
X82733Y334075D01*
X82723Y334223D01*
X82705Y334371D01*
X82677Y334519D01*
X82640Y334649D01*
X82631Y334667D01*
X82612Y334704D01*
X82585Y334759D01*
X82548Y334833D01*
X82492Y334917D01*
X82428Y335000D01*
X82344Y335083D01*
X82252Y335148D01*
X82243Y335157D01*
X82206Y335176D01*
X82150Y335203D01*
X82076Y335240D01*
X81993Y335268D01*
X81901Y335296D01*
X81790Y335314D01*
X81679Y335323D01*
D02*
G37*
G36*
X551921Y197023D02*
X549906D01*
Y194157D01*
X551921Y197023D01*
D02*
G37*
%LPD*%
D11*
X404854Y406520D02*
Y533280D01*
X433854D01*
Y406520D02*
Y533280D01*
X404854Y406520D02*
X433854D01*
X649500Y421760D02*
Y548520D01*
X620500Y421760D02*
X649500D01*
X620500D02*
Y548520D01*
X649500D01*
X557000Y420490D02*
Y547250D01*
X586000D01*
Y420490D02*
Y547250D01*
X557000Y420490D02*
X586000D01*
X61430Y683780D02*
X88430D01*
X61430Y558280D02*
Y683780D01*
Y558280D02*
X88430D01*
Y683780D01*
X14440Y558280D02*
X41440D01*
Y683780D01*
X14440D02*
X41440D01*
X14440Y558280D02*
Y683780D01*
X699770Y585330D02*
Y694830D01*
Y585330D02*
X750070D01*
Y694830D01*
X699770D02*
X750070D01*
X700850Y390270D02*
Y501270D01*
Y390270D02*
X748350D01*
Y501270D01*
X700850D02*
X748350D01*
X536680Y718700D02*
X565680D01*
X536680Y591940D02*
Y718700D01*
Y591940D02*
X565680D01*
Y718700D01*
X606530Y593210D02*
X635530D01*
Y719970D01*
X606530D02*
X635530D01*
X606530Y593210D02*
Y719970D01*
X487150Y547250D02*
X516150D01*
X487150Y420490D02*
Y547250D01*
Y420490D02*
X516150D01*
Y547250D01*
X14360Y268720D02*
Y394220D01*
X41360D01*
Y268720D02*
Y394220D01*
X14360Y268720D02*
X41360D01*
X131280D02*
X158280D01*
Y394220D01*
X131280D02*
X158280D01*
X131280Y268720D02*
Y394220D01*
X72820Y268330D02*
X99820D01*
Y393830D01*
X72820D02*
X99820D01*
X72820Y268330D02*
Y393830D01*
X516450Y20120D02*
X588450D01*
Y122120D01*
X516450D02*
X588450D01*
X516450Y20120D02*
Y122120D01*
X590800Y185890D02*
Y212890D01*
X526800D02*
X590800D01*
X526800Y185890D02*
Y212890D01*
Y185890D02*
X590800D01*
M02*
