G04*
G04 #@! TF.GenerationSoftware,Altium Limited,Altium Designer,23.4.1 (23)*
G04*
G04 Layer_Color=16711935*
%FSLAX44Y44*%
%MOMM*%
G71*
G04*
G04 #@! TF.SameCoordinates,296E2F05-AFD3-44B7-80E4-9C800FA3EDDF*
G04*
G04*
G04 #@! TF.FilePolarity,Positive*
G04*
G01*
G75*
%ADD54C,0.1000*%
%ADD55C,0.7000*%
D54*
X405845Y302390D02*
G03*
X405845Y302390I-5000J0D01*
G01*
X574120D02*
G03*
X574120Y302390I-5000J0D01*
G01*
X165970Y486410D02*
G03*
X165970Y486410I-25000J0D01*
G01*
X237570Y302390D02*
G03*
X237570Y302390I-5000J0D01*
G01*
X397589Y768309D02*
G03*
X397589Y768309I-25000J0D01*
G01*
X330279Y767039D02*
G03*
X330279Y767039I-25000J0D01*
G01*
X140409Y748269D02*
X244409D01*
X140409D02*
Y794269D01*
X244409D01*
Y748269D02*
Y794269D01*
X140409Y781269D02*
X244409D01*
X420440Y788810D02*
X524440D01*
Y748310D02*
Y794310D01*
X420440D02*
X524440D01*
X420440Y748310D02*
Y794310D01*
Y748310D02*
X524440D01*
X493345Y293390D02*
Y359390D01*
X391845Y293390D02*
Y359390D01*
X493345D01*
X391845Y293390D02*
X493345D01*
X661620D02*
Y359390D01*
X560120Y293390D02*
Y359390D01*
X661620D01*
X560120Y293390D02*
X661620D01*
X222231Y136450D02*
Y206450D01*
X197232D02*
X222231D01*
X197232Y136450D02*
Y206450D01*
Y136450D02*
X222231D01*
X257829D02*
X282829D01*
X257829D02*
Y206450D01*
X282829D01*
Y136450D02*
Y206450D01*
X318426Y136450D02*
X343426D01*
X318426D02*
Y206450D01*
X343426D01*
Y136450D02*
Y206450D01*
X223570Y293390D02*
X325070D01*
X223570Y359390D02*
X325070D01*
X223570Y293390D02*
Y359390D01*
X325070Y293390D02*
Y359390D01*
X439620Y136450D02*
X464620D01*
X439620D02*
Y206450D01*
X464620D01*
Y136450D02*
Y206450D01*
X404023Y136450D02*
Y206450D01*
X379023D02*
X404023D01*
X379023Y136450D02*
Y206450D01*
Y136450D02*
X404023D01*
X15440Y136450D02*
X40440D01*
X15440D02*
Y206450D01*
X40440D01*
Y136450D02*
Y206450D01*
X325870Y492460D02*
Y518460D01*
X285870Y492460D02*
Y518460D01*
X325870D01*
X285870Y492460D02*
X325870D01*
X338570Y416260D02*
Y442260D01*
X298570Y416260D02*
Y442260D01*
X338570D01*
X298570Y416260D02*
X338570D01*
X136634Y136450D02*
X161634D01*
X136634D02*
Y206450D01*
X161634D01*
Y136450D02*
Y206450D01*
X76037Y136450D02*
X101037D01*
X76037D02*
Y206450D01*
X101037D01*
Y136450D02*
Y206450D01*
D55*
X0Y0D02*
Y880110D01*
X806450D01*
Y0D02*
Y880110D01*
X0Y0D02*
X806450D01*
M02*
