G04*
G04 #@! TF.GenerationSoftware,Altium Limited,Altium Designer,23.4.1 (23)*
G04*
G04 Layer_Color=0*
%FSLAX44Y44*%
%MOMM*%
G71*
G04*
G04 #@! TF.SameCoordinates,296E2F05-AFD3-44B7-80E4-9C800FA3EDDF*
G04*
G04*
G04 #@! TF.FilePolarity,Positive*
G04*
G01*
G75*
%ADD54C,0.1000*%
D54*
X222050Y480140D02*
Y490140D01*
X217050Y485140D02*
X227050D01*
X419354Y464900D02*
Y474900D01*
X414354Y469900D02*
X424354D01*
X655400Y173990D02*
X665400D01*
X660400Y168990D02*
Y178990D01*
X214710Y627380D02*
X224710D01*
X219710Y622380D02*
Y632380D01*
X279320Y53340D02*
X289320D01*
X284320Y48340D02*
Y58340D01*
X635000Y480140D02*
Y490140D01*
X630000Y485140D02*
X640000D01*
X571500Y478870D02*
Y488870D01*
X566500Y483870D02*
X576500D01*
X69930Y621030D02*
X79930D01*
X74930Y616030D02*
Y626030D01*
X22940Y621030D02*
X32940D01*
X27940Y616030D02*
Y626030D01*
X724920Y635080D02*
Y645080D01*
X719920Y640080D02*
X729920D01*
X724600Y440770D02*
Y450770D01*
X719600Y445770D02*
X729600D01*
X546180Y655320D02*
X556180D01*
X551180Y650320D02*
Y660320D01*
X616030Y656590D02*
X626030D01*
X621030Y651590D02*
Y661590D01*
X496650Y483870D02*
X506650D01*
X501650Y478870D02*
Y488870D01*
X27860Y326470D02*
Y336470D01*
X22860Y331470D02*
X32860D01*
X400130Y637540D02*
X410130D01*
X405130Y632540D02*
Y642540D01*
X139780Y331470D02*
X149780D01*
X144780Y326470D02*
Y336470D01*
X81320Y331080D02*
X91320D01*
X86320Y326080D02*
Y336080D01*
X547450Y71120D02*
X557450D01*
X552450Y66120D02*
Y76120D01*
X558800Y194390D02*
Y204390D01*
X553800Y199390D02*
X563800D01*
M02*
