G04*
G04 #@! TF.GenerationSoftware,Altium Limited,Altium Designer,23.4.1 (23)*
G04*
G04 Layer_Color=32768*
%FSLAX44Y44*%
%MOMM*%
G71*
G04*
G04 #@! TF.SameCoordinates,296E2F05-AFD3-44B7-80E4-9C800FA3EDDF*
G04*
G04*
G04 #@! TF.FilePolarity,Positive*
G04*
G01*
G75*
%ADD11C,0.2000*%
%ADD54C,0.1000*%
%ADD56C,0.0500*%
D11*
X689820Y227690D02*
X760520D01*
Y310790D01*
X689820Y227690D02*
Y310790D01*
X760520D01*
X12910Y717910D02*
X83610D01*
Y801010D01*
X12910Y717910D02*
Y801010D01*
X83610D01*
X95610Y28150D02*
Y98850D01*
Y28150D02*
X216810D01*
X95610Y98850D02*
X216810D01*
Y28150D02*
Y98850D01*
X637900Y26300D02*
Y97000D01*
Y26300D02*
X759100D01*
X637900Y97000D02*
X759100D01*
Y26300D02*
Y97000D01*
X353420Y26300D02*
Y97000D01*
Y26300D02*
X474620D01*
X353420Y97000D02*
X474620D01*
Y26300D02*
Y97000D01*
X6560Y434700D02*
X77260D01*
Y517800D01*
X6560Y434700D02*
Y517800D01*
X77260D01*
D54*
X725170Y259240D02*
Y279240D01*
X715170Y269240D02*
X735170D01*
X187409Y765769D02*
X197409D01*
X192409Y760769D02*
Y770769D01*
X472440Y760810D02*
Y770810D01*
X467440Y765810D02*
X477440D01*
X437595Y326390D02*
X447595D01*
X442595Y321390D02*
Y331390D01*
X605870Y326390D02*
X615870D01*
X610870Y321390D02*
Y331390D01*
X140970Y481410D02*
Y491410D01*
X135970Y486410D02*
X145970D01*
X209731Y166450D02*
Y176450D01*
X204732Y171450D02*
X214732D01*
X265329D02*
X275329D01*
X270329Y166450D02*
Y176450D01*
X325926Y171450D02*
X335926D01*
X330926Y166450D02*
Y176450D01*
X48260Y749460D02*
Y769460D01*
X38260Y759460D02*
X58260D01*
X274320Y321390D02*
Y331390D01*
X269320Y326390D02*
X279320D01*
X447120Y171450D02*
X457120D01*
X452120Y166450D02*
Y176450D01*
X391523Y166450D02*
Y176450D01*
X386523Y171450D02*
X396523D01*
X22940D02*
X32940D01*
X27940Y166450D02*
Y176450D01*
X146210Y63500D02*
X166210D01*
X156210Y53500D02*
Y73500D01*
X688500Y61650D02*
X708500D01*
X698500Y51650D02*
Y71650D01*
X305870Y500460D02*
Y510460D01*
X300870Y505460D02*
X310870D01*
X367589Y768309D02*
X377589D01*
X372589Y763309D02*
Y773309D01*
X300279Y767039D02*
X310279D01*
X305279Y762039D02*
Y772039D01*
X318570Y424260D02*
Y434260D01*
X313570Y429260D02*
X323570D01*
X144134Y171450D02*
X154134D01*
X149134Y166450D02*
Y176450D01*
X83538Y171450D02*
X93538D01*
X88537Y166450D02*
Y176450D01*
X404020Y61650D02*
X424020D01*
X414020Y51650D02*
Y71650D01*
X41910Y466250D02*
Y486250D01*
X31910Y476250D02*
X51910D01*
D56*
X166970Y486410D02*
G03*
X166970Y486410I-26000J0D01*
G01*
X398589Y768309D02*
G03*
X398589Y768309I-26000J0D01*
G01*
X331279Y767039D02*
G03*
X331279Y767039I-26000J0D01*
G01*
X496095Y277890D02*
Y374890D01*
X389095Y277890D02*
Y374890D01*
X496095D01*
X389095Y277890D02*
X496095D01*
X664370D02*
Y374890D01*
X557370Y277890D02*
Y374890D01*
X664370D01*
X557370Y277890D02*
X664370D01*
X196231Y114700D02*
Y228200D01*
X223232D01*
X196231Y114700D02*
X223232D01*
Y228200D01*
X283829Y114700D02*
Y228200D01*
X256828Y114700D02*
X283829D01*
X256828Y228200D02*
X283829D01*
X256828Y114700D02*
Y228200D01*
X344426Y114700D02*
Y228200D01*
X317426Y114700D02*
X344426D01*
X317426Y228200D02*
X344426D01*
X317426Y114700D02*
Y228200D01*
X220820Y277890D02*
X327820D01*
X220820Y374890D02*
X327820D01*
X220820Y277890D02*
Y374890D01*
X327820Y277890D02*
Y374890D01*
X465620Y114700D02*
Y228200D01*
X438620Y114700D02*
X465620D01*
X438620Y228200D02*
X465620D01*
X438620Y114700D02*
Y228200D01*
X378023Y114700D02*
Y228200D01*
X405023D01*
X378023Y114700D02*
X405023D01*
Y228200D01*
X41440Y114700D02*
Y228200D01*
X14440Y114700D02*
X41440D01*
X14440Y228200D02*
X41440D01*
X14440Y114700D02*
Y228200D01*
X326870Y491460D02*
Y519460D01*
X284870Y491460D02*
Y519460D01*
X326870D01*
X284870Y491460D02*
X326870D01*
X339570Y415260D02*
Y443260D01*
X297570Y415260D02*
Y443260D01*
X339570D01*
X297570Y415260D02*
X339570D01*
X162634Y114700D02*
Y228200D01*
X135634Y114700D02*
X162634D01*
X135634Y228200D02*
X162634D01*
X135634Y114700D02*
Y228200D01*
X102037Y114700D02*
Y228200D01*
X75037Y114700D02*
X102037D01*
X75037Y228200D02*
X102037D01*
X75037Y114700D02*
Y228200D01*
M02*
