G04*
G04 #@! TF.GenerationSoftware,Altium Limited,Altium Designer,23.4.1 (23)*
G04*
G04 Layer_Color=128*
%FSLAX44Y44*%
%MOMM*%
G71*
G04*
G04 #@! TF.SameCoordinates,296E2F05-AFD3-44B7-80E4-9C800FA3EDDF*
G04*
G04*
G04 #@! TF.FilePolarity,Positive*
G04*
G01*
G75*
%ADD57C,0.1270*%
D57*
X11940Y852170D02*
X43940D01*
X27940Y836170D02*
Y868170D01*
X764415Y851535D02*
X796415D01*
X780415Y835535D02*
Y867535D01*
X231050Y485140D02*
X238050D01*
X234550Y481640D02*
Y488640D01*
X206050Y485140D02*
X213050D01*
X209550Y481640D02*
Y488640D01*
X414104Y415520D02*
X424604D01*
X419354Y410270D02*
Y420770D01*
X414104Y524280D02*
X424604D01*
X419354Y519030D02*
Y529530D01*
X656900Y186490D02*
X663900D01*
X660400Y182990D02*
Y189990D01*
X656900Y161490D02*
X663900D01*
X660400Y157990D02*
Y164990D01*
X723670Y288340D02*
X735670D01*
X729670Y282340D02*
Y294340D01*
X723670Y250240D02*
X735670D01*
X729670Y244240D02*
Y256240D01*
X177210Y627380D02*
X187210D01*
X182210Y622380D02*
Y632380D01*
X252210Y627380D02*
X262210D01*
X257210Y622380D02*
Y632380D01*
X212309Y765769D02*
X223309D01*
X217809Y760269D02*
Y771269D01*
X186909Y765769D02*
X197909D01*
X192409Y760269D02*
Y771269D01*
X161509Y765769D02*
X172509D01*
X167009Y760269D02*
Y771269D01*
X441540Y765810D02*
X452540D01*
X447040Y760310D02*
Y771310D01*
X466940Y765810D02*
X477940D01*
X472440Y760310D02*
Y771310D01*
X492340Y765810D02*
X503340D01*
X497840Y760310D02*
Y771310D01*
X476195Y364490D02*
X485195D01*
X480695Y359990D02*
Y368990D01*
X450795Y364490D02*
X459795D01*
X455295Y359990D02*
Y368990D01*
X425395Y364490D02*
X434395D01*
X429895Y359990D02*
Y368990D01*
X399995Y364490D02*
X408995D01*
X404495Y359990D02*
Y368990D01*
X476195Y288290D02*
X485195D01*
X480695Y283790D02*
Y292790D01*
X450795Y288290D02*
X459795D01*
X455295Y283790D02*
Y292790D01*
X425395Y288290D02*
X434395D01*
X429895Y283790D02*
Y292790D01*
X399995Y288290D02*
X408995D01*
X404495Y283790D02*
Y292790D01*
X644470Y364490D02*
X653470D01*
X648970Y359990D02*
Y368990D01*
X619070Y364490D02*
X628070D01*
X623570Y359990D02*
Y368990D01*
X593670Y364490D02*
X602670D01*
X598170Y359990D02*
Y368990D01*
X568270Y364490D02*
X577270D01*
X572770Y359990D02*
Y368990D01*
X644470Y288290D02*
X653470D01*
X648970Y283790D02*
Y292790D01*
X619070Y288290D02*
X628070D01*
X623570Y283790D02*
Y292790D01*
X593670Y288290D02*
X602670D01*
X598170Y283790D02*
Y292790D01*
X568270Y288290D02*
X577270D01*
X572770Y283790D02*
Y292790D01*
X126970Y486410D02*
X134970D01*
X130970Y482410D02*
Y490410D01*
X146970Y486410D02*
X154970D01*
X150970Y482410D02*
Y490410D01*
X205481Y122450D02*
X213981D01*
X209731Y118200D02*
Y126700D01*
X205481Y220450D02*
X213981D01*
X209731Y216200D02*
Y224700D01*
X266079Y220450D02*
X274579D01*
X270329Y216200D02*
Y224700D01*
X266079Y122450D02*
X274579D01*
X270329Y118200D02*
Y126700D01*
X326676Y220450D02*
X335176D01*
X330926Y216200D02*
Y224700D01*
X326676Y122450D02*
X335176D01*
X330926Y118200D02*
Y126700D01*
X270820Y53340D02*
X277820D01*
X274320Y49840D02*
Y56840D01*
X290820Y53340D02*
X297820D01*
X294320Y49840D02*
Y56840D01*
X629750Y539520D02*
X640250D01*
X635000Y534270D02*
Y544770D01*
X629750Y430760D02*
X640250D01*
X635000Y425510D02*
Y436010D01*
X566250Y429490D02*
X576750D01*
X571500Y424240D02*
Y434740D01*
X566250Y538250D02*
X576750D01*
X571500Y533000D02*
Y543500D01*
X70680Y566030D02*
X79180D01*
X74930Y561780D02*
Y570280D01*
X70680Y676030D02*
X79180D01*
X74930Y671780D02*
Y680280D01*
X46760Y778560D02*
X58760D01*
X52760Y772560D02*
Y784560D01*
X46760Y740460D02*
X58760D01*
X52760Y734460D02*
Y746460D01*
X23690Y676030D02*
X32190D01*
X27940Y671780D02*
Y680280D01*
X23690Y566030D02*
X32190D01*
X27940Y561780D02*
Y570280D01*
X231720Y288290D02*
X240720D01*
X236220Y283790D02*
Y292790D01*
X257120Y288290D02*
X266120D01*
X261620Y283790D02*
Y292790D01*
X282520Y288290D02*
X291520D01*
X287020Y283790D02*
Y292790D01*
X307920Y288290D02*
X316920D01*
X312420Y283790D02*
Y292790D01*
X231720Y364490D02*
X240720D01*
X236220Y359990D02*
Y368990D01*
X257120Y364490D02*
X266120D01*
X261620Y359990D02*
Y368990D01*
X282520Y364490D02*
X291520D01*
X287020Y359990D02*
Y368990D01*
X307920Y364490D02*
X316920D01*
X312420Y359990D02*
Y368990D01*
X712320Y614680D02*
X725320D01*
X718820Y608180D02*
Y621180D01*
X712320Y640080D02*
X725320D01*
X718820Y633580D02*
Y646580D01*
X712320Y665480D02*
X725320D01*
X718820Y658980D02*
Y671980D01*
X447870Y220450D02*
X456370D01*
X452120Y216200D02*
Y224700D01*
X447870Y122450D02*
X456370D01*
X452120Y118200D02*
Y126700D01*
X387273Y122450D02*
X395773D01*
X391523Y118200D02*
Y126700D01*
X387273Y220450D02*
X395773D01*
X391523Y216200D02*
Y224700D01*
X711550Y420370D02*
X723550D01*
X717550Y414370D02*
Y426370D01*
X711550Y445770D02*
X723550D01*
X717550Y439770D02*
Y451770D01*
X711550Y471170D02*
X723550D01*
X717550Y465170D02*
Y477170D01*
X545930Y600940D02*
X556430D01*
X551180Y595690D02*
Y606190D01*
X545930Y709700D02*
X556430D01*
X551180Y704450D02*
Y714950D01*
X615780Y710970D02*
X626280D01*
X621030Y705720D02*
Y716220D01*
X615780Y602210D02*
X626280D01*
X621030Y596960D02*
Y607460D01*
X496400Y429490D02*
X506900D01*
X501650Y424240D02*
Y434740D01*
X496400Y538250D02*
X506900D01*
X501650Y533000D02*
Y543500D01*
X11305Y26035D02*
X43305D01*
X27305Y10035D02*
Y42035D01*
X765685Y26035D02*
X797685D01*
X781685Y10035D02*
Y42035D01*
X23610Y276470D02*
X32110D01*
X27860Y272220D02*
Y280720D01*
X23610Y386470D02*
X32110D01*
X27860Y382220D02*
Y390720D01*
X437630Y637540D02*
X447630D01*
X442630Y632540D02*
Y642540D01*
X362630Y637540D02*
X372630D01*
X367630Y632540D02*
Y642540D01*
X23690Y220450D02*
X32190D01*
X27940Y216200D02*
Y224700D01*
X23690Y122450D02*
X32190D01*
X27940Y118200D02*
Y126700D01*
X188410Y59000D02*
X200410D01*
X194410Y53000D02*
Y65000D01*
X150210Y59000D02*
X162210D01*
X156210Y53000D02*
Y65000D01*
X112210Y59000D02*
X124210D01*
X118210Y53000D02*
Y65000D01*
X140530Y386470D02*
X149030D01*
X144780Y382220D02*
Y390720D01*
X140530Y276470D02*
X149030D01*
X144780Y272220D02*
Y280720D01*
X82070Y386080D02*
X90570D01*
X86320Y381830D02*
Y390330D01*
X82070Y276080D02*
X90570D01*
X86320Y271830D02*
Y280330D01*
X730700Y57150D02*
X742700D01*
X736700Y51150D02*
Y63150D01*
X692500Y57150D02*
X704500D01*
X698500Y51150D02*
Y63150D01*
X654500Y57150D02*
X666500D01*
X660500Y51150D02*
Y63150D01*
X548450Y108620D02*
X556450D01*
X552450Y104620D02*
Y112620D01*
X548450Y33620D02*
X556450D01*
X552450Y29620D02*
Y37620D01*
X289620Y505460D02*
X297120D01*
X293370Y501710D02*
Y509210D01*
X314620Y505460D02*
X322120D01*
X318370Y501710D02*
Y509210D01*
X378589Y768309D02*
X386589D01*
X382589Y764309D02*
Y772309D01*
X358589Y768309D02*
X366589D01*
X362589Y764309D02*
Y772309D01*
X311279Y767039D02*
X319279D01*
X315279Y763039D02*
Y771039D01*
X291279Y767039D02*
X299279D01*
X295279Y763039D02*
Y771039D01*
X302320Y429260D02*
X309820D01*
X306070Y425510D02*
Y433010D01*
X327320Y429260D02*
X334820D01*
X331070Y425510D02*
Y433010D01*
X144884Y220450D02*
X153384D01*
X149134Y216200D02*
Y224700D01*
X144884Y122450D02*
X153384D01*
X149134Y118200D02*
Y126700D01*
X84287Y220450D02*
X92787D01*
X88537Y216200D02*
Y224700D01*
X84287Y122450D02*
X92787D01*
X88537Y118200D02*
Y126700D01*
X446220Y57150D02*
X458220D01*
X452220Y51150D02*
Y63150D01*
X408020Y57150D02*
X420020D01*
X414020Y51150D02*
Y63150D01*
X370020Y57150D02*
X382020D01*
X376020Y51150D02*
Y63150D01*
X40410Y495350D02*
X52410D01*
X46410Y489350D02*
Y501350D01*
X40410Y457250D02*
X52410D01*
X46410Y451250D02*
Y463250D01*
X530300Y199390D02*
X537300D01*
X533800Y195890D02*
Y202890D01*
X580300Y199390D02*
X587300D01*
X583800Y195890D02*
Y202890D01*
X628904Y269240D02*
X636016D01*
X632460Y265684D02*
Y272796D01*
X651764Y252730D02*
X658876D01*
X655320Y249174D02*
Y256286D01*
X279146Y18034D02*
X286258D01*
X282702Y14478D02*
Y21590D01*
X694028Y18034D02*
X701140D01*
X697584Y14478D02*
Y21590D01*
M02*
