G04*
G04 #@! TF.GenerationSoftware,Altium Limited,Altium Designer,23.4.1 (23)*
G04*
G04 Layer_Color=32768*
%FSLAX44Y44*%
%MOMM*%
G71*
G04*
G04 #@! TF.SameCoordinates,296E2F05-AFD3-44B7-80E4-9C800FA3EDDF*
G04*
G04*
G04 #@! TF.FilePolarity,Positive*
G04*
G01*
G75*
%ADD11C,0.2000*%
D11*
X187050Y485140D02*
G03*
X257050Y485140I35000J0D01*
G01*
D02*
G03*
X187050Y485140I-35000J0D01*
G01*
X660400Y138990D02*
G03*
X660400Y208990I0J35000D01*
G01*
D02*
G03*
X660400Y138990I0J-35000D01*
G01*
X303210Y627380D02*
G03*
X136210Y627380I-83500J0D01*
G01*
D02*
G03*
X303210Y627380I83500J0D01*
G01*
X312820Y53340D02*
G03*
X255820Y53340I-28500J0D01*
G01*
D02*
G03*
X312820Y53340I28500J0D01*
G01*
X321630Y637540D02*
G03*
X488630Y637540I83500J0D01*
G01*
D02*
G03*
X321630Y637540I-83500J0D01*
G01*
X404854Y406520D02*
Y533280D01*
X433854D01*
Y406520D02*
Y533280D01*
X404854Y406520D02*
X433854D01*
X649500Y421760D02*
Y548520D01*
X620500Y421760D02*
X649500D01*
X620500D02*
Y548520D01*
X649500D01*
X557000Y420490D02*
Y547250D01*
X586000D01*
Y420490D02*
Y547250D01*
X557000Y420490D02*
X586000D01*
X61430Y683780D02*
X88430D01*
X61430Y558280D02*
Y683780D01*
Y558280D02*
X88430D01*
Y683780D01*
X14440Y558280D02*
X41440D01*
Y683780D01*
X14440D02*
X41440D01*
X14440Y558280D02*
Y683780D01*
X699770Y585330D02*
Y694830D01*
Y585330D02*
X750070D01*
Y694830D01*
X699770D02*
X750070D01*
X700850Y390270D02*
Y501270D01*
Y390270D02*
X748350D01*
Y501270D01*
X700850D02*
X748350D01*
X536680Y718700D02*
X565680D01*
X536680Y591940D02*
Y718700D01*
Y591940D02*
X565680D01*
Y718700D01*
X606530Y593210D02*
X635530D01*
Y719970D01*
X606530D02*
X635530D01*
X606530Y593210D02*
Y719970D01*
X487150Y547250D02*
X516150D01*
X487150Y420490D02*
Y547250D01*
Y420490D02*
X516150D01*
Y547250D01*
X14360Y268720D02*
Y394220D01*
X41360D01*
Y268720D02*
Y394220D01*
X14360Y268720D02*
X41360D01*
X131280D02*
X158280D01*
Y394220D01*
X131280D02*
X158280D01*
X131280Y268720D02*
Y394220D01*
X72820Y268330D02*
X99820D01*
Y393830D01*
X72820D02*
X99820D01*
X72820Y268330D02*
Y393830D01*
X516450Y20120D02*
X588450D01*
Y122120D01*
X516450D02*
X588450D01*
X516450Y20120D02*
Y122120D01*
X590800Y185890D02*
Y212890D01*
X526800D02*
X590800D01*
X526800Y185890D02*
Y212890D01*
Y185890D02*
X590800D01*
M02*
